SplineFontDB: 1.0
FontName: DBThaiText
FullName: DBThaiText
FamilyName: DBThaiText
Weight: Medium
Copyright: Typeface (c) The Monotype Corporation plc. Data (c) The Monotype Corporation plc/Type Solutions Inc. 1990-1992. All Rights Reserved\n\nModified by TLWG
Version: 2.0 : Dec 10, 2003
ItalicAngle: 0
UnderlinePosition: -50
UnderlineWidth: 40
Ascent: 800
Descent: 200
NeedsXUIDChange: 1
FSType: 0
PfmFamily: 33
TTFWeight: 500
TTFWidth: 5
Panose: 2 0 6 3 0 0 0 0 0 0
LineGap: 184
VLineGap: 0
OS2WinAscent: 0
OS2WinAOffset: 1
OS2WinDescent: 0
OS2WinDOffset: 1
ScriptLang: 4
 3 DFLT 1 dflt latn 1 dflt thai 4 KUY  PAL  THA  dflt 
 1 thai 4 KUY  PAL  THA  dflt 
 1 latn 1 dflt 
 1 thai 1 PAL  
ContextSub: glyph 0 3 ' RQD' 0 0 0 1
 String: 15 uni0E0D uni0E10
 BString: 0 
 FString: 0 
 1
  SeqLookup: 0 'ndsc'
EndFPST
ChainSub: coverage 0 1 'ccmp' 0 0 0 1
 1 1 0
  Coverage: 39 uni0E48 uni0E49 uni0E4A uni0E4B uni0E4C
  BCoverage: 414 uni0E01 uni0E02 uni0E03 uni0E04 uni0E05 uni0E06 uni0E07 uni0E08 uni0E09 uni0E0A uni0E0B uni0E0C uni0E0D uni0E0E uni0E0F uni0E10 uni0E11 uni0E12 uni0E13 uni0E14 uni0E15 uni0E16 uni0E17 uni0E18 uni0E19 uni0E1A uni0E1B uni0E1C uni0E1D uni0E1E uni0E1F uni0E20 uni0E21 uni0E22 uni0E23 uni0E24 uni0E25 uni0E26 uni0E27 uni0E28 uni0E29 uni0E2A uni0E2B uni0E2C uni0E2D uni0E2E uni0E10.descless uni0E0D.descless dottedcircle
 1
  SeqLookup: 0 'loww'
EndFPST
ChainSub: coverage 0 1 'ccmp' 0 0 0 1
 1 2 0
  Coverage: 39 uni0E48 uni0E49 uni0E4A uni0E4B uni0E4C
  BCoverage: 23 uni0E38 uni0E39 uni0E3A
  BCoverage: 414 uni0E01 uni0E02 uni0E03 uni0E04 uni0E05 uni0E06 uni0E07 uni0E08 uni0E09 uni0E0A uni0E0B uni0E0C uni0E0D uni0E0E uni0E0F uni0E10 uni0E11 uni0E12 uni0E13 uni0E14 uni0E15 uni0E16 uni0E17 uni0E18 uni0E19 uni0E1A uni0E1B uni0E1C uni0E1D uni0E1E uni0E1F uni0E20 uni0E21 uni0E22 uni0E23 uni0E24 uni0E25 uni0E26 uni0E27 uni0E28 uni0E29 uni0E2A uni0E2B uni0E2C uni0E2D uni0E2E uni0E10.descless uni0E0D.descless dottedcircle
 1
  SeqLookup: 0 'loww'
EndFPST

StartChar: .notdef
Encoding: 0 -1 0
OldEncoding: 0
Width: 532
VWidth: 2048
Flags: W
HStem: -26 70<109 462> 853 70<38 391>
VStem: 38 71<-26 853> 391 71<44 923>
Fore
38 -26 m 1
 38 923 l 1
 462 923 l 1
 462 -26 l 1
 38 -26 l 1
109 44 m 1
 391 44 l 1
 391 853 l 1
 109 853 l 1
 109 44 l 1
EndSplineSet
EndChar
StartChar: exclam
Encoding: 3 33 3
OldEncoding: 33
Width: 188
Flags: W
HStem: 0 21G<84 141> 474 20G<84 141>
VStem: 84 57<0 70 250 494>
Fore
127 113 m 1
 98 113 l 1
 84 251 l 1
 84 494 l 1
 141 494 l 1
 141 251 l 1
 127 113 l 1
84 70 m 1
 141 70 l 1
 141 0 l 1
 84 0 l 1
 84 70 l 1
EndSplineSet
EndChar
StartChar: quotedbl
Encoding: 4 34 4
OldEncoding: 34
Width: 226
VWidth: 2048
Flags: W
HStem: 474 20G<30 87 136 193>
VStem: 30 57<416 494> 136 57<416 494>
Fore
44 328 m 1
 30 417 l 1
 30 494 l 1
 87 494 l 1
 87 417 l 1
 72 328 l 1
 44 328 l 1
150 328 m 1
 136 417 l 1
 136 494 l 1
 193 494 l 5
 193 417 l 1
 178 328 l 1
 150 328 l 1
EndSplineSet
EndChar
StartChar: numbersign
Encoding: 5 35 5
OldEncoding: 35
Width: 377
Flags: W
HStem: -14 21G<52 103 189 240> 129 54<9 77 140 214 277 345> 287 54<35 106 167 242 305 367> 287 186<140 242 276 367>
DStem: 77 129 130 129 52 -14 103 -14 106 287 158 287 87 183 140 183 140 473 192 473 115 341 167 341 214 129 266 129 189 -14 240 -14 242 287 295 287 224 183 277 183 276 473 329 473 252 341 305 341
Fore
140 473 m 1xd0
 192 473 l 1xd0
 167 341 l 1
 252 341 l 1xe0
 276 473 l 1
 329 473 l 1xd0
 305 341 l 1
 367 341 l 1
 367 287 l 1xe0
 295 287 l 1xd0
 277 183 l 1
 345 183 l 1
 345 129 l 1
 266 129 l 1
 240 -14 l 1
 189 -14 l 1
 214 129 l 1
 130 129 l 1
 103 -14 l 1
 52 -14 l 1
 77 129 l 1
 9 129 l 1
 9 183 l 1
 87 183 l 1
 106 287 l 1
 35 287 l 1
 35 341 l 1
 115 341 l 1xe0
 140 473 l 1xd0
158 287 m 1
 140 183 l 1
 224 183 l 1
 242 287 l 1xe0
 158 287 l 1
EndSplineSet
EndChar
StartChar: dollar
Encoding: 6 36 6
OldEncoding: 36
Width: 377
Flags: W
VStem: 33 52<347.625 363.937> 165 41<-85 -15 32 209 276 436 485 522> 294 57<122 142>
Fore
337 353 m 1
 282 353 l 1
 281 377 276 397 263 410 c 1
 251 427 232 436 206 436 c 1
 206 270 l 1
 241 260 268 251 285 243 c 0
 302 236 316 224 331 205 c 0
 345 185 351 160 351 128 c 0
 351 93 340 62 318 37 c 0
 294 11 269 -3 243 -8 c 2
 206 -15 l 1
 206 -85 l 1
 165 -85 l 1
 165 -16 l 1
 138 -10 115 -5 98 1 c 0
 80 8 63 23 47 44 c 0
 31 66 23 98 23 141 c 1
 75 141 l 1
 77 121 80 104 84 92 c 0
 87 79 95 67 107 55 c 0
 120 45 139 37 165 32 c 1
 165 216 l 1
 154 219 141 224 127 228 c 0
 112 233 99 238 88 245 c 0
 76 251 67 259 59 267 c 1
 42 288 33 320 33 364 c 1
 37 403 52 433 76 452 c 0
 99 471 130 483 165 486 c 1
 165 522 l 1
 206 522 l 1
 206 486 l 1
 243 483 275 470 298 450 c 0
 313 437 323 423 329 405 c 0
 334 385 337 368 337 353 c 1
165 276 m 1
 165 437 l 1
 145 436 127 429 111 416 c 0
 95 401 85 384 85 365 c 0
 84 341 92 322 106 306 c 0
 121 290 140 280 165 276 c 1
206 209 m 1
 206 33 l 1
 217 34 229 37 242 43 c 0
 254 47 267 56 278 71 c 0
 288 85 294 103 294 127 c 0
 294 153 286 172 270 182 c 0
 253 193 232 201 206 209 c 1
EndSplineSet
EndChar
StartChar: percent
Encoding: 7 37 7
OldEncoding: 37
Width: 602
Flags: W
HStem: -14 48<467 469> 171 47<467 469> 233 47<136 147> 417 47<136 147>
VStem: 19 48<348 355> 205 47<348 355> 350 48<103 115> 534 48<103 115>
DStem: 412 480 459 480 145 -14 191 -14
Fore
412 480 m 1
 459 480 l 1
 191 -14 l 1
 145 -14 l 1
 412 480 l 1
19 348 m 0
 19 381 31 408 53 431 c 0
 77 453 104 464 136 464 c 0
 168 464 195 453 218 431 c 0
 241 408 252 381 252 348 c 0
 252 316 241 289 217 267 c 0
 194 244 167 233 136 233 c 0
 105 233 78 244 54 267 c 0
 31 289 19 316 19 348 c 0
350 103 m 0
 350 134 362 162 384 184 c 0
 407 207 434 218 467 218 c 0
 488 218 507 212 524 202 c 0
 542 192 556 179 566 160 c 0
 576 144 582 124 582 103 c 0
 582 70 571 43 548 20 c 0
 525 -2 498 -14 467 -14 c 0
 435 -14 408 -2 384 20 c 0
 362 43 350 70 350 103 c 0
67 348 m 0
 67 329 73 313 87 301 c 0
 101 287 116 280 136 280 c 0
 155 280 172 287 185 301 c 0
 198 313 205 329 205 348 c 0
 205 360 201 373 195 383 c 0
 190 393 181 402 171 408 c 0
 160 414 148 417 136 417 c 0
 116 417 101 411 87 398 c 0
 72 383 67 367 67 348 c 0
398 103 m 0
 398 84 405 67 418 54 c 0
 432 41 447 34 467 34 c 0
 486 34 502 41 515 54 c 0
 528 67 534 84 534 103 c 0
 534 122 528 138 514 150 c 0
 501 164 485 171 467 171 c 0
 447 171 432 164 418 150 c 0
 405 138 398 122 398 103 c 0
EndSplineSet
EndChar
StartChar: ampersand
Encoding: 8 38 8
OldEncoding: 38
Width: 452
Flags: W
HStem: -16 54<165 183> 0 21G<357 432> 434 47<190 212>
VStem: 35 58<111.016 126.417> 90 58<367 390> 262 57<376 385>
DStem: 175 227 224 257 284 92 313 147 315 50 348 103 357 0 432 0
Fore
432 0 m 1x6c
 357 0 l 1x6c
 315 50 l 1
 312 47 307 43 299 36 c 0
 292 28 284 23 276 17 c 0
 267 10 258 5 247 -1 c 1
 220 -11 194 -16 171 -16 c 0
 144 -16 120 -10 99 2 c 0
 59 26 36 61 35 110 c 0xb4
 34 141 41 167 53 188 c 0
 66 208 84 227 107 243 c 2
 142 267 l 1
 120 299 l 2
 103 324 90 348 90 375 c 0
 90 410 106 441 139 462 c 0
 159 476 182 481 207 481 c 0
 237 481 263 471 284 452 c 0
 307 429 319 405 319 376 c 0
 319 357 313 339 302 322 c 0
 290 304 277 289 260 279 c 2
 224 257 l 1
 313 147 l 1
 328 176 334 202 334 226 c 1
 389 226 l 1
 389 208 384 188 376 164 c 0
 368 140 359 120 348 103 c 1
 432 0 l 1x6c
255 406 m 0
 252 415 245 421 236 426 c 0
 227 432 216 434 203 434 c 0
 190 434 177 431 167 423 c 0
 157 415 151 405 148 390 c 1
 148 368 150 353 156 344 c 0
 162 334 174 320 192 298 c 1
 207 304 223 313 238 327 c 0
 254 340 262 357 262 376 c 0
 262 386 260 396 255 406 c 0
284 92 m 1
 175 227 l 1
 168 224 160 218 150 211 c 0
 140 205 131 197 123 189 c 0
 115 180 107 168 102 155 c 0
 96 141 93 127 93 111 c 1
 95 96 104 80 119 63 c 0
 133 46 155 38 181 38 c 0xb4
 198 38 214 42 228 49 c 0
 243 54 261 69 284 92 c 1
EndSplineSet
EndChar
StartChar: quotesingle
Encoding: 9 39 9
OldEncoding: 39
Width: 121
VWidth: 2048
Flags: W
HStem: 474 20G<30 87>
VStem: 30 57<416 494>
Fore
44 328 m 1
 30 417 l 1
 30 494 l 1
 87 494 l 5
 87 417 l 1
 72 328 l 1
 44 328 l 1
EndSplineSet
EndChar
StartChar: parenleft
Encoding: 10 40 10
OldEncoding: 40
Width: 226
Flags: W
HStem: 474 20G<159 198>
VStem: 50 56<175 192>
Fore
159 494 m 1
 198 494 l 1
 165 438 141 384 128 329 c 0
 113 273 106 221 106 175 c 0
 106 129 113 78 128 23 c 0
 141 -33 165 -89 198 -145 c 1
 159 -145 l 1
 145 -124 130 -101 116 -75 c 0
 103 -50 90 -23 80 7 c 0
 70 36 63 66 58 94 c 0
 52 123 50 150 50 175 c 0
 50 212 55 250 64 288 c 0
 75 328 87 365 104 400 c 0
 121 436 139 468 159 494 c 1
EndSplineSet
EndChar
StartChar: parenright
Encoding: 11 41 11
OldEncoding: 41
Width: 226
Flags: W
HStem: 474 20G<26 63>
VStem: 118 56<175 192>
Fore
26 494 m 1
 63 494 l 1
 85 466 103 435 120 400 c 0
 137 365 149 327 159 287 c 0
 170 247 174 210 174 175 c 0
 174 139 170 102 159 63 c 0
 149 24 137 -14 120 -49 c 0
 103 -84 85 -116 63 -145 c 1
 26 -145 l 1
 49 -107 67 -69 80 -29 c 0
 94 8 104 44 110 79 c 0
 115 114 118 146 118 175 c 0
 118 199 116 221 113 245 c 0
 110 269 105 294 98 321 c 0
 92 347 82 376 70 408 c 0
 56 440 42 468 26 494 c 1
EndSplineSet
EndChar
StartChar: asterisk
Encoding: 12 42 12
OldEncoding: 42
Width: 263
Flags: W
HStem: 482 20G<108 150>
DStem: 99 391 130 370 53 331 86 307 108 502 150 502 111 426 148 426 130 370 159 391 172 306 205 330
Fore
27 412 m 1
 40 452 l 1
 111 426 l 1
 108 502 l 1
 150 502 l 1
 148 426 l 1
 218 451 l 1
 233 409 l 1
 159 391 l 1
 205 330 l 1
 172 306 l 1
 130 370 l 1
 86 307 l 1
 53 331 l 1
 99 391 l 1
 27 412 l 1
EndSplineSet
EndChar
StartChar: plus
Encoding: 13 43 13
OldEncoding: 43
Width: 395
Flags: W
HStem: 219 48<34 174 221 362>
VStem: 174 47<79 219 267 407>
Fore
174 407 m 5
 221 407 l 5
 221 267 l 5
 362 267 l 5
 362 219 l 5
 221 219 l 5
 221 79 l 5
 174 79 l 5
 174 219 l 5
 34 219 l 5
 34 267 l 5
 174 267 l 5
 174 407 l 5
EndSplineSet
EndChar
StartChar: comma
Encoding: 14 44 14
OldEncoding: 44
Width: 188
Flags: W
Fore
144 34 m 0
 144 3 134 -21 116 -38 c 0
 97 -55 78 -64 56 -68 c 0
 46 -68 41 -66 41 -62 c 0
 41 -61 42 -59 44 -56 c 1
 54 -53 66 -46 80 -37 c 0
 95 -28 103 -17 105 -2 c 1
 103 -3 99 -3 96 -5 c 0
 93 -6 88 -7 84 -7 c 0
 53 -3 38 12 38 41 c 0
 38 54 43 66 51 75 c 0
 59 84 70 88 85 88 c 0
 122 88 142 70 144 34 c 0
EndSplineSet
EndChar
StartChar: hyphen
Encoding: 15 45 15
OldEncoding: 45
Width: 226
Flags: W
HStem: 163 49<32 192>
Fore
192 212 m 1
 192 163 l 1
 32 163 l 1
 32 212 l 1
 192 212 l 1
EndSplineSet
EndChar
StartChar: period
Encoding: 16 46 16
OldEncoding: 46
Width: 188
Flags: W
Fore
36 52 m 0
 36 64 41 76 51 86 c 0
 61 96 72 101 85 101 c 0
 93 101 101 98 108 94 c 0
 116 89 122 84 127 76 c 0
 131 68 133 60 133 52 c 0
 133 40 129 28 119 18 c 0
 110 8 98 3 85 3 c 0
 72 3 61 8 51 18 c 0
 41 28 36 40 36 52 c 0
EndSplineSet
EndChar
StartChar: slash
Encoding: 17 47 17
OldEncoding: 47
Width: 188
Flags: W
HStem: -15 21G<-6 32>
DStem: 155 480 192 480 -6 -15 32 -15
Fore
-6 -15 m 1
 155 480 l 1
 192 480 l 1
 32 -15 l 1
 -6 -15 l 1
EndSplineSet
EndChar
StartChar: zero
Encoding: 18 48 18
OldEncoding: 48
Width: 387
Flags: W
HStem: -17 58<178.792 194> 434 60<177.225 194>
VStem: 30 58<222 256> 294 59<206 256>
Fore
191 -17 m 0
 167 -17 144 -11 122 1 c 0
 98 13 81 33 65 57 c 0
 53 80 44 108 39 143 c 0
 33 177 30 208 30 240 c 0
 30 270 33 302 39 336 c 0
 44 370 53 399 65 422 c 1
 81 445 98 463 122 476 c 0
 144 488 167 494 191 494 c 0
 218 494 241 488 264 476 c 0
 286 463 304 445 317 422 c 0
 340 382 353 322 353 240 c 0
 353 157 340 97 317 57 c 0
 304 33 286 13 263 1 c 0
 240 -11 217 -17 191 -17 c 0
191 41 m 0
 225 41 253 57 271 92 c 0
 275 98 280 109 283 125 c 0
 286 139 288 157 290 178 c 0
 293 198 294 219 294 238 c 0
 294 255 293 276 290 298 c 0
 288 318 286 336 283 351 c 0
 280 367 275 378 271 385 c 0
 253 419 225 434 191 434 c 0
 177 434 161 431 148 422 c 0
 134 414 122 402 113 385 c 0
 106 373 102 353 96 323 c 0
 92 293 88 264 88 238 c 0
 88 212 92 183 96 154 c 0
 99 125 105 104 113 92 c 0
 122 75 133 63 148 54 c 0
 162 45 177 41 191 41 c 0
EndSplineSet
EndChar
StartChar: one
Encoding: 19 49 19
OldEncoding: 49
Width: 387
Flags: W
HStem: 0 21G<183 242> 474 20G<201 242>
VStem: 183 59<0 494>
Fore
242 0 m 1
 183 0 l 1
 183 348 l 1
 71 348 l 1
 71 397 l 1
 105 401 129 407 145 411 c 0
 160 417 169 425 177 436 c 0
 183 448 191 466 201 494 c 1
 242 494 l 5
 242 0 l 1
EndSplineSet
EndChar
StartChar: two
Encoding: 20 50 20
OldEncoding: 50
Width: 387
Flags: W
HStem: 0 57<88 353> 440 54<196 208>
Fore
259 202 m 2
 177 160 l 2
 161 151 143 138 122 117 c 0
 99 97 88 77 88 57 c 1
 353 57 l 1
 353 0 l 1
 23 0 l 1
 28 40 33 68 38 87 c 0
 42 105 53 125 71 145 c 0
 87 166 115 188 151 208 c 2
 227 250 l 2
 270 273 293 305 294 341 c 0
 295 362 288 381 280 397 c 0
 270 411 257 422 242 430 c 0
 227 436 211 440 196 440 c 0
 160 439 134 428 119 408 c 0
 104 387 96 359 94 323 c 1
 34 323 l 1
 35 355 41 381 48 404 c 0
 54 427 68 445 92 461 c 1
 108 474 125 483 143 486 c 0
 160 491 182 494 208 494 c 0
 248 492 281 482 306 460 c 0
 330 438 346 410 353 378 c 0
 356 365 357 355 357 346 c 0
 357 316 347 288 327 263 c 0
 306 236 283 214 259 202 c 2
EndSplineSet
EndChar
StartChar: three
Encoding: 21 51 21
OldEncoding: 51
Width: 387
Flags: W
HStem: -17 57<169 189> 227 53<155 183> 439 55<177 191>
VStem: 34 58<334 360> 275 63<353 368> 290 63<137 147>
Fore
22 144 m 1xf4
 81 144 l 1
 82 138 83 129 85 117 c 0
 86 106 88 96 94 83 c 0
 99 71 108 62 120 54 c 1
 133 45 149 40 169 40 c 0
 250 39 292 74 290 144 c 0xf4
 290 175 280 196 261 208 c 0
 243 220 218 227 183 227 c 0
 171 227 161 227 155 225 c 1
 155 280 l 1
 198 281 230 286 248 295 c 0
 265 305 276 327 275 361 c 0
 275 392 264 414 246 424 c 0
 229 433 206 439 177 439 c 1
 156 434 139 430 127 421 c 0
 115 413 106 403 103 393 c 0
 97 382 94 371 93 359 c 0
 92 347 92 339 92 334 c 1
 34 335 l 1
 34 386 46 424 73 453 c 0
 98 480 136 494 183 494 c 0
 212 494 238 488 261 479 c 0
 284 469 304 453 317 432 c 0
 330 410 338 385 338 353 c 0xf8
 338 328 333 309 323 296 c 0
 312 283 296 270 280 255 c 1
 307 243 327 227 336 209 c 0
 346 191 353 167 353 137 c 0
 355 105 344 77 328 53 c 0
 312 28 288 8 255 -2 c 0
 231 -11 209 -15 189 -17 c 0
 168 -17 154 -13 144 -12 c 0
 102 -2 73 13 54 41 c 0
 38 68 25 103 22 144 c 1xf4
EndSplineSet
EndChar
StartChar: four
Encoding: 22 52 22
OldEncoding: 52
Width: 387
Flags: W
HStem: 0 21G<232 290> 116 58<74 232 290 362> 474 20G<244 290>
VStem: 232 58<0 116 174 494>
DStem: 244 494 232 396 19 182 74 174
Fore
232 116 m 1
 19 116 l 1
 19 182 l 1
 244 494 l 1
 290 494 l 1
 290 174 l 1
 362 174 l 1
 362 116 l 1
 290 116 l 1
 290 0 l 1
 232 0 l 1
 232 116 l 1
232 174 m 1
 232 396 l 1
 74 174 l 1
 232 174 l 1
EndSplineSet
EndChar
StartChar: five
Encoding: 23 53 23
OldEncoding: 53
Width: 387
Flags: W
HStem: -17 59<183 200> 267 58<183 202> 433 61<77 334>
VStem: 290 68<136 160>
DStem: 77 494 127 433 40 224 106 296
Fore
96 224 m 1
 40 224 l 1
 77 494 l 1
 334 494 l 1
 334 433 l 1
 127 433 l 1
 106 296 l 1
 129 316 159 325 194 325 c 0
 219 325 241 322 260 315 c 0
 325 290 359 236 358 155 c 0
 357 119 346 88 330 63 c 0
 316 39 295 19 271 6 c 0
 252 -4 229 -11 200 -17 c 1
 175 -17 151 -13 131 -8 c 0
 108 -1 88 10 74 23 c 0
 59 35 50 46 44 59 c 0
 38 71 33 83 30 96 c 0
 28 108 25 116 24 120 c 1
 87 120 l 1
 94 99 105 82 120 65 c 0
 136 51 160 42 197 42 c 1
 253 50 284 80 290 136 c 1
 290 180 282 214 261 236 c 0
 242 257 218 267 189 267 c 0
 154 267 122 253 96 224 c 1
EndSplineSet
EndChar
StartChar: six
Encoding: 24 54 24
OldEncoding: 54
Width: 387
Flags: W
HStem: -17 55<189 197> 253 54<189 210> 365 21G<287 347> 438 56<204 220>
VStem: 30 56<252 277> 296 62<129 160>
Fore
347 365 m 1
 287 365 l 1
 287 382 282 399 270 411 c 0
 257 424 241 433 220 438 c 1
 168 438 133 416 113 373 c 0
 94 335 86 299 86 267 c 0
 86 261 87 255 88 250 c 1
 99 260 108 267 115 275 c 0
 122 282 128 287 138 292 c 0
 148 296 157 301 167 304 c 0
 177 306 189 307 206 307 c 0
 232 307 257 302 277 292 c 0
 298 281 316 265 328 248 c 0
 340 230 350 211 353 190 c 1
 357 179 358 166 358 150 c 0
 358 136 357 122 353 113 c 1
 348 86 339 64 324 46 c 0
 306 24 288 8 271 -1 c 0
 252 -11 225 -17 194 -17 c 0
 169 -17 146 -11 125 0 c 0
 103 10 86 24 75 42 c 1
 54 70 42 98 38 129 c 0
 33 160 30 201 30 252 c 0
 30 292 35 329 46 364 c 0
 62 409 83 442 114 462 c 0
 143 483 174 494 208 494 c 0
 244 494 276 482 302 459 c 0
 316 445 327 432 334 419 c 0
 340 407 345 388 347 365 c 1
280 81 m 0
 292 97 296 117 296 143 c 0
 296 168 290 194 275 220 c 0
 261 242 235 253 197 253 c 0
 182 253 168 250 155 243 c 0
 139 236 128 229 120 219 c 0
 103 201 94 179 94 150 c 0
 94 125 103 99 117 77 c 0
 137 52 162 38 197 38 c 0
 232 35 260 52 280 81 c 0
EndSplineSet
EndChar
StartChar: seven
Encoding: 25 55 25
OldEncoding: 55
Width: 387
Flags: W
HStem: 0 21G<96 161> 436 58<33 298>
DStem: 298 436 362 442 250 358 307 364
Fore
33 436 m 1
 33 494 l 1
 362 494 l 1
 362 442 l 1
 307 364 l 2
 287 335 266 298 243 253 c 0
 206 179 177 94 161 0 c 1
 96 0 l 1
 111 63 125 109 136 139 c 0
 145 168 162 203 186 248 c 0
 202 276 224 313 250 358 c 0
 276 402 293 428 298 436 c 1
 33 436 l 1
EndSplineSet
EndChar
StartChar: eight
Encoding: 26 56 26
OldEncoding: 56
Width: 387
Flags: W
HStem: 232 52<171 188> 440 54<181 205>
VStem: 44 61<362 368> 280 60<351.142 368> 294 64<125 144>
Fore
96 465 m 0xe8
 122 484 151 494 186 494 c 0
 225 494 263 485 294 465 c 0xe8
 309 455 319 439 328 420 c 0
 336 401 340 381 340 362 c 0xf0
 340 335 334 315 322 301 c 1
 312 287 296 273 277 260 c 1
 293 257 311 243 329 219 c 0
 348 194 358 162 358 125 c 1
 353 81 333 45 296 17 c 1
 264 -6 227 -18 185 -17 c 0
 165 -17 144 -11 123 -4 c 0
 103 2 86 13 71 28 c 0
 42 52 29 85 28 125 c 0
 25 165 35 194 51 212 c 1
 56 224 74 241 105 260 c 1
 93 270 85 275 81 280 c 0
 76 283 71 287 67 293 c 0
 63 298 59 304 54 311 c 0
 48 325 44 344 44 362 c 0
 44 404 62 439 96 465 c 0xe8
250 422 m 0
 236 434 218 440 192 440 c 0
 166 440 145 433 129 420 c 0
 114 407 105 387 105 362 c 0
 105 355 105 344 111 330 c 0
 122 302 146 284 183 284 c 0
 221 283 248 294 263 315 c 0
 273 329 280 346 280 362 c 0xf0
 280 387 270 408 250 422 c 0
273 197 m 0
 253 220 224 234 188 232 c 0
 151 232 125 219 106 196 c 0
 94 179 88 157 88 131 c 0
 92 103 99 83 114 71 c 1
 126 57 149 48 183 41 c 1
 208 42 231 48 252 57 c 1
 281 76 294 103 294 134 c 0xe8
 294 149 293 161 288 171 c 0
 284 182 281 190 273 197 c 0
EndSplineSet
EndChar
StartChar: nine
Encoding: 27 57 27
OldEncoding: 57
Width: 387
Flags: W
HStem: -17 59<166 186> 168 52<188 200.114> 438 56<184 203>
VStem: 28 59<318 335> 298 57<206 244>
Fore
35 109 m 1
 97 109 l 1
 97 93 104 77 117 65 c 0
 131 53 148 45 167 42 c 1
 218 42 253 62 272 102 c 0
 280 117 284 136 290 156 c 0
 294 175 298 192 298 208 c 0
 298 212 296 219 295 225 c 1
 281 207 263 191 242 180 c 0
 232 175 219 171 203 168 c 1
 182 168 165 169 150 171 c 0
 117 175 92 189 71 211 c 0
 51 231 38 255 30 284 c 0
 29 294 28 307 28 325 c 0
 28 335 29 348 30 367 c 1
 35 392 45 413 60 431 c 0
 80 454 97 471 115 480 c 0
 133 488 157 494 190 494 c 0
 244 495 284 473 311 433 c 0
 333 402 346 355 353 290 c 0
 355 281 355 265 355 244 c 0
 355 224 355 209 353 200 c 0
 351 172 346 144 338 113 c 0
 325 67 301 31 266 11 c 0
 242 -4 214 -12 186 -17 c 1
 160 -17 139 -13 123 -10 c 0
 106 -4 92 4 77 17 c 0
 52 42 39 74 35 109 c 1
105 397 m 0
 93 380 87 358 87 333 c 0
 87 306 94 281 109 255 c 0
 125 232 150 219 188 220 c 0
 203 220 219 225 232 232 c 0
 246 240 257 248 264 257 c 1
 282 275 290 296 290 324 c 0
 290 351 282 376 266 399 c 0
 260 410 249 420 234 427 c 0
 220 433 206 438 189 438 c 0
 151 438 125 424 105 397 c 0
EndSplineSet
EndChar
StartChar: colon
Encoding: 28 58 28
OldEncoding: 58
Width: 188
Flags: W
HStem: 8 97<88.1369 101> 293 97<88.761 101>
Fore
50 56 m 0
 50 69 54 80 64 90 c 0
 75 101 86 105 98 105 c 0
 107 105 115 103 122 98 c 0
 130 95 136 88 140 80 c 0
 145 72 147 64 147 56 c 0
 147 44 142 33 132 23 c 0
 122 12 111 8 98 8 c 0
 86 8 75 12 64 23 c 0
 54 33 50 44 50 56 c 0
50 341 m 0
 50 354 54 366 64 376 c 0
 75 385 86 390 98 390 c 0
 112 390 123 385 133 376 c 1
 142 366 147 354 147 341 c 0
 147 329 142 318 132 307 c 0
 122 297 111 293 98 293 c 0
 86 293 75 297 64 307 c 0
 54 318 50 329 50 341 c 0
EndSplineSet
EndChar
StartChar: semicolon
Encoding: 29 59 29
OldEncoding: 59
Width: 188
Flags: W
HStem: -7 95<88 97> 288 97<70.6953 89>
Fore
148 34 m 0
 148 3 139 -21 120 -38 c 0
 102 -55 82 -64 61 -68 c 0
 51 -68 45 -66 45 -62 c 0
 45 -61 46 -59 49 -56 c 1
 59 -53 70 -46 85 -37 c 0
 99 -28 108 -17 110 -2 c 1
 107 -3 104 -3 101 -5 c 0
 96 -6 92 -7 88 -7 c 0
 58 -3 43 12 43 41 c 0
 43 54 47 66 55 75 c 0
 63 84 75 88 89 88 c 0
 127 88 147 70 148 34 c 0
32 337 m 0
 32 349 36 360 46 371 c 0
 56 381 68 385 80 385 c 0
 88 385 96 383 104 379 c 0
 112 374 119 368 122 360 c 0
 127 354 129 346 129 337 c 0
 129 324 124 313 114 303 c 0
 104 293 93 288 80 288 c 0
 68 288 56 293 46 303 c 0
 36 313 32 324 32 337 c 0
EndSplineSet
EndChar
StartChar: less
Encoding: 30 60 30
OldEncoding: 60
Width: 395
Flags: W
DStem: 31 220 94 244 362 80 362 134 362 408 362 354 31 268 94 244
Fore
362 408 m 5
 362 354 l 5
 94 244 l 5
 362 134 l 5
 362 80 l 5
 31 220 l 5
 31 268 l 5
 362 408 l 5
EndSplineSet
EndChar
StartChar: equal
Encoding: 31 61 31
OldEncoding: 61
Width: 395
Flags: W
HStem: 162 47<34 362> 277 47<34 362>
Fore
34 324 m 5
 362 324 l 5
 362 277 l 5
 34 277 l 5
 34 324 l 5
34 209 m 5
 362 209 l 5
 362 162 l 5
 34 162 l 5
 34 209 l 5
EndSplineSet
EndChar
StartChar: greater
Encoding: 32 62 32
OldEncoding: 62
Width: 395
Flags: W
DStem: 34 354 34 408 299 244 365 268 299 244 365 220 34 134 34 80
Fore
365 268 m 5
 365 220 l 5
 34 80 l 5
 34 134 l 5
 299 244 l 5
 34 354 l 5
 34 408 l 5
 365 268 l 5
EndSplineSet
EndChar
StartChar: question
Encoding: 33 63 33
OldEncoding: 63
Width: 377
Flags: W
HStem: 0 21G<163 225> 449 52<195 213>
VStem: 52 61<341 367> 163 62<0 70 132 177> 284 61<365 385>
Fore
225 132 m 1
 163 132 l 1
 163 173 l 2
 163 192 168 210 181 226 c 0
 193 243 207 258 223 272 c 0
 231 279 236 285 242 290 c 0
 259 307 l 0
 264 314 268 321 271 327 c 0
 279 345 284 360 284 374 c 0
 284 389 280 401 273 412 c 0
 266 424 257 433 244 440 c 0
 232 445 217 449 201 449 c 0
 180 449 162 444 149 436 c 0
 136 428 127 417 121 405 c 0
 115 392 113 380 113 367 c 0
 112 355 112 347 111 341 c 1
 52 341 l 1
 52 371 56 398 67 421 c 0
 76 445 92 463 115 478 c 0
 138 493 167 501 205 501 c 0
 215 501 223 501 228 499 c 0
 258 496 281 487 298 472 c 0
 315 459 328 443 334 425 c 0
 341 407 345 389 345 371 c 0
 345 355 342 340 338 325 c 0
 332 304 307 273 263 234 c 0
 252 224 243 215 236 205 c 0
 228 194 225 181 225 164 c 2
 225 132 l 1
163 0 m 1
 163 70 l 1
 225 70 l 1
 225 0 l 1
 163 0 l 1
EndSplineSet
EndChar
StartChar: at
Encoding: 34 64 34
OldEncoding: 64
Width: 688
Flags: W
HStem: -99 50<306 356> 36 48<461 479> 40 42<286 306> 304 50<342 360>
VStem: 23 58<164 204> 177 63<163 179>
Fore
507 338 m 1xbc
 442 134 l 2
 438 124 437 118 437 114 c 0
 437 108 440 102 443 96 c 0
 449 88 461 84 479 84 c 1xdc
 498 88 515 96 530 108 c 0
 545 121 556 133 564 147 c 0
 582 179 591 217 591 262 c 1
 588 280 581 299 571 321 c 0
 560 342 549 359 537 372 c 0
 524 385 503 400 475 415 c 0
 446 429 418 440 389 445 c 0
 375 447 362 449 348 449 c 0
 318 449 288 443 260 432 c 0
 232 420 208 406 186 389 c 0
 162 368 141 345 124 319 c 0
 107 293 96 270 90 251 c 0
 85 229 81 208 81 188 c 0
 81 150 89 114 105 80 c 0
 115 59 133 38 157 19 c 0
 181 -1 208 -19 241 -33 c 0
 269 -44 298 -49 331 -49 c 0
 372 -49 416 -41 464 -25 c 1
 484 -70 l 1
 431 -89 380 -99 330 -99 c 0
 294 -99 258 -94 223 -82 c 0
 197 -73 165 -56 129 -32 c 0
 93 -7 67 21 51 53 c 0
 32 90 23 132 23 179 c 0
 23 205 26 227 32 246 c 0
 42 279 56 313 76 346 c 0
 96 379 123 408 157 433 c 0
 174 445 194 458 217 468 c 0
 241 478 266 486 292 492 c 0
 318 497 345 501 373 499 c 0
 407 498 444 488 486 471 c 0
 527 454 558 431 584 402 c 0
 600 384 616 364 626 339 c 0
 637 313 644 289 644 266 c 0
 645 234 642 209 636 191 c 0
 631 174 623 155 612 136 c 0
 603 119 591 101 575 82 c 0xbc
 559 66 538 51 512 43 c 0
 495 37 478 36 461 36 c 0xdc
 446 36 435 37 428 40 c 0
 416 43 406 50 398 60 c 0
 390 69 385 78 384 87 c 1
 371 73 l 0
 366 68 360 63 353 59 c 0
 345 53 334 49 322 45 c 0
 312 42 299 40 286 40 c 0
 272 40 260 42 249 46 c 0
 229 54 216 64 208 76 c 0
 200 86 192 99 185 115 c 0
 180 130 177 146 177 163 c 0
 177 177 179 190 182 202 c 0
 194 251 219 293 260 322 c 0
 290 345 322 354 353 354 c 0
 362 354 370 353 377 350 c 0
 392 346 405 338 416 327 c 0
 426 314 433 303 436 293 c 1
 451 338 l 1
 507 338 l 1xbc
411 255 m 0
 410 268 407 278 401 285 c 0
 396 292 385 297 371 301 c 0
 365 303 358 304 350 304 c 0
 334 304 319 299 304 290 c 0
 290 281 279 271 270 259 c 0
 261 246 254 231 249 212 c 0
 243 195 240 179 240 163 c 0
 240 142 245 124 258 108 c 0
 270 92 287 82 306 82 c 0xbc
 312 82 318 84 323 85 c 0
 342 90 360 104 375 128 c 1
 385 141 392 160 400 186 c 0
 407 211 411 234 411 255 c 0
EndSplineSet
EndChar
StartChar: A
Encoding: 35 65 35
OldEncoding: 65
Width: 452
Flags: W
HStem: 0 21G<11 79 372 443> 148 53<149 321> 474 20G<191 269>
DStem: 191 494 229 417 11 0 149 201 191 494 132 148 11 0 79 0 229 417 269 494 303 201 443 0 321 148 269 494 372 0 443 0
Fore
132 148 m 1
 79 0 l 1
 11 0 l 1
 191 494 l 1
 269 494 l 1
 443 0 l 1
 372 0 l 1
 321 148 l 1
 132 148 l 1
229 417 m 1
 149 201 l 1
 303 201 l 1
 229 417 l 1
EndSplineSet
EndChar
StartChar: B
Encoding: 36 66 36
OldEncoding: 66
Width: 452
Flags: W
HStem: 0 56<118 297> 226 56<118 262> 438 56<53 249>
VStem: 53 65<0 226 0 438> 336 64<367 385> 359 64<133 156>
Fore
297 0 m 2xf4
 53 0 l 1
 53 494 l 1
 272 494 l 2
 289 494 307 490 324 483 c 0
 341 475 355 466 367 453 c 0
 385 436 397 414 400 385 c 1xf8
 400 321 380 280 338 262 c 1
 346 259 354 255 362 251 c 0
 370 246 379 240 388 231 c 0
 397 221 406 209 412 193 c 0
 420 176 423 157 423 133 c 0
 421 104 414 79 399 60 c 0
 384 41 367 26 348 16 c 0
 329 6 312 0 297 0 c 2xf4
118 438 m 1
 118 282 l 1
 249 282 l 2
 281 282 305 290 318 306 c 0
 330 323 336 346 336 374 c 1
 332 398 319 415 295 425 c 0
 271 434 250 438 233 438 c 2
 118 438 l 1
118 226 m 1
 118 56 l 1
 277 56 l 2
 305 56 327 66 339 85 c 0
 353 104 359 128 359 156 c 1xf4
 356 184 345 202 325 212 c 0
 306 221 278 226 242 226 c 2
 118 226 l 1
EndSplineSet
EndChar
StartChar: C
Encoding: 37 67 37
OldEncoding: 67
Width: 489
Flags: W
HStem: -16 58<240 258> 445 58<240 258>
VStem: 33 64<243 257>
Fore
450 341 m 1
 384 341 l 1
 375 365 365 383 354 398 c 0
 346 408 336 417 324 424 c 0
 312 432 301 437 289 441 c 0
 278 444 266 445 252 445 c 0
 232 445 212 441 193 433 c 0
 174 425 158 414 145 398 c 0
 130 380 118 357 110 330 c 0
 102 302 97 272 97 243 c 0
 97 214 103 185 111 158 c 0
 120 130 130 107 145 89 c 0
 171 58 206 42 252 42 c 0
 295 42 329 58 354 89 c 0
 362 99 370 113 377 130 c 0
 385 147 391 164 394 181 c 1
 459 181 l 1
 449 121 425 72 385 35 c 0
 373 24 355 12 329 1 c 0
 303 -10 276 -16 249 -16 c 0
 220 -16 194 -10 168 1 c 0
 142 11 123 23 111 35 c 0
 84 61 63 93 51 130 c 0
 38 167 33 205 33 243 c 0
 33 282 38 320 51 357 c 0
 63 394 84 426 111 452 c 0
 123 464 142 476 168 486 c 0
 194 496 220 503 249 503 c 0
 276 503 303 496 329 486 c 0
 355 476 373 464 385 452 c 0
 414 426 435 389 450 341 c 1
EndSplineSet
EndChar
StartChar: D
Encoding: 38 68 38
OldEncoding: 68
Width: 489
Flags: W
HStem: 0 56<124 286> 438 56<60 264>
VStem: 60 64<0 438> 389 63<245 279.639>
Fore
286 0 m 2
 60 0 l 1
 60 494 l 1
 251 494 l 2
 304 494 349 476 386 441 c 0
 424 405 445 355 450 293 c 0
 452 270 452 254 452 245 c 0
 452 174 435 116 400 73 c 0
 381 49 360 31 339 19 c 0
 318 7 301 0 286 0 c 2
245 438 m 2
 124 438 l 1
 124 56 l 1
 262 56 l 2
 279 56 296 60 313 67 c 0
 323 71 336 82 349 99 c 0
 364 118 371 132 374 145 c 0
 382 179 388 212 389 245 c 0
 390 302 380 345 362 375 c 0
 336 417 297 438 245 438 c 2
EndSplineSet
EndChar
StartChar: E
Encoding: 39 69 39
OldEncoding: 69
Width: 452
Flags: W
HStem: 0 56<124 416> 226 56<124 393> 438 56<61 405>
VStem: 61 63<0 226 0 438>
Fore
61 0 m 1
 61 494 l 1
 405 494 l 1
 405 438 l 1
 124 438 l 1
 124 282 l 1
 393 282 l 1
 393 226 l 1
 124 226 l 1
 124 56 l 1
 416 56 l 1
 416 0 l 1
 61 0 l 1
EndSplineSet
EndChar
StartChar: F
Encoding: 40 70 40
OldEncoding: 70
Width: 414
Flags: W
HStem: 0 21G<61 124> 226 56<124 359> 438 56<61 392>
VStem: 61 63<0 226 0 438>
Fore
61 0 m 1
 61 494 l 1
 392 494 l 1
 392 438 l 1
 124 438 l 1
 124 282 l 1
 359 282 l 1
 359 226 l 1
 124 226 l 1
 124 0 l 1
 61 0 l 1
EndSplineSet
EndChar
StartChar: G
Encoding: 41 71 41
OldEncoding: 71
Width: 527
Flags: W
HStem: -16 56<249 275> -2 21G<440 480> 206 56<273 424> 445 58<269 286>
VStem: 29 65<217.053 241.969 242 262.095> 424 56<164.137 206>
Fore
273 206 m 1xbc
 273 262 l 1
 480 262 l 1
 480 -2 l 1
 440 -2 l 1x7c
 425 59 l 1
 397 34 371 15 348 2 c 0
 325 -10 293 -16 251 -16 c 0
 228 -16 203 -10 177 0 c 0
 151 10 131 20 116 32 c 0
 86 58 64 90 50 128 c 0
 36 165 28 203 29 242 c 0
 29 267 34 292 40 316 c 0
 45 341 54 366 67 390 c 0
 79 414 96 434 116 452 c 0
 131 464 151 476 180 486 c 0
 208 496 237 503 269 503 c 0
 314 504 349 496 374 483 c 0
 411 463 436 442 450 418 c 0
 463 394 471 371 475 345 c 1
 412 345 l 1
 411 368 398 392 372 414 c 0
 346 435 311 445 269 445 c 0
 246 445 224 441 202 433 c 0
 181 425 163 414 148 398 c 0
 131 381 119 358 108 330 c 0
 98 302 94 272 94 242 c 0
 94 212 98 184 108 156 c 0
 119 128 131 105 148 87 c 0
 179 55 218 40 269 40 c 0
 304 40 332 47 355 63 c 0
 373 76 386 88 397 102 c 0
 407 114 414 128 417 141 c 0
 421 154 424 165 424 175 c 0
 424 184 424 194 424 206 c 1
 273 206 l 1xbc
EndSplineSet
EndChar
StartChar: H
Encoding: 42 72 42
OldEncoding: 72
Width: 489
Flags: W
HStem: 226 56<120 373> 474 20G<56 120 373 436>
VStem: 56 64<0 226 0 494> 373 63<0 494>
Fore
373 0 m 1
 373 226 l 1
 120 226 l 1
 120 0 l 1
 56 0 l 1
 56 494 l 1
 120 494 l 1
 120 282 l 1
 373 282 l 1
 373 494 l 1
 436 494 l 1
 436 0 l 1
 373 0 l 1
EndSplineSet
EndChar
StartChar: I
Encoding: 43 73 43
OldEncoding: 73
Width: 188
Flags: W
HStem: 0 21G<68 131> 474 20G<68 131>
VStem: 68 63<0 494>
Fore
68 0 m 1
 68 494 l 1
 131 494 l 5
 131 0 l 1
 68 0 l 1
EndSplineSet
EndChar
StartChar: J
Encoding: 44 74 44
OldEncoding: 74
Width: 339
Flags: W
HStem: -16 56<131 156> 474 20G<225 289>
VStem: 11 65<95 157> 225 64<127 494>
Fore
11 157 m 1
 76 157 l 1
 76 107 l 2
 76 90 80 76 90 64 c 0
 99 53 112 45 127 42 c 0
 134 41 141 40 145 40 c 0
 171 40 192 50 208 69 c 0
 219 82 225 112 225 158 c 2
 225 494 l 1
 289 494 l 1
 289 103 l 1
 282 59 262 25 227 2 c 0
 208 -10 176 -17 131 -16 c 0
 89 -15 59 1 40 27 c 0
 20 54 11 80 11 105 c 2
 11 157 l 1
EndSplineSet
EndChar
StartChar: K
Encoding: 45 75 45
OldEncoding: 75
Width: 452
Flags: W
HStem: 0 21G<53 118 371 444> 474 20G<53 118 363 446>
VStem: 53 65<0 168 0 494>
DStem: 199 249 242 293 371 0 444 0 363 494 446 494 118 250 242 293
Fore
53 494 m 1
 118 494 l 1
 118 250 l 1
 363 494 l 1
 446 494 l 1
 242 293 l 1
 444 0 l 1
 371 0 l 1
 199 249 l 1
 118 168 l 1
 118 0 l 1
 53 0 l 1
 53 494 l 1
EndSplineSet
EndChar
StartChar: L
Encoding: 46 76 46
OldEncoding: 76
Width: 377
Flags: W
HStem: 0 56<117 362> 474 20G<54 118>
VStem: 54 64<0 494>
Fore
54 494 m 1
 118 494 l 1
 118 56 l 1
 362 56 l 1
 362 0 l 1
 54 0 l 1
 54 494 l 1
EndSplineSet
EndChar
StartChar: M
Encoding: 47 77 47
OldEncoding: 77
Width: 565
Flags: W
HStem: 0 21G<51 116 251 316 451 516> 474 20G<51 141 426 516>
VStem: 51 65<0 401> 451 65<0 494>
DStem: 116 401 141 494 251 0 284 73 426 494 451 401 284 73 316 0
Fore
316 0 m 1
 251 0 l 1
 116 401 l 1
 116 0 l 1
 51 0 l 1
 51 494 l 1
 141 494 l 1
 284 73 l 1
 426 494 l 1
 516 494 l 1
 516 0 l 1
 451 0 l 1
 451 401 l 1
 316 0 l 1
EndSplineSet
EndChar
StartChar: N
Encoding: 48 78 48
OldEncoding: 78
Width: 489
Flags: W
HStem: 0 21G<52 115 365 438> 474 20G<52 127 374 438>
VStem: 52 63<0 396> 374 64<94 494>
DStem: 115 396 127 494 365 0 374 94
Fore
438 0 m 1
 365 0 l 1
 115 396 l 1
 115 0 l 1
 52 0 l 1
 52 494 l 1
 127 494 l 1
 374 94 l 1
 374 494 l 1
 438 494 l 1
 438 0 l 1
EndSplineSet
EndChar
StartChar: O
Encoding: 49 79 49
OldEncoding: 79
Width: 527
Flags: W
HStem: -16 58<264 283> 445 58<264 283>
VStem: 26 64<243 257> 438 65<243 257>
Fore
264 503 m 0
 295 503 325 496 354 486 c 0
 382 476 403 464 416 452 c 0
 445 426 467 394 481 357 c 0
 496 320 503 282 503 243 c 0
 503 205 496 167 481 130 c 0
 468 93 446 61 416 35 c 0
 403 24 382 12 354 1 c 0
 325 -10 295 -16 264 -16 c 0
 234 -16 205 -10 176 1 c 0
 148 11 128 23 113 35 c 0
 82 61 61 93 47 130 c 0
 33 167 26 205 26 243 c 0
 26 267 29 292 35 318 c 0
 41 344 50 368 63 392 c 0
 76 415 94 435 113 452 c 0
 128 464 148 476 176 486 c 0
 205 496 234 503 264 503 c 0
264 445 m 0
 242 445 220 441 199 433 c 0
 177 425 159 414 145 398 c 0
 128 381 115 358 105 330 c 0
 96 303 90 273 90 243 c 0
 90 212 95 184 105 157 c 0
 114 130 128 107 145 89 c 0
 174 58 214 42 264 42 c 0
 315 42 355 58 384 89 c 0
 401 106 414 129 424 157 c 0
 433 184 438 212 438 243 c 0
 438 273 433 303 424 330 c 0
 414 358 401 381 384 398 c 0
 370 412 353 425 331 433 c 0
 310 441 288 445 264 445 c 0
EndSplineSet
EndChar
StartChar: P
Encoding: 50 80 50
OldEncoding: 80
Width: 452
Flags: W
HStem: 0 21G<62 125> 209 57<125 291> 438 56<62 272>
VStem: 62 63<0 209 0 438>
Fore
62 0 m 1
 62 494 l 1
 269 494 l 2
 306 494 339 485 367 467 c 0
 396 449 411 418 417 374 c 0
 418 368 418 359 418 349 c 0
 418 304 405 269 376 245 c 0
 348 221 320 209 289 209 c 2
 125 209 l 1
 125 0 l 1
 62 0 l 1
125 438 m 1
 125 266 l 1
 287 266 l 2
 299 266 313 273 330 288 c 0
 346 303 355 325 354 357 c 0
 353 388 341 408 323 420 c 0
 306 433 287 438 268 438 c 2
 125 438 l 1
EndSplineSet
EndChar
StartChar: Q
Encoding: 51 81 51
OldEncoding: 81
Width: 527
Flags: W
HStem: -16 58<264 266> 445 58<264 283>
VStem: 26 64<243 265> 438 65<243 265>
DStem: 294 101 324 139 344 60 386 89 394 18 433 52 464 -40 497 0
Fore
433 52 m 1
 497 0 l 1
 464 -40 l 1
 394 18 l 1
 353 -3 308 -15 264 -16 c 0
 234 -16 205 -10 176 1 c 0
 148 11 128 23 113 35 c 0
 82 61 61 93 47 130 c 0
 33 167 26 205 26 243 c 0
 26 267 29 292 35 318 c 0
 41 344 50 368 63 392 c 0
 76 415 94 435 113 452 c 0
 128 464 148 476 176 486 c 0
 205 496 234 503 264 503 c 0
 295 503 325 496 354 486 c 0
 382 476 403 464 416 452 c 0
 445 426 467 394 481 357 c 0
 496 320 503 282 503 243 c 0
 503 208 497 173 486 139 c 0
 475 105 457 76 433 52 c 1
344 60 m 1
 294 101 l 1
 324 139 l 1
 386 89 l 1
 397 101 406 114 414 131 c 0
 421 148 428 165 433 184 c 0
 436 203 438 223 438 243 c 0
 438 273 433 303 424 330 c 0
 414 358 401 381 384 398 c 0
 370 412 353 425 331 433 c 0
 310 441 288 445 264 445 c 0
 242 445 220 441 199 433 c 0
 177 425 159 414 145 398 c 0
 128 381 115 358 105 330 c 0
 96 303 90 273 90 243 c 0
 90 212 95 184 105 157 c 0
 114 130 128 107 145 89 c 0
 174 58 214 42 264 42 c 0
 293 42 320 47 344 60 c 1
EndSplineSet
EndChar
StartChar: R
Encoding: 52 82 52
OldEncoding: 82
Width: 489
Flags: W
HStem: 0 21G<63 127 384 460> 212 57<127 304> 438 56<63 304>
VStem: 63 64<0 212 0 438> 370 64<118 120>
Fore
63 0 m 1
 63 494 l 1
 284 494 l 2
 330 494 368 487 397 470 c 0
 424 454 440 419 442 368 c 0
 443 337 438 313 428 296 c 0
 419 280 401 263 376 244 c 1
 402 228 418 214 424 200 c 0
 429 185 433 158 434 118 c 0
 435 85 436 62 440 49 c 0
 443 35 450 24 460 16 c 1
 460 0 l 1
 384 0 l 1
 377 15 373 36 370 62 c 1
 370 120 l 2
 370 149 364 172 354 189 c 0
 344 205 322 212 289 212 c 2
 127 212 l 1
 127 0 l 1
 63 0 l 1
286 438 m 2
 127 438 l 1
 127 269 l 1
 286 269 l 2
 341 269 372 294 377 344 c 1
 377 407 347 438 286 438 c 2
EndSplineSet
EndChar
StartChar: S
Encoding: 53 83 53
OldEncoding: 83
Width: 452
Flags: W
HStem: -16 58<226 249.883> 449 54<208 228>
VStem: 50 58<342 366> 344 61<350 365.08>
Fore
405 350 m 1
 344 350 l 1
 344 385 329 411 299 429 c 0
 286 437 272 443 260 445 c 0
 247 447 234 449 217 449 c 0
 182 449 156 441 138 424 c 0
 119 407 108 388 108 366 c 0
 108 356 111 346 116 337 c 0
 122 328 130 320 140 313 c 0
 159 302 184 296 215 288 c 0
 285 271 325 259 337 255 c 0
 358 247 379 233 396 211 c 0
 412 190 421 168 421 145 c 0
 423 112 414 82 397 59 c 0
 380 35 356 16 327 3 c 0
 296 -9 263 -16 226 -16 c 0
 189 -15 159 -10 136 -1 c 0
 112 7 88 23 69 46 c 0
 53 66 44 82 40 97 c 0
 36 112 34 132 33 157 c 1
 92 157 l 1
 92 133 98 111 112 88 c 0
 125 64 150 50 188 44 c 0
 198 43 219 42 252 42 c 1
 284 45 307 53 322 66 c 0
 344 84 355 105 355 131 c 0
 355 154 344 173 320 190 c 1
 295 202 260 211 216 221 c 0
 183 228 163 235 155 238 c 0
 146 242 132 246 115 252 c 0
 76 264 54 294 50 342 c 1
 50 373 56 400 69 425 c 0
 81 449 99 468 124 483 c 0
 149 496 180 503 216 503 c 0
 268 503 307 494 336 477 c 0
 382 447 405 406 405 350 c 1
EndSplineSet
EndChar
StartChar: T
Encoding: 54 84 54
OldEncoding: 84
Width: 414
Flags: W
HStem: 0 21G<177 241> 438 56<15 177 15 402>
VStem: 177 64<0 438>
Fore
177 0 m 1
 177 438 l 1
 15 438 l 1
 15 494 l 1
 402 494 l 1
 402 438 l 1
 241 438 l 1
 241 0 l 1
 177 0 l 1
EndSplineSet
EndChar
StartChar: U
Encoding: 55 85 55
OldEncoding: 85
Width: 489
Flags: W
HStem: -16 54<247 267> 474 20G<58 121 374 437>
VStem: 58 63<127 494> 374 63<127 494>
Fore
58 494 m 1
 121 494 l 1
 121 141 l 2
 121 116 131 93 151 71 c 0
 172 50 203 38 247 38 c 0
 292 38 323 50 344 71 c 0
 364 93 374 116 374 141 c 2
 374 494 l 1
 437 494 l 1
 437 138 l 2
 437 123 434 107 428 90 c 0
 423 73 412 56 398 40 c 0
 383 23 363 10 338 0 c 0
 313 -10 282 -16 247 -16 c 0
 202 -16 165 -8 137 9 c 0
 108 26 88 47 76 71 c 0
 63 95 58 116 58 138 c 2
 58 494 l 1
EndSplineSet
EndChar
StartChar: V
Encoding: 56 86 56
OldEncoding: 86
Width: 452
Flags: W
HStem: 0 21G<195 263> 474 20G<20 88 370 437>
DStem: 20 494 88 494 195 0 232 76
Fore
232 76 m 1
 370 494 l 1
 437 494 l 1
 263 0 l 1
 195 0 l 1
 20 494 l 1
 88 494 l 1
 232 76 l 1
EndSplineSet
EndChar
StartChar: W
Encoding: 57 87 57
OldEncoding: 87
Width: 639
Flags: W
HStem: 0 21G<140 209 434 504> 474 20G<15 86 287 356 559 629>
DStem: 15 494 86 494 140 0 177 96 287 494 321 402 177 96 209 0 321 402 356 494 434 0 466 96 559 494 629 494 466 96 504 0
Fore
466 96 m 1
 559 494 l 1
 629 494 l 1
 504 0 l 1
 434 0 l 1
 321 402 l 1
 209 0 l 1
 140 0 l 1
 15 494 l 1
 86 494 l 1
 177 96 l 1
 287 494 l 1
 356 494 l 1
 466 96 l 1
EndSplineSet
EndChar
StartChar: X
Encoding: 58 88 58
OldEncoding: 88
Width: 452
Flags: W
HStem: 0 21G<15 94 362 440> 474 20G<27 104 356 433>
DStem: 27 494 104 494 189 253 229 305 189 253 229 201 15 0 94 0 229 201 268 253 362 0 440 0 356 494 433 494 229 305 268 253
Fore
433 494 m 1
 268 253 l 1
 440 0 l 1
 362 0 l 1
 229 201 l 1
 94 0 l 1
 15 0 l 1
 189 253 l 1
 27 494 l 1
 104 494 l 1
 229 305 l 1
 356 494 l 1
 433 494 l 1
EndSplineSet
EndChar
StartChar: Y
Encoding: 59 89 59
OldEncoding: 89
Width: 452
Flags: W
HStem: 0 21G<198 262> 474 20G<9 87 371 449>
VStem: 198 64<0 193>
DStem: 9 494 87 494 198 193 229 254 371 494 449 494 229 254 262 193
Fore
9 494 m 1
 87 494 l 1
 229 254 l 1
 371 494 l 1
 449 494 l 1
 262 193 l 1
 262 0 l 1
 198 0 l 1
 198 193 l 1
 9 494 l 1
EndSplineSet
EndChar
StartChar: Z
Encoding: 60 90 60
OldEncoding: 90
Width: 414
Flags: W
HStem: 0 56<99 396> 438 56<40 314>
DStem: 314 438 394 436 19 54 99 56
Fore
40 438 m 1
 40 494 l 1
 394 494 l 1
 394 436 l 1
 99 56 l 1
 396 56 l 1
 396 0 l 1
 19 0 l 1
 19 54 l 1
 314 438 l 1
 40 438 l 1
EndSplineSet
EndChar
StartChar: bracketleft
Encoding: 61 91 61
OldEncoding: 91
Width: 188
Flags: W
HStem: -145 51<101 170> 443 51<43 170>
VStem: 43 58<-145 443>
Fore
43 494 m 1
 170 494 l 1
 170 443 l 1
 101 443 l 1
 101 -94 l 1
 170 -94 l 1
 170 -145 l 1
 43 -145 l 1
 43 494 l 1
EndSplineSet
EndChar
StartChar: backslash
Encoding: 62 92 62
OldEncoding: 92
Width: 188
Flags: W
HStem: -14 21G<155 192> 474 20G<-6 32>
DStem: -6 494 32 494 155 -14 192 -14
Fore
155 -14 m 1
 -6 494 l 1
 32 494 l 1
 192 -14 l 1
 155 -14 l 1
EndSplineSet
EndChar
StartChar: bracketright
Encoding: 63 93 63
OldEncoding: 93
Width: 188
Flags: W
HStem: -146 51<16 141> 443 51<16 84>
VStem: 84 57<-95 494>
Fore
16 443 m 1
 16 494 l 1
 141 494 l 1
 141 -146 l 1
 16 -146 l 1
 16 -95 l 1
 84 -95 l 1
 84 443 l 1
 16 443 l 1
EndSplineSet
EndChar
StartChar: asciicircum
Encoding: 64 94 64
OldEncoding: 94
Width: 317
Flags: W
DStem: 134 484 158 426 29 226 77 226 158 426 184 484 241 226 288 226
Fore
29 226 m 1
 134 484 l 1
 184 484 l 1
 288 226 l 1
 241 226 l 1
 158 426 l 1
 77 226 l 1
 29 226 l 1
EndSplineSet
EndChar
StartChar: underscore
Encoding: 65 95 65
OldEncoding: 95
Width: 377
Flags: W
HStem: -119 34<-15 392>
Fore
392 -85 m 1
 392 -119 l 1
 -15 -119 l 1
 -15 -85 l 1
 392 -85 l 1
EndSplineSet
EndChar
StartChar: grave
Encoding: 66 96 66
OldEncoding: 96
Width: 182
VWidth: 2048
Flags: W
HStem: 404 90<28 148>
Fore
148 404 m 1
 102 404 l 1
 28 494 l 5
 105 494 l 1
 148 404 l 1
EndSplineSet
EndChar
StartChar: a
Encoding: 67 97 67
OldEncoding: 97
Width: 377
Flags: W
VStem: 28 59<80.2963 94 94.0157 95.9687 94 105> 263 60<97 292>
Fore
323 292 m 2
 323 53 l 2
 323 47 327 43 333 38 c 0
 340 35 350 33 363 33 c 1
 363 -9 l 1
 315 -16 l 1
 285 -7 268 10 266 36 c 1
 244 19 226 7 211 -1 c 0
 197 -9 176 -16 153 -16 c 0
 113 -17 82 -6 61 14 c 0
 40 33 27 61 28 96 c 0
 28 123 37 144 51 158 c 0
 64 172 81 182 103 189 c 0
 120 194 136 198 150 200 c 0
 165 202 181 205 200 206 c 0
 218 207 229 208 235 209 c 0
 254 215 263 224 263 236 c 2
 263 279 l 1
 261 290 251 301 233 306 c 0
 214 313 191 316 165 315 c 0
 123 314 102 292 98 250 c 1
 45 250 l 1
 46 280 l 1
 50 294 56 307 67 320 c 0
 77 332 89 342 106 350 c 0
 121 358 142 363 170 366 c 1
 198 366 221 364 240 360 c 0
 263 355 284 347 299 334 c 0
 314 323 323 308 323 292 c 2
263 103 m 2
 263 174 l 1
 250 168 235 165 218 163 c 0
 201 159 183 157 164 154 c 0
 145 150 130 146 121 142 c 0
 114 139 106 133 98 124 c 0
 90 116 87 106 87 94 c 0
 87 73 93 59 105 49 c 0
 118 38 132 33 149 33 c 0
 172 32 192 37 209 46 c 0
 226 55 240 66 249 77 c 0
 259 89 263 97 263 103 c 2
EndSplineSet
EndChar
StartChar: b
Encoding: 68 98 68
OldEncoding: 98
Width: 377
Flags: W
HStem: -16 54<184 199> 0 21G<36 86> 308 58<184 203> 474 20G<36 94>
VStem: 36 57<0 183 0 494> 290 65<154 193>
Fore
36 494 m 1x7c
 94 494 l 1
 94 313 l 1
 99 324 111 334 127 345 c 0
 137 350 148 356 160 360 c 0
 173 364 188 366 203 366 c 0
 244 366 279 351 307 321 c 0
 318 311 327 297 333 282 c 0
 341 268 347 252 350 235 c 0
 354 218 355 199 355 180 c 0
 355 168 355 159 354 154 c 0
 353 119 342 88 328 61 c 0
 313 33 293 11 267 -1 c 0
 244 -12 220 -16 197 -16 c 0xbc
 171 -16 150 -11 136 -1 c 0
 110 16 94 29 86 40 c 1
 86 0 l 1
 36 0 l 1
 36 494 l 1x7c
260 71 m 0
 280 99 290 134 290 177 c 0
 290 198 288 217 284 234 c 0
 280 251 273 263 266 273 c 1
 251 297 226 310 191 308 c 0
 160 308 137 296 121 275 c 0
 114 264 107 251 102 232 c 0
 96 211 93 191 93 170 c 0
 93 136 101 105 118 77 c 0
 132 54 155 42 185 38 c 1
 220 38 245 50 260 71 c 0
EndSplineSet
EndChar
StartChar: c
Encoding: 69 99 69
OldEncoding: 99
Width: 339
Flags: W
HStem: 314 52<179 195.384>
Fore
269 123 m 1
 323 123 l 1
 322 94 316 70 304 51 c 0
 292 29 272 12 249 1 c 0
 225 -10 199 -17 171 -16 c 0
 144 -16 119 -7 96 6 c 0
 73 18 56 36 45 60 c 0
 29 94 21 134 21 181 c 0
 23 235 40 280 72 318 c 0
 99 349 134 365 179 366 c 0
 199 366 218 364 235 358 c 0
 253 353 268 345 279 334 c 1
 293 327 303 313 310 296 c 0
 318 279 322 259 323 236 c 1
 267 236 l 1
 263 255 260 270 254 280 c 0
 249 289 241 297 229 303 c 0
 212 311 195 314 181 314 c 0
 155 313 131 301 111 277 c 0
 96 260 84 231 82 189 c 0
 80 142 87 110 96 93 c 0
 114 56 144 37 184 38 c 0
 199 38 212 43 226 51 c 0
 238 59 247 67 252 77 c 0
 261 94 267 108 269 123 c 1
EndSplineSet
EndChar
StartChar: d
Encoding: 70 100 70
OldEncoding: 100
Width: 377
Flags: W
HStem: -16 54<176 195> -1 21G<286 336> 307 59<166 188> 474 20G<279 336>
VStem: 18 63<154 193> 286 50<-1 494>
Fore
279 494 m 1x7c
 336 494 l 1
 336 -1 l 1
 286 -1 l 1x7c
 286 41 l 1
 271 24 255 9 237 -2 c 0
 224 -11 203 -16 176 -16 c 0xbc
 149 -16 125 -11 105 -1 c 0
 80 11 61 32 46 60 c 0
 32 87 23 118 19 153 c 0
 18 158 18 168 18 181 c 0
 18 208 23 234 31 259 c 0
 38 285 50 305 64 320 c 0
 95 350 129 366 168 366 c 0
 198 366 224 359 246 345 c 0
 261 334 272 324 279 313 c 1
 279 494 l 1x7c
112 70 m 0
 129 49 154 37 186 38 c 0xbc
 201 38 215 43 227 50 c 0
 240 56 249 66 255 77 c 0
 271 104 279 134 279 168 c 0
 279 191 276 212 270 232 c 0
 264 251 258 266 252 273 c 0
 235 296 211 307 181 307 c 0
 147 307 122 296 106 273 c 0
 89 250 81 217 81 176 c 0
 81 133 92 98 112 70 c 0
EndSplineSet
EndChar
StartChar: e
Encoding: 71 101 71
OldEncoding: 101
Width: 377
Flags: W
HStem: -16 50<173.674 205> 155 51<90 348> 320 46<199 205>
VStem: 27 61<153 175>
Fore
348 155 m 1
 88 155 l 1
 88 139 89 125 92 115 c 0
 94 105 99 93 107 78 c 1
 129 49 155 34 188 34 c 0
 205 34 218 36 231 42 c 0
 242 47 251 54 259 62 c 0
 266 70 271 79 275 87 c 0
 278 95 280 102 282 108 c 1
 340 108 l 1
 333 78 322 54 308 37 c 0
 295 20 280 8 259 -1 c 0
 237 -11 214 -16 189 -16 c 0
 164 -16 140 -11 119 -1 c 0
 97 9 78 23 63 42 c 0
 40 72 27 118 27 175 c 0
 28 235 43 281 71 313 c 0
 104 348 147 367 202 366 c 0
 216 366 229 363 243 358 c 0
 257 354 269 348 281 340 c 0
 292 332 301 324 307 315 c 0
 320 298 329 282 334 267 c 0
 340 251 345 236 346 224 c 0
 347 210 347 188 348 155 c 1
90 206 m 1
 286 206 l 1
 286 220 282 237 277 254 c 0
 271 271 266 282 260 288 c 1
 257 296 250 303 237 308 c 0
 226 314 214 320 199 320 c 0
 163 321 137 310 121 288 c 1
 115 284 108 272 102 255 c 0
 94 237 92 220 90 206 c 1
EndSplineSet
EndChar
StartChar: f
Encoding: 72 102 72
OldEncoding: 102
Width: 188
Flags: W
HStem: 0 21G<60 118> 304 52<12 60 118 174> 446 50<145 175>
VStem: 60 58<0 304 356 418>
Fore
60 0 m 1
 60 304 l 1
 12 304 l 1
 12 356 l 1
 60 356 l 1
 60 416 l 2
 60 440 68 459 82 473 c 0
 97 487 108 494 118 494 c 0
 123 495 132 496 145 496 c 0
 158 496 168 495 175 494 c 1
 175 446 l 1
 154 446 138 444 130 440 c 0
 122 434 118 424 118 408 c 2
 118 356 l 1
 174 356 l 1
 174 304 l 1
 118 304 l 1
 118 0 l 1
 60 0 l 1
EndSplineSet
EndChar
StartChar: g
Encoding: 73 103 73
OldEncoding: 103
Width: 377
Flags: W
HStem: -148 50<156 188> -16 54<158 172> 304 62<170 179> 336 20G<275 331>
VStem: 19 61<154 172> 275 56<27 60 153 356>
Fore
275 356 m 1xdc
 331 356 l 1xdc
 331 60 l 2
 331 25 328 -5 324 -29 c 0
 320 -54 312 -76 299 -95 c 0
 287 -114 270 -127 246 -134 c 0
 225 -141 205 -146 188 -148 c 1
 151 -148 124 -145 107 -138 c 0
 88 -130 72 -121 61 -110 c 0
 50 -98 42 -87 38 -75 c 0
 35 -63 33 -52 32 -41 c 1
 89 -41 l 1
 90 -43 92 -46 93 -52 c 0
 94 -58 95 -62 97 -66 c 0
 98 -69 102 -73 107 -77 c 0
 112 -81 119 -86 129 -90 c 0
 140 -96 155 -98 173 -98 c 0
 192 -98 210 -95 225 -89 c 1
 240 -81 250 -73 254 -66 c 0
 259 -59 263 -47 267 -32 c 0
 272 -8 275 17 275 43 c 1
 241 3 202 -17 158 -16 c 0
 132 -15 107 -3 84 16 c 1
 64 28 49 47 37 72 c 0
 27 97 20 124 19 155 c 0
 19 184 23 214 29 242 c 0
 36 270 46 294 59 311 c 0
 67 321 81 333 103 347 c 0
 124 359 148 366 173 366 c 0xec
 212 365 246 348 275 313 c 1
 275 356 l 1xdc
243 66 m 0
 264 88 275 123 275 171 c 0
 275 193 272 215 267 235 c 0
 261 255 252 270 242 280 c 0
 238 285 229 290 217 296 c 0
 205 302 191 304 179 304 c 0xec
 141 304 113 287 97 252 c 0
 87 231 81 205 80 172 c 0
 79 130 88 98 103 77 c 0
 120 53 144 38 172 38 c 0
 202 37 226 47 243 66 c 0
EndSplineSet
EndChar
StartChar: h
Encoding: 74 104 74
OldEncoding: 104
Width: 377
Flags: W
HStem: 0 21G<47 104 272 330> 314 52<182 214> 474 20G<47 104>
VStem: 47 57<0 245 0 494> 272 58<0 270>
Fore
47 0 m 1
 47 494 l 1
 104 494 l 1
 104 313 l 1
 122 332 142 347 165 357 c 1
 186 363 202 366 214 366 c 0
 233 366 252 360 271 354 c 0
 295 345 310 333 318 315 c 0
 325 297 330 282 330 270 c 2
 330 0 l 1
 272 0 l 1
 272 243 l 2
 272 276 262 296 243 305 c 1
 225 311 205 314 182 314 c 1
 165 311 147 301 127 284 c 0
 112 270 104 253 104 232 c 2
 104 0 l 1
 47 0 l 1
EndSplineSet
EndChar
StartChar: i
Encoding: 75 105 75
OldEncoding: 105
Width: 150
Flags: W
HStem: 0 21G<45 102> 336 20G<45 102> 474 20G<45 102>
VStem: 45 57<0 356 424 494>
Fore
102 356 m 1
 102 0 l 1
 45 0 l 1
 45 356 l 1
 102 356 l 1
102 494 m 1
 102 424 l 1
 45 424 l 1
 45 494 l 1
 102 494 l 1
EndSplineSet
EndChar
StartChar: j
Encoding: 76 106 76
OldEncoding: 106
Width: 150
Flags: W
HStem: 336 20G<46 104> 474 20G<46 104>
VStem: 46 58<-69 356 424 494>
Fore
46 424 m 1
 46 494 l 1
 104 494 l 1
 104 424 l 1
 46 424 l 1
-12 -148 m 1
 -12 -98 l 1
 21 -95 l 2
 29 -94 36 -90 41 -84 c 0
 44 -78 46 -71 46 -66 c 2
 46 356 l 1
 104 356 l 1
 104 -78 l 2
 104 -90 101 -103 93 -116 c 0
 85 -129 71 -138 52 -144 c 0
 38 -147 17 -148 -12 -148 c 1
EndSplineSet
EndChar
StartChar: k
Encoding: 77 107 77
OldEncoding: 107
Width: 339
Flags: W
HStem: 0 21G<40 96 270 340> 336 20G<246 320> 474 20G<40 96>
VStem: 40 56<0 133 0 494>
DStem: 154 190 195 233 270 0 340 0 246 356 320 356 96 208 195 233
Fore
40 494 m 1
 96 494 l 1
 96 208 l 1
 246 356 l 1
 320 356 l 1
 195 233 l 1
 340 0 l 1
 270 0 l 1
 154 190 l 1
 96 133 l 1
 96 0 l 1
 40 0 l 1
 40 494 l 1
EndSplineSet
EndChar
StartChar: l
Encoding: 78 108 78
OldEncoding: 108
Width: 150
Flags: W
HStem: 0 21G<46 103> 474 20G<46 103>
VStem: 46 57<0 494>
Fore
46 0 m 1
 46 494 l 1
 103 494 l 1
 103 0 l 1
 46 0 l 1
EndSplineSet
EndChar
StartChar: m
Encoding: 79 109 79
OldEncoding: 109
Width: 565
Flags: W
HStem: 0 21G<49 105 254 311 460 518> 314 52<187 209 390 406> 336 20G<49 105>
VStem: 49 56<0 229 0 356> 254 57<0 242> 460 58<0 278>
Fore
49 0 m 1xdc
 49 356 l 1
 105 356 l 1xbc
 105 311 l 1
 120 333 132 347 142 351 c 0
 160 362 183 366 209 366 c 0
 236 366 257 362 269 353 c 0
 284 342 296 330 306 313 c 1
 313 321 319 328 322 332 c 0
 325 337 330 341 336 346 c 0
 341 350 347 354 354 357 c 0
 368 363 385 366 406 366 c 0
 437 366 460 363 472 355 c 0
 479 351 486 346 494 337 c 0
 502 329 507 319 512 308 c 0
 515 298 518 288 518 278 c 2
 518 0 l 1
 460 0 l 1
 460 254 l 1
 454 294 432 314 392 314 c 0
 367 314 348 307 336 294 c 0
 322 280 314 263 311 242 c 1
 311 0 l 1
 254 0 l 1
 254 255 l 2
 254 295 228 314 189 314 c 0
 166 314 147 306 131 290 c 0
 116 275 107 254 105 229 c 1
 105 0 l 1
 49 0 l 1xdc
EndSplineSet
EndChar
StartChar: n
Encoding: 80 110 80
OldEncoding: 110
Width: 377
Flags: W
HStem: 0 21G<47 104 273 330> 314 52<202 217> 336 20G<47 104>
VStem: 47 57<0 209 0 356> 273 57<0 277>
Fore
47 356 m 1xb8
 104 356 l 1xb8
 104 311 l 1
 119 331 132 345 145 350 c 1
 159 360 183 367 216 366 c 0
 242 366 261 363 273 357 c 0
 288 349 301 339 311 329 c 0
 321 318 327 301 330 277 c 1
 330 0 l 1
 273 0 l 1
 273 247 l 2
 273 262 270 273 264 284 c 0
 258 294 249 302 237 306 c 0
 227 312 215 314 202 314 c 0xd8
 175 314 151 304 132 285 c 0
 113 266 104 233 104 189 c 2
 104 0 l 1
 47 0 l 1
 47 356 l 1xb8
EndSplineSet
EndChar
StartChar: o
Encoding: 81 111 81
OldEncoding: 111
Width: 377
Flags: W
HStem: -16 58<169.875 188> 310 56<170.983 188>
VStem: 25 57<175 177> 287 59<175 193>
Fore
52 54 m 0
 34 85 25 125 25 175 c 0
 25 226 34 266 52 296 c 0
 67 320 86 339 110 350 c 0
 133 362 158 366 185 366 c 0
 211 366 237 360 261 349 c 0
 285 338 303 320 318 296 c 0
 337 264 346 224 346 175 c 0
 346 128 337 87 318 54 c 0
 303 31 285 12 261 1 c 0
 237 -10 211 -16 185 -16 c 0
 158 -16 133 -10 110 1 c 0
 86 12 67 31 52 54 c 0
185 42 m 0
 203 42 220 46 235 55 c 0
 251 64 261 78 269 96 c 0
 280 123 287 149 287 175 c 0
 287 200 281 227 269 255 c 0
 261 273 250 287 235 296 c 0
 219 305 202 310 185 310 c 0
 167 310 150 305 134 297 c 0
 118 288 105 275 97 255 c 1
 93 238 89 223 87 210 c 0
 84 198 82 185 82 175 c 0
 82 154 88 127 101 96 c 0
 108 78 121 64 136 55 c 0
 150 46 167 42 185 42 c 0
EndSplineSet
EndChar
StartChar: p
Encoding: 82 112 82
OldEncoding: 112
Width: 377
Flags: W
HStem: -16 59<184 205> 313 53<179 195> 336 20G<36 86>
VStem: 36 50<-148 356> 36 58<-148 38 -148 200> 290 65<155 189>
Fore
94 -148 m 1xcc
 36 -148 l 1
 36 356 l 1
 86 356 l 1
 86 311 l 1xb4
 95 324 111 338 134 353 c 0
 149 362 170 366 195 366 c 0
 221 366 245 362 267 351 c 0
 293 339 313 319 328 290 c 0
 342 262 353 232 354 198 c 0
 355 192 355 183 355 172 c 0
 355 144 350 116 342 92 c 0
 334 66 322 45 307 31 c 0
 278 0 243 -16 203 -16 c 0
 174 -16 148 -9 127 6 c 0
 112 16 101 26 94 38 c 1
 94 -148 l 1xcc
260 280 m 0
 244 302 219 314 185 313 c 0xc4
 171 313 158 307 146 302 c 1
 133 294 124 285 118 273 c 0
 101 246 93 216 93 182 c 0
 93 162 96 141 102 122 c 0
 107 103 114 87 121 77 c 0
 130 66 140 58 153 52 c 0
 165 46 177 43 191 43 c 0
 226 43 250 54 266 77 c 0
 281 99 290 131 290 173 c 0
 290 216 280 252 260 280 c 0
EndSplineSet
EndChar
StartChar: q
Encoding: 83 113 83
OldEncoding: 113
Width: 377
Flags: W
HStem: -16 59<166 186> 313 53<176 195> 336 20G<286 336>
VStem: 18 63<154 198> 279 57<-148 356>
Fore
336 -148 m 1xb8
 279 -148 l 1
 279 38 l 1
 273 27 262 16 246 6 c 0
 224 -9 198 -16 168 -16 c 0
 129 -16 95 0 64 31 c 0
 34 62 18 108 18 170 c 0
 18 182 18 192 19 198 c 0
 23 232 32 262 46 290 c 0
 61 319 80 339 105 351 c 0
 125 362 149 366 176 366 c 0xd8
 202 366 223 362 237 353 c 0
 258 340 273 327 286 311 c 1
 286 356 l 1
 336 356 l 1
 336 -148 l 1xb8
112 280 m 0
 90 252 80 215 81 172 c 0
 81 130 92 98 106 77 c 0
 122 54 147 43 181 43 c 0
 195 43 209 46 221 52 c 0
 234 58 244 67 252 77 c 0
 266 96 275 122 278 156 c 0
 279 162 279 170 279 181 c 0
 279 217 270 247 255 273 c 0
 249 285 241 294 228 301 c 0
 216 307 201 313 186 313 c 0
 154 314 128 303 112 280 c 0
EndSplineSet
EndChar
StartChar: r
Encoding: 84 114 84
OldEncoding: 114
Width: 226
Flags: W
HStem: 0 21G<46 104> 306 60<185 218> 336 20G<46 104>
VStem: 46 58<0 209 0 356>
Fore
46 0 m 1xd0
 46 356 l 1
 104 356 l 1xb0
 104 301 l 1
 114 320 128 336 144 348 c 0
 158 359 173 365 185 366 c 2
 218 366 l 1
 218 306 l 1
 197 306 179 304 164 298 c 0
 144 289 129 276 119 259 c 0
 108 240 104 216 104 185 c 2
 104 0 l 1
 46 0 l 1xd0
EndSplineSet
EndChar
StartChar: s
Encoding: 85 115 85
OldEncoding: 115
Width: 339
Flags: W
HStem: 346 20G<145.5 207>
VStem: 33 54<255 262> 255 56<85 97>
Fore
23 105 m 1
 77 105 l 1
 80 90 82 80 85 73 c 0
 87 68 93 61 101 54 c 0
 108 47 121 42 138 36 c 1
 147 35 164 34 189 34 c 1
 209 37 224 42 233 49 c 0
 238 52 244 59 249 68 c 0
 253 76 255 84 255 92 c 0
 255 113 243 129 217 137 c 0
 209 139 199 141 185 145 c 0
 171 148 158 151 148 154 c 0
 138 156 127 159 114 163 c 0
 102 166 92 170 85 173 c 0
 50 185 33 215 33 260 c 0
 33 293 45 319 71 338 c 0
 96 357 127 366 164 366 c 4
 250 366 294 330 296 257 c 1
 240 257 l 1
 240 272 234 286 224 296 c 0
 214 306 192 312 158 313 c 1
 123 311 101 298 89 276 c 0
 88 272 87 267 87 259 c 0
 87 243 94 232 106 226 c 0
 114 223 121 219 128 217 c 0
 133 215 142 214 154 210 c 0
 165 207 177 203 190 200 c 0
 224 194 251 185 272 173 c 0
 298 158 311 129 311 85 c 1
 308 67 302 50 290 35 c 0
 279 19 264 7 246 -1 c 0
 229 -9 208 -15 182 -16 c 0
 154 -17 131 -15 113 -11 c 0
 53 1 23 41 23 105 c 1
EndSplineSet
EndChar
StartChar: t
Encoding: 86 116 86
OldEncoding: 116
Width: 188
Flags: W
HStem: -16 52<111 146> 304 52<9 59 116 172>
VStem: 59 57<35 304 356 452>
Fore
116 452 m 1
 116 356 l 1
 172 356 l 1
 172 304 l 1
 116 304 l 1
 116 56 l 2
 116 43 127 36 146 36 c 0
 151 36 159 37 172 38 c 1
 172 -11 l 1
 156 -15 136 -16 111 -16 c 1
 94 -14 80 -7 71 5 c 0
 63 16 59 26 59 35 c 2
 59 304 l 1
 9 304 l 1
 9 356 l 1
 59 356 l 1
 59 452 l 1
 116 452 l 1
EndSplineSet
EndChar
StartChar: u
Encoding: 87 117 87
OldEncoding: 117
Width: 377
Flags: W
HStem: -16 54<155 173> 0 21G<270 327> 336 20G<44 101 270 327>
VStem: 44 57<72 356> 270 57<0 356>
Fore
327 0 m 1x78
 270 0 l 1x78
 270 38 l 1
 255 18 242 6 229 -1 c 0
 211 -10 188 -16 157 -16 c 0
 136 -16 116 -14 101 -8 c 1
 69 9 50 35 44 72 c 1
 44 356 l 1
 101 356 l 1
 101 104 l 2
 101 78 110 60 128 47 c 0
 138 42 148 38 160 38 c 0xb8
 177 38 190 40 200 42 c 0
 228 52 246 67 257 88 c 0
 266 107 270 132 270 163 c 2
 270 356 l 1
 327 356 l 1
 327 0 l 1x78
EndSplineSet
EndChar
StartChar: v
Encoding: 88 118 88
OldEncoding: 118
Width: 339
Flags: W
HStem: 0 21G<131 193> 336 20G<7 70 266 330>
DStem: 7 356 70 356 131 0 163 68 266 356 330 356 163 68 193 0
Fore
193 0 m 1
 131 0 l 1
 7 356 l 1
 70 356 l 1
 163 68 l 1
 266 356 l 1
 330 356 l 1
 193 0 l 1
EndSplineSet
EndChar
StartChar: w
Encoding: 89 119 89
OldEncoding: 119
Width: 489
Flags: W
HStem: 0 21G<106 171 311 375> 336 20G<5 68 207 277 416 480>
DStem: 5 356 68 356 106 0 138 79 207 356 238 270 138 79 171 0 238 270 277 356 311 0 344 79
Fore
106 0 m 1
 5 356 l 1
 68 356 l 1
 138 79 l 1
 207 356 l 1
 277 356 l 1
 344 79 l 1
 416 356 l 1
 480 356 l 1
 375 0 l 1
 311 0 l 1
 238 270 l 1
 171 0 l 1
 106 0 l 1
EndSplineSet
EndChar
StartChar: x
Encoding: 90 120 90
OldEncoding: 120
Width: 339
Flags: W
HStem: 0 21G<11 76 257 321> 336 20G<19 84 255 320>
DStem: 19 356 84 356 137 182 170 231 137 182 167 133 11 0 76 0 167 133 199 183 257 0 321 0 255 356 320 356 170 231 199 183
Fore
167 133 m 1
 76 0 l 1
 11 0 l 1
 137 182 l 1
 19 356 l 1
 84 356 l 1
 170 231 l 1
 255 356 l 1
 320 356 l 1
 199 183 l 1
 321 0 l 1
 257 0 l 1
 167 133 l 1
EndSplineSet
EndChar
StartChar: y
Encoding: 91 121 91
OldEncoding: 121
Width: 339
Flags: W
HStem: -148 55<61 77> 336 20G<14 73 263 324>
DStem: 14 356 73 356 130 -6 164 87 263 356 324 356 164 87 163 -82
Fore
263 356 m 1
 324 356 l 1
 163 -82 l 2
 153 -111 136 -129 113 -139 c 0
 101 -145 85 -148 67 -148 c 0
 54 -148 44 -146 35 -140 c 1
 35 -87 l 1
 43 -90 58 -93 77 -93 c 1
 92 -90 103 -80 110 -62 c 2
 130 -6 l 1
 14 356 l 1
 73 356 l 1
 164 87 l 1
 263 356 l 1
EndSplineSet
EndChar
StartChar: z
Encoding: 92 122 92
OldEncoding: 122
Width: 339
Flags: W
HStem: 0 56<97 310> 299 57<36 229>
DStem: 229 299 302 306 21 46 97 56
Fore
302 356 m 1
 302 306 l 1
 97 56 l 1
 310 56 l 1
 310 0 l 1
 21 0 l 1
 21 46 l 1
 229 299 l 1
 36 299 l 1
 36 356 l 1
 302 356 l 1
EndSplineSet
EndChar
StartChar: braceleft
Encoding: 93 123 93
OldEncoding: 123
Width: 226
Flags: W
VStem: 82 51<-66 80 270 416>
Fore
29 151 m 1
 29 199 l 1
 51 203 66 214 72 228 c 0
 79 243 82 266 82 296 c 2
 82 411 l 2
 82 435 89 454 102 470 c 0
 114 485 127 494 138 494 c 2
 188 496 l 1
 188 451 l 1
 157 447 l 2
 148 446 142 443 139 436 c 0
 136 429 133 419 133 405 c 2
 133 284 l 2
 133 253 128 229 118 214 c 0
 107 198 96 185 84 175 c 1
 94 168 105 157 116 140 c 0
 128 123 133 98 133 67 c 2
 133 -53 l 2
 133 -68 136 -79 139 -86 c 0
 142 -93 148 -96 157 -97 c 2
 188 -101 l 1
 188 -145 l 1
 138 -144 l 2
 127 -144 114 -134 102 -119 c 0
 89 -104 82 -85 82 -61 c 2
 82 55 l 2
 82 86 79 108 72 123 c 0
 64 138 51 147 29 151 c 1
EndSplineSet
EndChar
StartChar: bar
Encoding: 94 124 94
OldEncoding: 124
Width: 176
Flags: W
HStem: 474 20G<68 108>
VStem: 68 40<-146 494>
Fore
108 494 m 1
 108 -146 l 1
 68 -146 l 1
 68 494 l 1
 108 494 l 1
EndSplineSet
EndChar
StartChar: braceright
Encoding: 95 125 95
OldEncoding: 125
Width: 226
Flags: W
VStem: 73 51<-66 80 282 416>
Fore
177 199 m 1
 177 151 l 1
 156 147 141 138 134 123 c 0
 128 108 124 86 124 55 c 2
 124 -61 l 2
 124 -77 121 -90 115 -103 c 0
 108 -115 101 -124 93 -132 c 0
 85 -139 77 -142 69 -144 c 2
 19 -145 l 1
 19 -101 l 1
 50 -97 l 2
 59 -96 66 -92 69 -85 c 0
 72 -78 73 -68 73 -53 c 2
 73 67 l 2
 73 97 79 122 92 139 c 0
 103 156 113 168 123 175 c 0
 122 175 120 179 114 184 c 0
 107 190 101 198 95 208 c 0
 88 218 82 228 79 241 c 0
 76 253 73 267 73 284 c 2
 73 405 l 2
 73 419 72 429 69 436 c 0
 66 443 59 446 50 447 c 2
 19 451 l 1
 19 496 l 1
 69 494 l 2
 77 493 85 489 93 483 c 0
 101 475 108 466 115 453 c 0
 121 441 124 427 124 411 c 2
 124 296 l 2
 124 266 128 243 134 228 c 0
 141 214 156 203 177 199 c 1
EndSplineSet
EndChar
StartChar: asciitilde
Encoding: 96 126 96
OldEncoding: 126
Width: 395
Flags: W
HStem: 181 46<270 277> 254 43<123 125>
DStem: 147 244 158 288 219 198 247 235
Fore
87 198 m 1
 51 198 l 1
 52 233 60 259 73 273 c 0
 88 289 104 297 123 297 c 0
 136 297 147 295 158 288 c 2
 247 235 l 2
 255 231 264 227 275 227 c 0
 284 227 290 229 296 234 c 0
 304 241 308 255 308 279 c 1
 344 279 l 1
 344 250 337 226 323 208 c 0
 311 190 294 181 272 181 c 0
 258 181 238 185 219 198 c 2
 147 244 l 1
 139 251 131 254 123 254 c 0
 113 254 104 249 97 238 c 0
 90 228 87 215 87 198 c 1
EndSplineSet
EndChar
StartChar: exclamdown
Encoding: 99 161 223
OldEncoding: 161
Width: 145
VWidth: 2048
Flags: W
HStem: 342 72<29 107>
VStem: 28 82<-96 16>
Fore
107 414 m 1
 107 342 l 1
 29 342 l 1
 29 414 l 1
 107 414 l 1
92 287 m 1
 110 16 l 1
 110 -96 l 1
 28 -96 l 1
 28 16 l 1
 45 287 l 1
 92 287 l 1
EndSplineSet
EndChar
StartChar: cent
Encoding: 100 162 224
OldEncoding: 162
Width: 348
VWidth: 2048
Flags: W
HStem: 6 53<167 172>
VStem: -5 67<185 219>
DStem: 90 24 131 10 47 -122 88 -134 188 349 227 341 107 71 146 62 244 549 284 538 202 408 243 396
Fore
227 341 m 1
 146 62 l 1
 167 59 l 1
 224 59 258 92 268 156 c 1
 332 149 l 1
 325 107 307 72 278 46 c 0
 249 19 212 6 168 6 c 0
 155 6 142 7 131 10 c 1
 88 -134 l 1
 47 -122 l 1
 90 24 l 1
 27 55 -5 118 -5 207 c 0
 -5 266 9 313 35 350 c 1
 67 390 111 410 166 410 c 1
 202 408 l 1
 244 549 l 1
 284 538 l 1
 243 396 l 1
 288 377 315 342 325 288 c 1
 261 279 l 1
 255 306 243 328 227 341 c 1
188 349 m 1
 170 350 l 2
 98 353 62 303 62 202 c 0
 62 138 77 94 107 71 c 1
 188 349 l 1
EndSplineSet
EndChar
StartChar: sterling
Encoding: 101 163 225
OldEncoding: 163
Width: 294
VWidth: 2048
Flags: W
HStem: -2 46<216 226> 21 42<88 99> 188 41<-1 52 95 183> 377 42<138.059 161>
VStem: 27 53<300 318> 56 54<151 164>
Fore
95 229 m 1xb8
 183 229 l 1
 183 188 l 1
 104 188 l 1
 107 180 110 172 110 164 c 0
 110 127 93 92 60 58 c 1
 75 61 88 63 99 63 c 0x74
 115 63 133 61 151 55 c 0
 184 47 205 44 216 44 c 0
 229 44 246 49 269 60 c 1
 285 15 l 1
 258 3 235 -2 218 -2 c 1xb4
 193 0 l 1
 159 9 l 1
 122 20 l 1
 96 21 l 1x74
 67 21 38 14 14 -3 c 1
 -7 44 l 1
 35 69 56 105 56 153 c 1xb4
 52 188 l 1
 -1 188 l 1
 -1 229 l 1
 40 229 l 1
 32 260 27 284 27 303 c 0
 27 338 38 366 63 386 c 0
 86 408 115 419 151 419 c 0
 223 419 263 383 275 313 c 1
 226 305 l 1
 218 354 193 377 151 377 c 0
 132 377 115 371 101 357 c 0
 87 345 80 329 80 308 c 0
 80 289 85 263 95 229 c 1xb8
EndSplineSet
EndChar
StartChar: currency
Encoding: 102 164 226
OldEncoding: 164
Width: 350
VWidth: 2048
Flags: W
HStem: 52 55<148.306 166> 281 53<148.384 166>
VStem: 12 58<194 208> 254 59<194 208>
DStem: -12 318 28 358 37 272 79 311 37 116 79 78 -12 70 28 31 247 78 288 116 297 31 337 70 297 358 337 318 247 311 288 272
Fore
37 272 m 1
 -12 318 l 1
 28 358 l 1
 79 311 l 1
 104 328 132 334 164 334 c 0
 194 334 221 328 247 311 c 1
 297 358 l 1
 337 318 l 1
 288 272 l 1
 305 249 313 223 313 194 c 0
 313 166 305 140 288 116 c 1
 337 70 l 1
 297 31 l 1
 247 78 l 1
 221 61 194 52 164 52 c 0
 131 52 103 61 79 78 c 1
 28 31 l 1
 -12 70 l 1
 37 116 l 1
 21 140 12 166 12 194 c 0
 12 223 21 249 37 272 c 1
70 194 m 0
 70 170 79 149 96 132 c 0
 115 116 137 107 163 107 c 0
 189 107 210 116 228 132 c 0
 245 149 254 170 254 194 c 0
 254 218 245 238 228 255 c 0
 209 272 188 281 163 281 c 0
 137 281 115 272 97 255 c 0
 79 238 70 218 70 194 c 0
EndSplineSet
EndChar
StartChar: yen
Encoding: 103 165 227
OldEncoding: 165
Width: 437
VWidth: 2048
Flags: W
HStem: 119 51<18 173 240 393> 219 54<18 173 266 393>
VStem: 173 67<2 119 170 219>
DStem: -6 525 68 525 145 273 176 341 337 525 417 525 235 346 266 273
Fore
173 2 m 1
 173 119 l 1
 18 119 l 1
 18 170 l 1
 173 170 l 1
 173 219 l 1
 18 219 l 1
 18 273 l 1
 145 273 l 1
 -6 525 l 1
 68 525 l 1
 176 341 l 1
 205 287 l 1
 235 346 l 1
 337 525 l 1
 417 525 l 1
 266 273 l 1
 393 273 l 1
 393 219 l 1
 240 219 l 1
 240 170 l 1
 393 170 l 1
 393 119 l 1
 240 119 l 1
 240 2 l 1
 173 2 l 1
EndSplineSet
EndChar
StartChar: brokenbar
Encoding: 104 166 228
OldEncoding: 166
Width: 88
VWidth: 2048
Flags: W
VStem: 11 55<-160 78 183 421>
Fore
66 421 m 1
 66 183 l 1
 11 183 l 1
 11 421 l 1
 66 421 l 1
66 78 m 1
 66 -160 l 1
 11 -160 l 1
 11 78 l 1
 66 78 l 1
EndSplineSet
EndChar
StartChar: section
Encoding: 105 167 229
OldEncoding: 167
Width: 393
VWidth: 2048
Flags: W
HStem: -124 52<181 206> 473 60<169 196>
VStem: -3 63<236 246> 33 70<415 422> 277 71<-17 -10> 306 68<163 177>
Fore
20 -2 m 1xc8
 92 7 l 1
 103 -46 137 -72 191 -72 c 0
 214 -72 233 -68 249 -58 c 0
 268 -47 277 -33 277 -15 c 0
 277 5 257 27 216 52 c 1
 129 99 l 2
 88 122 59 141 41 156 c 0
 11 181 -3 209 -3 238 c 0xe8
 -3 286 25 319 84 333 c 1
 50 360 33 389 33 417 c 0
 33 450 49 476 78 496 c 0
 106 515 128 527 145 531 c 0
 153 533 163 533 171 533 c 0
 240 533 289 512 319 468 c 2
 319 467 l 2
 330 449 337 429 341 407 c 1
 268 400 l 1
 259 450 231 473 183 473 c 0
 164 473 145 470 129 461 c 1
 112 450 103 436 103 420 c 0
 103 401 121 381 157 357 c 1
 237 313 l 2
 282 289 313 271 329 259 c 0
 358 235 374 208 374 177 c 0xd4
 374 134 345 102 286 80 c 1
 328 54 348 23 348 -12 c 0
 348 -47 331 -76 299 -97 c 0
 270 -115 235 -124 193 -124 c 0
 94 -124 36 -84 20 -2 c 1xc8
249 103 m 1
 287 120 306 141 306 166 c 0xe4
 306 193 271 226 199 263 c 0
 166 281 140 296 119 311 c 1
 79 292 60 269 60 244 c 0
 60 217 93 188 159 153 c 0
 201 132 231 115 249 103 c 1
EndSplineSet
EndChar
StartChar: dieresis
Encoding: 106 168 230
OldEncoding: 168
Width: 237
VWidth: 2048
Flags: W
HStem: 446 70<-1 76 149 225>
Fore
-1 446 m 1
 -1 516 l 1
 76 516 l 1
 76 446 l 1
 -1 446 l 1
149 446 m 1
 149 516 l 1
 225 516 l 1
 225 446 l 1
 149 446 l 1
EndSplineSet
EndChar
StartChar: copyright
Encoding: 107 169 231
OldEncoding: 169
Width: 440
VWidth: 2048
Flags: W
HStem: 1 39<186.692 220> 97 35<202 220> 315 34<202 220> 410 36<186.692 220>
VStem: -5 34<224 242> 95 39<208 226> 384 35<224 242>
Fore
207 446 m 0
 267 446 318 424 357 381 c 1
 399 339 419 286 419 224 c 0
 419 163 399 111 357 67 c 0
 316 24 266 1 207 1 c 0
 147 1 97 23 56 66 c 0
 16 108 -5 162 -5 224 c 0
 -5 286 15 339 55 382 c 0
 96 425 147 446 207 446 c 0
207 410 m 0
 157 410 115 392 81 356 c 0
 46 320 29 276 29 224 c 0
 29 172 46 128 81 93 c 0
 115 58 157 40 207 40 c 0
 257 40 298 58 332 93 c 0
 367 128 384 172 384 224 c 0
 384 275 367 319 332 355 c 0
 298 392 257 410 207 410 c 0
275 189 m 1
 310 177 l 1
 296 123 261 97 207 97 c 0
 172 97 144 108 124 132 c 0
 105 156 95 186 95 224 c 0
 95 261 105 292 125 314 c 0
 146 338 174 349 210 349 c 0
 259 349 292 327 305 279 c 1
 271 271 l 1
 260 301 238 315 209 315 c 0
 184 315 165 306 151 287 c 0
 140 270 134 249 134 223 c 0
 134 162 158 132 206 132 c 0
 242 132 266 150 275 189 c 1
EndSplineSet
EndChar
StartChar: ordfeminine
Encoding: 108 170 232
OldEncoding: 170
Width: 177
VWidth: 2048
Flags: W
HStem: 330 32<59 74> 495 30<82 84>
VStem: 1 37<388 390> 121 35<409 464> 124 32<358 383>
Fore
124 358 m 1xe8
 105 340 84 330 61 330 c 0
 21 330 1 349 1 388 c 0
 1 412 14 429 36 438 c 1
 61 444 l 1
 97 449 l 1
 121 455 l 1
 121 481 108 495 82 495 c 0
 58 495 44 484 42 462 c 1
 8 471 l 1
 14 507 40 525 82 525 c 0
 132 525 156 504 156 462 c 2xf0
 156 383 l 1
 156 360 159 344 166 334 c 1
 130 334 l 1
 127 342 124 350 124 358 c 1xe8
121 424 m 1
 72 415 l 1
 49 409 38 400 38 388 c 0
 38 371 49 362 70 362 c 0
 104 362 121 382 121 424 c 1
EndSplineSet
EndChar
StartChar: guillemotleft
Encoding: 109 171 233
OldEncoding: 171
Width: 398
VWidth: 2048
Flags: W
Fore
93 206 m 1
 202 9 l 1
 141 9 l 1
 5 206 l 1
 141 401 l 1
 203 401 l 1
 93 206 l 1
259 206 m 1
 371 9 l 1
 305 9 l 1
 172 206 l 1
 305 401 l 1
 371 401 l 1
 259 206 l 1
EndSplineSet
EndChar
StartChar: logicalnot
Encoding: 110 172 234
OldEncoding: 172
Width: 294
VWidth: 2048
Flags: W
HStem: 332 33<2 227>
VStem: 227 49<250 365>
Fore
276 250 m 1
 227 250 l 1
 227 332 l 1
 2 332 l 1
 2 365 l 1
 276 365 l 1
 276 250 l 1
EndSplineSet
EndChar
StartChar: uni00AD
Encoding: 111 173 235
OldEncoding: 173
Width: 149
VWidth: 2048
Flags: W
HStem: 180 38<6 134>
Fore
6 180 m 1
 6 218 l 1
 134 218 l 1
 134 180 l 1
 6 180 l 1
EndSplineSet
EndChar
StartChar: registered
Encoding: 112 174 236
OldEncoding: 174
Width: 565
VWidth: 2048
Flags: W
HStem: -12 31<268 288> 119 14<141 156.253 263 263 423 423> 255 17<228 249> 394 16<146 243 273 292> 397 13<146 169.012> 486 30<268 288>
VStem: 3 31<243 274> 180 48<149 255 153 379> 330 51<337 346> 502 30<252 272>
DStem: 249 255 304 261 349 119 396 144
Fore
532 252 m 0xe7c0
 532 216 525 183 512 151 c 0
 498 119 480 90 455 66 c 0
 433 43 405 24 370 8 c 0
 338 -6 304 -12 268 -12 c 0
 219 -12 175 0 134 24 c 0
 94 47 62 78 40 119 c 0
 16 162 3 206 3 252 c 0
 3 287 10 322 24 354 c 0
 40 390 59 418 81 440 c 0
 106 464 134 484 167 496 c 0
 198 510 232 516 268 516 c 0
 304 516 338 510 370 496 c 1
 406 480 434 461 455 440 c 0
 477 419 496 390 512 354 c 1
 525 322 532 288 532 252 c 0xe7c0
502 252 m 0
 502 282 495 313 484 344 c 0
 472 370 455 394 433 417 c 0
 409 441 384 457 358 468 c 0
 329 480 298 486 268 486 c 0
 226 486 188 476 151 455 c 1
 116 433 87 405 67 368 c 0
 45 332 34 294 34 251 c 0
 34 209 45 171 67 137 c 0
 88 101 116 72 151 51 c 0
 186 29 225 19 268 19 c 0
 310 19 349 29 384 51 c 0
 420 71 449 101 471 137 c 1
 492 172 502 210 502 252 c 0
228 255 m 1
 228 156 l 2
 228 141 240 133 263 133 c 1
 263 119 l 1
 141 119 l 1
 141 133 l 1
 167 133 180 140 180 153 c 2
 180 374 l 2
 180 385 179 392 175 394 c 0xf7c0
 170 397 160 397 146 397 c 1xefc0
 146 410 l 1
 273 410 l 2xf7c0
 299 410 319 408 333 402 c 1
 353 394 366 383 373 373 c 0
 377 364 381 353 381 339 c 0
 381 316 373 297 357 284 c 1
 339 270 322 262 304 261 c 1
 396 144 l 2
 400 137 410 133 423 133 c 1
 423 119 l 1
 349 119 l 1
 249 255 l 1
 228 255 l 1
227 379 m 1
 228 272 l 1
 253 272 271 275 282 278 c 1
 315 290 330 312 330 342 c 0
 330 358 324 371 312 379 c 1
 303 388 293 392 285 392 c 2
 243 394 l 2
 234 394 228 389 227 379 c 1
EndSplineSet
EndChar
StartChar: macron
Encoding: 113 175 237
OldEncoding: 175
Width: 145
VWidth: 2048
Flags: W
HStem: 494 25<-2 140>
Fore
-2 494 m 1
 -2 519 l 1
 140 519 l 1
 140 494 l 1
 -2 494 l 1
EndSplineSet
EndChar
StartChar: degree
Encoding: 114 176 238
OldEncoding: 176
Width: 154
VWidth: 2048
Flags: W
HStem: 398 27<72 82> 514 27<72 82>
VStem: 1 28<470 479> 118 27<470 479>
Fore
1 470 m 0
 1 489 8 506 21 521 c 0
 36 536 53 541 72 541 c 0
 94 541 111 536 124 521 c 0
 139 506 145 489 145 470 c 0
 145 449 139 432 124 418 c 0
 110 403 93 398 72 398 c 0
 53 398 36 403 21 418 c 0
 8 432 1 449 1 470 c 0
29 470 m 0
 29 458 34 447 43 438 c 0
 51 429 61 425 72 425 c 0
 85 425 95 429 104 438 c 0
 113 447 118 458 118 470 c 0
 118 481 113 493 104 501 c 0
 95 510 85 514 72 514 c 0
 61 514 51 510 43 502 c 0
 34 493 29 481 29 470 c 0
EndSplineSet
EndChar
StartChar: plusminus
Encoding: 115 177 239
OldEncoding: 177
Width: 368
VWidth: 2048
Flags: W
HStem: 5 65<-12 359> 263 66<-12 141 206 359>
VStem: 141 65<106 263 329 483>
Fore
141 106 m 1
 141 263 l 1
 -12 263 l 1
 -12 329 l 1
 141 329 l 1
 141 483 l 1
 206 483 l 1
 206 329 l 1
 359 329 l 1
 359 263 l 1
 206 263 l 1
 206 106 l 1
 141 106 l 1
359 5 m 1
 -12 5 l 1
 -12 70 l 1
 359 70 l 1
 359 5 l 1
EndSplineSet
EndChar
StartChar: twosuperior
Encoding: 116 178 240
OldEncoding: 178
Width: 124
VWidth: 2048
Flags: W
HStem: 345 25<46 112> 476 23<62 70>
VStem: 84 26<450 460>
Fore
7 345 m 1
 8 362 23 382 49 407 c 2
 70 426 l 1
 79 436 84 445 84 452 c 0
 84 468 77 476 62 476 c 0
 47 476 38 468 35 452 c 1
 10 455 l 1
 16 485 34 499 62 499 c 0
 94 499 110 486 110 458 c 0
 110 444 104 431 94 418 c 0
 90 412 80 403 66 390 c 0
 58 382 51 375 46 370 c 1
 112 370 l 1
 112 345 l 1
 7 345 l 1
EndSplineSet
EndChar
StartChar: threesuperior
Encoding: 117 179 241
OldEncoding: 179
Width: 120
VWidth: 2048
Flags: W
HStem: 351 23<47 60> 421 21<50 60> 479 22<56 60>
VStem: 78 28<458 466> 85 28<391 402>
Fore
2 393 m 1xe8
 28 396 l 1
 33 381 42 374 56 374 c 0
 75 374 85 383 85 400 c 0xe8
 85 415 75 421 56 421 c 1
 50 420 l 1
 46 420 l 1
 50 442 l 1
 69 442 78 449 78 461 c 0
 78 473 70 479 56 479 c 0
 44 479 35 472 31 460 c 1
 5 464 l 1
 12 488 29 501 56 501 c 0
 89 501 106 488 106 464 c 0xf0
 106 450 97 440 81 434 c 1
 102 427 113 415 113 396 c 0
 113 381 106 371 94 363 c 0
 84 355 71 351 58 351 c 0
 25 351 7 365 2 393 c 1xe8
EndSplineSet
EndChar
StartChar: acute
Encoding: 118 180 242
OldEncoding: 180
Width: 118
VWidth: 2048
Flags: W
Fore
7 452 m 1
 46 518 l 1
 116 518 l 1
 51 452 l 1
 7 452 l 1
EndSplineSet
EndChar
StartChar: mu
Encoding: 119 181 243
OldEncoding: 181
Width: 315
VWidth: 2048
Flags: W
HStem: 14 58<144 162>
VStem: 1 62<-125 62 -125 409> 241 56<24 409>
Fore
297 409 m 1
 297 24 l 1
 241 24 l 1
 241 69 l 1
 221 32 191 14 150 14 c 0
 115 14 86 29 63 62 c 1
 63 -125 l 1
 1 -125 l 1
 1 409 l 1
 63 409 l 1
 63 245 l 2
 63 191 67 155 72 133 c 0
 84 94 108 72 147 72 c 0
 188 72 212 93 226 132 c 0
 233 154 236 191 236 244 c 2
 236 409 l 1
 297 409 l 1
EndSplineSet
EndChar
StartChar: paragraph
Encoding: 120 182 244
OldEncoding: 182
Width: 400
VWidth: 2048
Flags: W
HStem: 486 54<159 275 159 388>
VStem: 134 59<-84 486> 275 61<-84 486>
Fore
134 -84 m 1
 134 280 l 1
 93 280 58 292 29 315 c 0
 2 340 -11 371 -11 407 c 0
 -11 451 5 485 37 508 c 1
 68 529 108 540 159 540 c 2
 388 540 l 1
 388 486 l 1
 336 486 l 1
 336 -84 l 1
 275 -84 l 1
 275 486 l 1
 193 486 l 1
 193 -84 l 1
 134 -84 l 1
EndSplineSet
EndChar
StartChar: periodcentered
Encoding: 121 183 245
OldEncoding: 183
Width: 70
VWidth: 2048
Flags: W
VStem: 7 54<257 313>
Fore
7 257 m 1
 7 313 l 1
 61 313 l 1
 61 257 l 1
 7 257 l 1
EndSplineSet
EndChar
StartChar: cedilla
Encoding: 122 184 246
OldEncoding: 184
Width: 154
VWidth: 2048
Flags: W
HStem: 5 48<36 57>
VStem: 90 56<-19 -12>
Fore
36 5 m 1
 54 53 l 1
 101 53 l 1
 89 24 l 1
 127 20 146 7 146 -17 c 0
 146 -35 134 -49 112 -58 c 0
 94 -66 73 -70 50 -70 c 0
 32 -70 15 -69 0 -66 c 1
 5 -34 l 1
 35 -35 l 2
 71 -36 90 -28 90 -14 c 0
 90 -1 72 5 36 5 c 1
EndSplineSet
EndChar
StartChar: onesuperior
Encoding: 123 185 247
OldEncoding: 185
Width: 108
VWidth: 2048
Flags: W
VStem: 60 30<331 486>
Fore
60 331 m 1
 60 445 l 1
 45 434 29 426 12 423 c 1
 12 447 l 1
 33 454 51 468 67 486 c 1
 90 486 l 1
 90 331 l 1
 60 331 l 1
EndSplineSet
EndChar
StartChar: ordmasculine
Encoding: 124 186 248
OldEncoding: 186
Width: 157
VWidth: 2048
Flags: W
HStem: 340 31<73 82> 479 31<73 82>
VStem: 1 33<419 437> 113 33<419 437>
Fore
73 510 m 0
 96 510 115 502 128 485 c 0
 140 470 146 450 146 425 c 0
 146 401 140 381 128 366 c 0
 115 349 96 340 73 340 c 0
 51 340 33 349 19 366 c 0
 7 381 1 400 1 424 c 0
 1 449 7 469 19 484 c 0
 32 502 50 510 73 510 c 0
73 479 m 0
 47 479 34 462 34 425 c 0
 34 389 47 371 73 371 c 0
 99 371 113 389 113 426 c 0
 113 462 99 479 73 479 c 0
EndSplineSet
EndChar
StartChar: guillemotright
Encoding: 125 187 249
OldEncoding: 187
Width: 398
VWidth: 2048
Flags: W
Fore
282 206 m 1
 173 10 l 1
 235 10 l 1
 371 206 l 1
 235 401 l 1
 172 401 l 1
 282 206 l 1
118 206 m 1
 5 10 l 1
 70 10 l 1
 203 206 l 1
 70 401 l 1
 5 401 l 1
 118 206 l 1
EndSplineSet
EndChar
StartChar: onequarter
Encoding: 126 188 250
OldEncoding: 188
Width: 635
VWidth: 2048
Flags: W
HStem: -17 21G<54 115> 43 35<414 501 556 596>
VStem: 85 56<242 488> 501 55<-9 43 78 237>
DStem: 471 489 532 489 54 -17 115 -17 510 237 501 164 355 84 414 78
Fore
54 -17 m 1
 471 489 l 1
 532 489 l 1
 115 -17 l 1
 54 -17 l 1
85 242 m 1
 85 424 l 1
 60 406 32 394 0 386 c 1
 0 427 l 1
 38 438 71 459 99 488 c 1
 141 488 l 1
 141 242 l 1
 85 242 l 1
501 -9 m 1
 501 43 l 1
 355 43 l 1
 355 84 l 1
 510 237 l 1
 556 237 l 1
 556 78 l 1
 596 78 l 1
 596 43 l 1
 556 43 l 1
 556 -9 l 1
 501 -9 l 1
501 78 m 1
 501 164 l 1
 414 78 l 1
 501 78 l 1
EndSplineSet
EndChar
StartChar: onehalf
Encoding: 127 189 251
OldEncoding: 189
Width: 635
VWidth: 2048
Flags: W
HStem: -19 40<467 586> -17 21G<55 116> 189 38<483.39 506>
VStem: 86 55<242 488> 394 192<-19 21> 537 48<151 162>
DStem: 472 490 533 490 55 -17 116 -17
Fore
55 -17 m 1x70
 472 490 l 1
 533 490 l 1
 116 -17 l 1
 55 -17 l 1x70
86 242 m 1
 86 424 l 1
 61 406 33 394 1 386 c 1
 1 427 l 1
 40 438 72 459 101 488 c 1
 141 488 l 1
 141 242 l 1
 86 242 l 1
394 -19 m 1xb8
 394 7 420 41 472 81 c 0
 515 114 537 138 537 153 c 0
 537 176 522 189 494 189 c 0
 471 189 455 176 447 153 c 1
 401 156 l 1
 412 203 444 227 495 227 c 0
 555 227 585 205 585 160 c 0xb4
 585 139 575 118 557 96 c 1
 504 52 l 1
 467 21 l 1
 586 21 l 1
 586 -19 l 1
 394 -19 l 1xb8
EndSplineSet
EndChar
StartChar: threequarters
Encoding: 128 190 252
OldEncoding: 190
Width: 635
VWidth: 2048
Flags: W
HStem: -17 21G<55 116> 42 35<415 502 557 597> 235 40<72 96> 356 35<73 90> 454 39<86 96>
VStem: 128 53<419 431> 140 53<307 321> 502 55<-9 42 77 237>
DStem: 472 489 533 489 55 -17 116 -17 511 237 502 163 356 84 415 77
Fore
-17 306 m 1xfb
 34 311 l 1
 41 287 58 275 86 275 c 0
 121 275 140 289 140 319 c 0xfb
 140 344 121 356 86 356 c 1
 73 354 l 1
 67 354 l 1
 73 391 l 1
 110 391 128 402 128 425 c 0
 128 444 114 454 86 454 c 0
 62 454 46 444 37 421 c 1
 -11 429 l 1
 3 471 36 493 86 493 c 0
 149 493 181 471 181 429 c 0xfd
 181 403 165 386 134 376 c 1
 173 366 193 345 193 311 c 0
 193 287 182 268 159 254 c 0
 139 241 116 235 89 235 c 0
 28 235 -7 259 -17 306 c 1xfb
55 -17 m 1
 472 489 l 1
 533 489 l 1
 116 -17 l 1
 55 -17 l 1
502 -9 m 1
 502 42 l 1
 356 42 l 1
 356 84 l 1
 511 237 l 1
 557 237 l 1
 557 77 l 1
 597 77 l 1
 597 42 l 1
 557 42 l 1
 557 -9 l 1
 502 -9 l 1
502 77 m 1
 502 163 l 1
 415 77 l 1
 502 77 l 1
EndSplineSet
EndChar
StartChar: questiondown
Encoding: 129 191 253
OldEncoding: 191
Width: 320
VWidth: 2048
Flags: W
HStem: -134 52<137 165>
VStem: -6 62<3 19> 118 67<311 382> 123 58<233 258>
Fore
185 382 m 1xe0
 185 311 l 1
 118 311 l 1
 118 382 l 1
 185 382 l 1xe0
181 258 m 1xd0
 181 240 l 2
 181 206 174 176 163 155 c 0
 154 138 134 118 106 92 c 0
 72 62 56 34 56 9 c 0
 56 -17 66 -38 84 -56 c 0
 103 -73 124 -82 149 -82 c 0
 203 -82 235 -49 246 19 c 1
 307 12 l 1
 295 -86 242 -134 150 -134 c 0
 108 -134 72 -122 44 -98 c 0
 11 -73 -6 -38 -6 5 c 0
 -6 45 19 88 69 134 c 0
 92 156 106 174 113 186 c 0
 120 202 123 226 123 258 c 1
 181 258 l 1xd0
EndSplineSet
EndChar
StartChar: caron
Encoding: 130 711 254
OldEncoding: 711
Width: 720
VWidth: 2048
Flags: W
DStem: 170 706 201 749 339 577 339 643 477 748 507 706 339 643 339 577
Fore
339 577 m 1
 170 706 l 1
 155 721 l 1
 153 731 l 1
 153 740 156 747 162 751 c 1
 166 756 173 758 180 758 c 0
 185 758 192 755 201 749 c 2
 339 643 l 1
 477 748 l 1
 486 755 493 758 498 758 c 0
 506 758 513 756 518 751 c 0
 522 746 525 740 525 731 c 0
 525 724 519 715 507 706 c 1
 339 577 l 1
EndSplineSet
EndChar
StartChar: ring
Encoding: 131 730 255
OldEncoding: 730
Width: 720
VWidth: 2048
Flags: W
HStem: 575 37<326.179 342> 760 38<325.314 342>
VStem: 225 37<674.533 689> 415 37<674.055 689>
Fore
452 686 m 0
 452 658 441 631 418 609 c 0
 397 586 371 575 339 575 c 0
 307 575 280 586 259 609 c 0
 236 632 225 658 225 686 c 0
 225 716 236 742 259 766 c 0
 280 786 306 798 339 798 c 0
 371 798 398 786 418 766 c 0
 441 744 452 716 452 686 c 0
415 686 m 0
 415 706 407 724 392 739 c 0
 376 754 358 760 339 760 c 0
 319 760 301 754 285 739 c 0
 270 724 262 707 262 686 c 0
 262 667 270 650 285 635 c 0
 301 619 319 612 339 612 c 0
 359 612 377 619 392 635 c 1
 407 649 415 666 415 686 c 0
EndSplineSet
EndChar
StartChar: uni0E01
Encoding: 132 3585 131
OldEncoding: 3585
Width: 410
Flags: W
HStem: 0 21G<63 111 304 351> 350 41<183 217>
VStem: 63 48<0 195> 304 47<0 273>
Fore
24 302 m 1
 34 316 54 336 84 358 c 0
 113 380 151 391 198 391 c 0
 226 391 252 386 276 377 c 0
 299 368 318 355 331 336 c 0
 345 316 351 293 351 267 c 2
 351 0 l 1
 304 0 l 1
 304 267 l 2
 304 284 299 298 289 311 c 0
 280 323 268 333 252 340 c 0
 236 347 218 350 199 350 c 0
 158 350 123 338 94 313 c 1
 101 312 112 307 128 301 c 0
 144 294 158 284 172 271 c 1
 162 269 149 262 134 251 c 0
 119 240 111 220 111 193 c 2
 111 0 l 1
 63 0 l 1
 63 191 l 2
 63 214 68 231 76 243 c 0
 85 254 96 263 108 269 c 1
 103 273 94 279 79 287 c 0
 64 295 45 301 24 302 c 1
EndSplineSet
EndChar
StartChar: uni0E02
Encoding: 133 3586 132
OldEncoding: 3586
Width: 416
Flags: W
HStem: 0 41<120 281> 226 36<87 99> 355 36<135 155> 364 20G<311 358>
VStem: 24 38<292 311> 132 35<288 297> 167 48<41 193> 208 44<289 300> 311 47<73 384>
Fore
137 391 m 0xed80
 160 391 181 386 198 377 c 0
 215 367 228 355 238 340 c 0
 247 325 252 310 252 293 c 0xed80
 252 278 251 267 247 259 c 0
 244 251 240 243 234 233 c 0
 227 223 223 215 219 207 c 0
 216 199 215 186 215 170 c 2xec80
 215 41 l 1xec80
 276 41 l 2
 290 41 301 43 305 47 c 0
 308 51 311 60 311 73 c 2
 311 384 l 1
 358 384 l 1xdc80
 358 73 l 2
 358 43 353 23 342 14 c 0
 331 5 308 0 276 0 c 2
 120 0 l 1
 120 41 l 1
 167 41 l 1
 167 176 l 2
 167 190 168 201 172 209 c 0
 174 216 179 224 185 234 c 0
 192 243 198 251 201 259 c 0
 205 267 207 277 208 289 c 0
 208 308 202 324 190 337 c 0
 177 349 162 355 145 355 c 0
 141 355 136 354 128 353 c 1
 134 351 142 346 153 337 c 0
 163 328 168 312 167 289 c 0
 167 269 158 253 145 243 c 0
 130 232 111 226 87 226 c 1
 45 232 24 260 24 311 c 1
 27 334 41 355 64 370 c 0
 88 384 112 391 137 391 c 0xed80
97 332 m 0
 86 332 77 329 71 322 c 0
 66 315 62 307 62 297 c 0
 62 288 66 280 71 273 c 0
 77 266 86 262 97 262 c 0
 108 262 118 266 123 273 c 0
 129 280 132 288 132 297 c 0
 132 307 129 315 123 322 c 0
 118 329 108 332 97 332 c 0
EndSplineSet
EndChar
StartChar: uni0E03
Encoding: 134 3587 133
OldEncoding: 3587
Width: 442
Flags: W
HStem: 0 41<146 312> 172 35<77.6842 90> 277 33<85 88> 364 20G<337 384>
VStem: 7 45<242 267> 122 36<239 250> 193 48<41 257> 235 41<316 326> 337 47<73 384>
Fore
276 319 m 0xfd80
 276 311 275 304 271 299 c 0
 268 295 264 290 259 285 c 0
 253 280 249 275 245 269 c 0
 242 263 241 255 241 245 c 2
 241 41 l 1
 302 41 l 2
 316 41 327 43 330 47 c 1
 334 51 337 60 337 73 c 2
 337 384 l 1
 384 384 l 1
 384 73 l 2
 384 43 379 23 368 14 c 0
 358 5 336 0 302 0 c 2
 146 0 l 1
 146 41 l 1
 193 41 l 1
 193 247 l 2xfe80
 193 261 194 271 198 279 c 0
 201 286 206 292 210 296 c 0
 214 299 220 304 228 310 c 0
 233 313 235 316 235 322 c 0
 235 328 232 336 224 344 c 0
 216 350 209 355 202 356 c 1
 156 324 l 1
 102 356 l 1
 86 353 73 344 66 331 c 0
 56 319 52 307 52 297 c 1
 53 299 58 302 63 305 c 0
 69 308 77 310 88 310 c 0
 107 308 124 303 138 293 c 0
 151 281 158 264 158 241 c 0
 158 219 150 202 136 190 c 0
 121 177 104 172 87 172 c 0
 64 172 44 181 29 198 c 0
 14 216 7 238 7 267 c 0
 7 284 9 301 15 315 c 1
 20 338 34 356 54 371 c 0
 73 384 92 391 106 391 c 1
 156 360 l 1
 200 391 l 1
 219 385 236 376 252 364 c 0
 268 351 276 336 276 319 c 0xfd80
87 277 m 0
 77 277 68 273 62 267 c 0
 55 260 52 252 52 242 c 0
 52 233 55 225 62 218 c 0
 68 210 77 207 87 207 c 0
 98 207 107 210 113 217 c 0
 119 225 122 233 122 242 c 0
 122 252 119 260 113 267 c 0
 107 273 98 277 87 277 c 0
EndSplineSet
EndChar
StartChar: uni0E04
Encoding: 135 3588 134
OldEncoding: 3588
Width: 414
Flags: W
HStem: 0 21G<97 144 308 356> 160 34<176.962 195> 264 35<175.837 197> 356 38<184 205>
VStem: 28 47<242 267> 97 47<0 174> 221 34<229 231> 308 48<0 272>
Fore
75 254 m 0
 75 241 79 225 87 208 c 0
 95 191 99 177 102 167 c 1
 102 203 l 2
 102 232 108 254 123 272 c 0
 138 290 159 299 186 299 c 0
 208 299 225 293 237 279 c 0
 250 266 255 249 255 229 c 0
 255 210 250 194 237 181 c 0
 225 167 208 160 186 160 c 0
 167 160 153 165 144 174 c 1
 144 0 l 1
 97 0 l 1
 97 69 l 2
 97 86 95 101 89 114 c 0
 84 127 75 142 62 162 c 0
 50 181 42 197 36 210 c 0
 31 223 28 238 28 257 c 0
 28 286 36 311 52 331 c 0
 68 353 88 368 114 379 c 0
 139 389 166 394 194 394 c 0
 238 394 276 382 307 359 c 0
 340 336 356 304 356 261 c 2
 356 0 l 1
 308 0 l 1
 308 257 l 2
 308 288 297 313 273 330 c 0
 250 347 223 356 191 356 c 0
 158 356 131 347 108 330 c 0
 86 313 75 287 75 254 c 0
186 264 m 0
 175 264 166 261 160 254 c 0
 155 247 151 240 151 229 c 0
 151 220 155 212 160 206 c 0
 166 198 175 194 186 194 c 0
 198 194 207 198 212 206 c 0
 218 212 221 220 221 229 c 0
 221 240 218 247 212 254 c 0
 207 261 198 264 186 264 c 0
EndSplineSet
EndChar
StartChar: uni0E05
Encoding: 136 3589 135
OldEncoding: 3589
Width: 414
Flags: W
HStem: 0 21G<97 144 308 356> 160 34<186 188> 264 35<186 188>
VStem: 28 47<242 255> 97 47<0 174> 221 34<229 231> 308 48<0 279>
DStem: 267 391 264 351 202 347 202 311
Fore
28 257 m 0
 28 282 38 308 60 333 c 0
 81 358 106 377 137 391 c 1
 202 347 l 1
 267 391 l 1
 327 363 356 319 356 261 c 2
 356 0 l 1
 308 0 l 1
 308 257 l 2
 308 273 307 288 305 299 c 0
 302 311 298 320 294 325 c 0
 290 331 285 336 279 340 c 0
 273 345 268 348 264 351 c 1
 202 311 l 1
 202 312 194 316 180 327 c 0
 165 337 151 345 141 351 c 1
 118 340 102 327 92 311 c 0
 81 294 76 276 75 254 c 0
 75 241 79 225 87 208 c 0
 95 191 99 177 102 167 c 1
 102 203 l 2
 102 232 108 254 123 272 c 0
 138 290 159 299 186 299 c 0
 208 299 225 293 237 279 c 0
 250 266 255 249 255 229 c 0
 255 210 250 194 237 181 c 0
 225 167 208 160 186 160 c 0
 167 160 153 165 144 174 c 1
 144 0 l 1
 97 0 l 1
 97 69 l 2
 97 86 95 101 89 114 c 0
 84 127 75 142 62 162 c 0
 50 181 42 197 36 210 c 0
 31 223 28 238 28 257 c 0
186 264 m 0
 175 264 166 261 160 254 c 0
 155 247 151 240 151 229 c 0
 151 220 155 212 160 206 c 0
 166 198 175 194 186 194 c 0
 198 194 207 198 212 206 c 0
 218 212 221 220 221 229 c 0
 221 240 218 247 212 254 c 0
 207 261 198 264 186 264 c 0
EndSplineSet
EndChar
StartChar: uni0E06
Encoding: 137 3590 136
OldEncoding: 3590
Width: 518
Flags: W
HStem: -7 40<183 188> 0 21G<412 460> 172 35<86.8365 100> 277 33<87.741 98> 364 20G<412 460>
VStem: 17 45<242 267> 114 40<72 90> 132 35<232 250> 202 48<44 130 166 249> 245 40<316 326> 412 48<0 10.7744 80 384>
Fore
202 167 m 1xbea0
 202 247 l 2xbea0
 202 260 205 271 208 279 c 0
 211 287 215 293 220 297 c 0
 225 301 231 305 238 310 c 0
 243 313 245 316 245 322 c 0
 245 329 242 336 234 344 c 0
 226 350 218 355 212 356 c 1
 165 324 l 1
 111 356 l 1
 96 353 85 344 75 331 c 0
 66 319 61 307 61 297 c 1
 63 299 67 302 72 305 c 0
 78 308 87 310 97 310 c 0
 116 308 133 303 147 292 c 0
 160 281 167 264 167 241 c 0
 167 219 159 202 145 190 c 0
 130 177 114 172 97 172 c 0
 73 172 54 181 40 198 c 0
 25 216 17 238 17 267 c 0
 17 282 19 298 24 315 c 0
 31 338 44 356 63 371 c 0
 82 384 101 391 115 391 c 1
 165 360 l 1
 210 391 l 1
 228 385 245 376 261 364 c 0
 277 351 285 336 285 319 c 0xbd60
 285 311 284 304 280 299 c 0
 277 295 273 290 268 285 c 0
 262 279 258 275 254 269 c 0
 251 263 250 255 250 245 c 2
 250 167 l 1
 275 165 298 159 321 149 c 0
 342 140 362 129 377 116 c 0
 393 103 405 90 412 80 c 1
 412 384 l 1
 460 384 l 1
 460 0 l 1
 412 0 l 1x7ca0
 412 15 406 32 391 51 c 0
 376 70 356 88 330 103 c 0
 305 118 278 127 250 130 c 1
 250 59 l 2
 250 38 244 23 234 11 c 0
 223 -1 207 -7 186 -7 c 0
 164 -7 146 1 133 18 c 0
 121 34 114 53 114 76 c 0
 114 99 122 121 138 139 c 0
 153 156 174 166 202 167 c 1xbea0
165 43 m 0
 171 36 177 33 185 33 c 0
 197 33 202 40 202 52 c 2
 202 132 l 1
 186 132 174 127 166 116 c 0
 158 105 154 93 154 78 c 0
 154 63 157 51 165 43 c 0
97 277 m 0
 86 277 77 273 71 267 c 0
 66 261 62 252 62 242 c 0
 62 233 66 225 71 217 c 0
 77 210 86 207 97 207 c 0
 108 207 118 210 123 217 c 0
 129 224 132 232 132 242 c 0x3d20
 132 252 129 261 123 267 c 0
 118 273 108 277 97 277 c 0
EndSplineSet
EndChar
StartChar: uni0E07
Encoding: 138 3591 137
OldEncoding: 3591
Width: 325
Flags: W
HStem: -8 43<195 209> 250 35<197 207> 354 35<197 204>
VStem: 128 34<320 322> 219 48<45 254> 233 34<317 322>
DStem: 17 241 54 261 144 26 182 47
Fore
219 53 m 2xf8
 219 254 l 1xf8
 214 251 207 250 197 250 c 0
 175 250 158 257 146 271 c 0
 133 285 128 301 128 320 c 0
 128 339 133 356 146 370 c 0
 158 382 175 389 197 389 c 0
 211 389 224 385 234 380 c 0
 244 374 253 365 259 355 c 0
 264 345 267 332 267 319 c 2xf4
 267 50 l 2
 267 32 261 17 250 7 c 0
 238 -3 224 -8 207 -8 c 0
 194 -8 183 -6 172 0 c 0
 162 6 150 14 144 26 c 2
 17 241 l 1
 54 261 l 1
 182 47 l 2
 186 40 193 35 202 35 c 0
 208 35 211 36 215 40 c 0
 218 43 219 47 219 53 c 2xf8
197 354 m 0
 186 354 177 350 172 344 c 0
 165 336 162 328 162 320 c 0
 162 311 165 303 171 296 c 0
 177 288 186 285 197 285 c 0
 208 285 217 288 224 296 c 0
 229 303 233 311 233 320 c 0xf4
 233 328 229 336 223 344 c 0
 216 350 207 354 197 354 c 0
EndSplineSet
EndChar
StartChar: uni0E08
Encoding: 139 3592 138
OldEncoding: 3592
Width: 386
Flags: W
HStem: 0 21G<280 328> 140 34<153.684 164> 243 37<152.184 169> 355 36<161 192>
VStem: 94 34<207 214> 280 48<0 25.4348 156 280>
Fore
163 280 m 0
 185 280 205 273 221 257 c 0
 238 240 250 220 261 197 c 0
 271 174 279 160 280 156 c 1
 280 264 l 2
 280 293 270 315 251 330 c 0
 231 346 206 355 175 355 c 0
 124 356 84 334 54 293 c 1
 24 316 l 1
 35 336 54 353 81 368 c 0
 108 383 140 391 176 391 c 0
 205 391 231 386 254 376 c 0
 277 366 295 353 307 333 c 0
 321 314 328 292 328 264 c 2
 328 0 l 1
 280 0 l 1
 280 21 278 45 272 70 c 0
 267 94 259 116 251 137 c 0
 242 157 233 172 225 182 c 1
 223 175 217 167 208 157 c 0
 198 147 183 141 163 140 c 0
 144 140 127 147 114 160 c 0
 101 174 94 191 94 212 c 0
 94 233 101 249 113 261 c 0
 125 273 141 280 163 280 c 0
163 243 m 0
 151 243 142 240 137 233 c 0
 131 226 128 218 128 209 c 0
 128 200 131 192 138 185 c 0
 144 177 153 174 163 174 c 0
 173 174 182 177 188 184 c 0
 193 191 197 199 197 209 c 0
 197 218 194 226 189 233 c 0
 183 240 174 243 163 243 c 0
EndSplineSet
EndChar
StartChar: uni0E09
Encoding: 140 3593 139
OldEncoding: 3593
Width: 442
Flags: W
HStem: -7 38<358 369> 0 21G<115 163> 130 34<94 105> 234 35<94 105> 354 37<212 231>
VStem: 24 35<196 202> 115 48<0 10.7617 0 198> 129 34<196 203> 313 47<36 128 164 271> 398 36<76 84>
Fore
163 198 m 2x7ec0
 163 82 l 1
 180 106 202 124 231 139 c 0
 258 153 285 162 313 165 c 1
 313 264 l 2
 313 293 304 315 286 330 c 0
 268 346 243 354 212 354 c 0
 186 354 163 347 141 334 c 0
 121 322 105 306 94 289 c 1
 63 313 l 1
 78 334 97 354 123 368 c 0
 149 383 180 391 212 391 c 0
 257 391 293 380 320 357 c 0
 347 336 360 304 360 264 c 2
 360 165 l 1
 384 160 403 150 416 136 c 0
 428 120 434 99 434 76 c 0
 434 52 427 32 412 17 c 0
 398 1 380 -7 358 -7 c 0xbec0
 345 -7 333 -2 325 6 c 0
 318 14 313 25 313 38 c 2
 313 128 l 1
 285 122 260 113 236 99 c 0
 212 85 194 69 182 51 c 0
 170 33 163 16 163 0 c 1
 115 0 l 1
 115 134 l 1
 111 131 104 130 94 130 c 0
 72 130 55 137 43 151 c 0
 31 165 24 181 24 200 c 0
 24 219 29 235 42 249 c 0
 54 262 71 269 94 269 c 0
 115 269 131 262 144 249 c 0
 156 235 163 218 163 198 c 2x7ec0
94 234 m 0
 82 234 73 231 68 224 c 0
 62 217 59 209 59 199 c 0
 59 189 62 181 68 174 c 0
 73 167 82 164 94 164 c 0
 105 164 114 167 120 174 c 0
 125 182 129 190 129 199 c 0x3dc0
 129 209 125 217 120 224 c 0
 114 231 105 234 94 234 c 0
398 76 m 0
 398 89 394 102 389 112 c 0
 382 121 373 127 360 128 c 1
 360 41 l 2
 360 34 363 31 367 31 c 0xbcc0
 375 31 383 35 389 44 c 0
 394 53 398 63 398 76 c 0
EndSplineSet
EndChar
StartChar: uni0E0A
Encoding: 141 3594 140
OldEncoding: 3594
Width: 416
Flags: W
HStem: 0 41<120 281> 226 36<87 99> 289 34<245 253> 355 36<135 155>
VStem: 24 38<295 311> 132 35<288 297> 167 48<41 178> 311 47<73 237>
Fore
304 308 m 1
 307 308 314 307 322 304 c 0
 330 301 338 294 346 281 c 0
 354 269 358 252 358 231 c 2
 358 73 l 2
 358 43 353 23 342 14 c 0
 331 5 308 0 276 0 c 2
 120 0 l 1
 120 41 l 1
 167 41 l 1
 167 176 l 2
 167 190 168 201 172 209 c 0
 174 216 179 224 185 234 c 0
 192 243 198 251 201 259 c 0
 205 267 207 277 208 289 c 0
 208 308 202 324 190 337 c 0
 177 349 162 355 145 355 c 0
 141 355 136 354 128 353 c 1
 134 351 142 346 153 337 c 0
 163 328 168 312 167 289 c 0
 167 269 158 253 145 243 c 0
 130 232 111 226 87 226 c 1
 45 232 24 260 24 311 c 1
 27 334 41 355 64 370 c 0
 88 384 112 391 137 391 c 0
 155 391 172 388 186 382 c 0
 201 376 214 367 224 357 c 0
 234 347 241 336 245 323 c 1
 257 323 275 329 298 341 c 0
 322 353 346 376 367 412 c 1
 401 391 l 1
 389 365 373 345 353 332 c 0
 331 320 315 312 304 308 c 1
251 289 m 1
 251 277 250 266 246 258 c 0
 243 250 240 241 234 233 c 0
 228 224 223 215 219 206 c 0
 216 197 215 184 215 170 c 2
 215 41 l 1
 276 41 l 2
 290 41 301 43 305 47 c 0
 308 51 311 60 311 73 c 2
 311 221 l 2
 311 267 290 289 251 289 c 1
97 332 m 0
 86 332 77 329 71 322 c 0
 66 315 62 307 62 297 c 0
 62 288 66 280 71 273 c 0
 77 266 86 262 97 262 c 0
 108 262 118 266 123 273 c 0
 129 280 132 288 132 297 c 0
 132 307 129 315 123 322 c 0
 118 329 108 332 97 332 c 0
EndSplineSet
EndChar
StartChar: uni0E0B
Encoding: 142 3595 141
OldEncoding: 3595
Width: 442
Flags: W
HStem: 0 41<146 312> 172 35<77.6842 90> 277 33<85 88>
VStem: 7 45<242 267> 122 36<239 250> 193 48<41 257> 337 47<73 247>
Fore
276 330 m 1
 288 333 307 341 331 356 c 0
 355 370 376 392 393 424 c 1
 428 401 l 1
 419 384 407 367 392 355 c 0
 376 341 363 333 351 328 c 0
 339 321 331 316 325 315 c 1
 336 314 348 307 363 297 c 0
 377 286 384 263 384 231 c 2
 384 73 l 2
 384 43 379 23 368 14 c 0
 358 5 336 0 302 0 c 2
 146 0 l 1
 146 41 l 1
 193 41 l 1
 193 247 l 2
 193 266 197 278 202 286 c 0
 208 294 217 302 228 310 c 0
 233 313 235 316 235 322 c 0
 235 328 232 336 224 344 c 0
 216 350 209 355 202 356 c 1
 156 324 l 1
 102 356 l 1
 86 353 73 344 66 331 c 0
 56 319 52 307 52 297 c 1
 53 299 58 302 63 305 c 0
 69 308 77 310 88 310 c 0
 107 308 124 303 138 293 c 0
 151 281 158 264 158 241 c 0
 158 219 150 202 136 190 c 0
 121 177 104 172 87 172 c 0
 64 172 44 181 29 198 c 0
 14 216 7 238 7 267 c 0
 7 284 9 301 15 315 c 1
 20 338 34 356 54 371 c 0
 73 384 92 391 106 391 c 1
 156 360 l 1
 200 391 l 1
 217 388 231 382 241 373 c 0
 252 364 261 355 267 345 c 0
 272 336 276 331 276 330 c 1
 276 330 l 1
271 297 m 1
 268 294 264 289 259 285 c 0
 252 280 247 276 245 270 c 0
 242 264 241 257 241 245 c 2
 241 41 l 1
 302 41 l 2
 316 41 327 43 330 47 c 1
 334 51 337 60 337 73 c 2
 337 231 l 2
 337 275 315 297 271 297 c 1
87 277 m 0
 77 277 68 273 62 267 c 0
 55 260 52 252 52 242 c 0
 52 233 55 225 62 218 c 0
 68 210 77 207 87 207 c 0
 98 207 107 210 113 217 c 0
 119 225 122 233 122 242 c 0
 122 252 119 260 113 267 c 0
 107 273 98 277 87 277 c 0
EndSplineSet
EndChar
StartChar: uni0E0C
Encoding: 143 3596 142
OldEncoding: 3596
Width: 536
Flags: W
HStem: -7 35<124 136> -7 43<268 280> 0 21G<431 478> 97 35<123 136> 356 35<172 203> 364 20G<431 478>
VStem: 63 35<63 71> 63 48<63 218> 168 33<63 71> 219 33<56 74> 278 47<44 103 140 284> 431 47<69 384>
Fore
111 202 m 2x59f0
 111 128 l 1x59f0
 114 131 122 132 134 132 c 0
 156 132 172 125 184 112 c 0
 195 98 201 82 201 63 c 0
 201 44 195 28 184 15 c 0
 172 0 156 -7 134 -7 c 0
 114 -7 97 0 84 12 c 0
 70 25 63 42 63 63 c 2x9af0
 63 200 l 2
 63 244 79 271 111 282 c 1
 105 287 94 294 79 302 c 0
 64 310 45 315 24 321 c 1
 33 333 51 348 77 365 c 0
 103 382 139 391 184 391 c 0x99f0
 278 391 325 355 325 282 c 2
 325 140 l 1
 342 137 362 129 382 116 c 0
 403 103 419 87 431 69 c 1
 431 384 l 1
 478 384 l 1
 478 0 l 1
 431 0 l 1x35f0
 426 11 420 23 414 35 c 0
 406 46 394 59 380 72 c 0
 365 85 347 95 325 103 c 1
 325 43 l 2
 325 10 311 -7 280 -7 c 0
 261 -7 246 1 235 16 c 0
 225 31 219 49 219 70 c 0
 219 89 225 106 235 120 c 0
 245 133 259 140 278 141 c 1
 278 282 l 2
 278 306 270 325 254 338 c 0
 238 350 217 356 191 356 c 0
 158 356 124 347 92 328 c 1
 99 325 111 320 128 312 c 0
 145 304 159 294 174 280 c 1
 168 280 162 279 153 276 c 0
 144 272 134 266 124 254 c 0
 115 242 111 225 111 202 c 2x59f0
278 45 m 1
 278 108 l 1
 261 105 252 92 252 66 c 0
 252 58 254 51 259 45 c 0
 262 40 267 36 270 36 c 0
 275 36 277 40 278 45 c 1
133 28 m 0x92f0
 145 28 154 32 159 38 c 0
 165 45 168 53 168 63 c 0
 168 72 165 80 159 87 c 0
 153 94 144 97 133 97 c 0
 123 97 114 94 108 87 c 0
 102 80 98 72 98 63 c 0
 98 53 102 45 107 38 c 0
 114 32 123 28 133 28 c 0x92f0
EndSplineSet
EndChar
StartChar: uni0E0D
Encoding: 144 3597 143
OldEncoding: 3597
Width: 536
Flags: W
HStem: -192 34<330 345> -134 21G<288.5 298> -73 36<293 298> -27 20G<124 145> 0 41<231 410> 97 35<123 136> 356 35<172 203> 364 20G<431 478>
VStem: 63 35<63 65> 63 48<63 209> 168 33<53.5954 66> 226 35<-108 -102> 278 47<41 289> 323 36<-104 -95> 431 47<-40 -40 73 384>
Fore
478 -40 m 1xfc36
 478 -73 471 -102 459 -124 c 0
 446 -148 429 -165 408 -175 c 0
 386 -186 365 -192 341 -192 c 0
 311 -192 284 -183 261 -167 c 0
 237 -150 226 -131 226 -106 c 0
 226 -88 232 -72 243 -58 c 0
 253 -44 271 -36 295 -37 c 0
 316 -37 332 -45 342 -58 c 0
 354 -70 359 -86 359 -104 c 0
 359 -115 357 -125 351 -136 c 0
 346 -146 339 -153 330 -158 c 1
 355 -158 377 -150 399 -136 c 0
 420 -121 431 -88 431 -40 c 1
 478 -40 l 1xfc36
63 63 m 2xfeb2
 63 200 l 2
 63 244 79 271 111 282 c 1
 105 287 94 294 79 302 c 0
 64 310 45 315 24 321 c 1
 33 333 51 348 77 365 c 0
 103 382 139 391 184 391 c 0xfe72
 278 391 325 355 325 282 c 2
 325 41 l 1
 396 41 l 2
 410 41 420 43 424 47 c 1
 428 51 431 60 431 73 c 2
 431 384 l 1
 478 384 l 1xfd7a
 478 73 l 2
 478 52 476 36 471 26 c 0
 467 16 459 9 447 6 c 0
 436 2 419 0 396 0 c 2
 231 0 l 1
 231 41 l 1
 278 41 l 1
 278 282 l 2
 278 306 270 325 254 338 c 0
 238 350 217 356 191 356 c 0
 158 356 124 347 92 328 c 1
 99 325 111 320 128 312 c 0
 145 304 159 294 174 280 c 1
 168 280 162 279 153 276 c 0
 144 272 134 266 124 254 c 0
 115 242 111 225 111 202 c 2
 111 128 l 1xfe7a
 114 131 122 132 134 132 c 0
 156 132 172 125 184 112 c 0
 195 98 201 82 201 63 c 0
 201 44 195 28 184 15 c 0
 172 0 156 -7 134 -7 c 0
 114 -7 97 0 84 12 c 0
 70 25 63 42 63 63 c 2xfeb2
293 -134 m 0
 303 -134 310 -131 315 -125 c 0
 321 -120 323 -112 323 -104 c 0xfc36
 323 -96 321 -89 315 -82 c 0
 310 -77 303 -73 293 -73 c 0
 282 -73 276 -77 270 -82 c 0
 264 -88 261 -96 261 -104 c 0
 261 -112 264 -120 270 -125 c 0
 276 -131 284 -134 293 -134 c 0
133 28 m 0
 145 28 154 32 159 38 c 0
 165 45 168 53 168 63 c 0
 168 72 165 80 159 87 c 0
 153 94 144 97 133 97 c 0
 123 97 114 94 108 87 c 0
 102 80 98 72 98 63 c 0xfcb2
 98 53 102 45 107 38 c 0
 114 32 123 28 133 28 c 0
EndSplineSet
Substitution: 0 65534 'ndsc' uni0E0D.descless
EndChar
StartChar: uni0E0E
Encoding: 145 3598 144
OldEncoding: 3598
Width: 456
Flags: W
HStem: -195 44<138 149> -80 42<155 164> -7 35<88 92> 97 35<88 92> 350 41<226 260>
VStem: 19 34<63 65> 111 47<128 206> 124 34<59 65> 351 47<-130 273>
AnchorPoint: "BelowBase" 398 -224 basechar 0
Fore
111 128 m 1xfe80
 111 191 l 2
 111 206 113 219 118 231 c 0
 121 241 127 250 133 255 c 0
 140 261 148 266 156 269 c 1
 150 273 140 279 125 287 c 0
 111 295 92 301 70 302 c 1
 80 316 101 336 131 358 c 0
 162 380 199 391 245 391 c 0
 289 391 327 381 355 359 c 0
 383 338 398 307 398 267 c 2
 398 -193 l 1
 351 -193 l 1
 336 -172 318 -154 298 -139 c 0
 279 -124 263 -115 253 -110 c 1
 247 -131 234 -150 214 -168 c 0
 193 -186 170 -197 141 -195 c 0
 118 -195 99 -188 85 -173 c 0
 70 -158 63 -139 63 -115 c 0
 64 -90 73 -71 90 -58 c 0
 107 -45 129 -38 155 -38 c 0
 176 -38 200 -43 225 -51 c 1
 226 -47 228 -42 231 -32 c 0
 233 -24 234 -12 235 0 c 1
 278 -9 l 1
 277 -21 276 -34 272 -45 c 0
 270 -55 268 -63 267 -69 c 1
 285 -78 302 -88 319 -101 c 0
 336 -113 346 -122 351 -130 c 1
 351 267 l 2
 351 284 347 298 337 311 c 0
 328 323 315 333 299 340 c 0
 284 347 266 350 246 350 c 0
 206 350 171 338 141 313 c 1
 148 312 159 307 175 301 c 0
 191 294 206 284 219 271 c 1
 209 269 197 262 182 251 c 0
 166 240 158 220 158 193 c 2xfe80
 158 61 l 2xfd80
 158 42 153 26 140 14 c 0
 128 0 110 -7 88 -7 c 0
 67 -7 51 0 38 14 c 0
 26 27 19 44 19 63 c 0
 19 82 25 98 37 112 c 0
 50 125 67 132 88 132 c 0
 97 132 105 131 111 128 c 1xfe80
172 -146 m 0
 183 -140 192 -131 199 -119 c 0
 206 -106 210 -97 212 -90 c 1
 191 -84 172 -80 155 -80 c 0
 123 -80 107 -92 107 -115 c 0
 107 -121 108 -127 111 -132 c 0
 116 -145 129 -151 149 -151 c 0
 157 -151 164 -149 172 -146 c 0
88 28 m 0
 99 28 108 32 115 38 c 0
 121 45 124 53 124 63 c 0xfd80
 124 72 121 80 115 87 c 0
 108 94 99 97 88 97 c 0
 78 97 69 94 63 87 c 0
 56 79 53 71 53 63 c 0
 53 54 56 46 63 40 c 0
 69 32 78 28 88 28 c 0
EndSplineSet
EndChar
StartChar: uni0E0F
Encoding: 146 3599 145
OldEncoding: 3599
Width: 456
Flags: W
HStem: -195 37<123 135> -98 37<121 142> -7 35<88 90> 97 35<88 99> 350 41<226 260>
VStem: 19 34<63 65> 59 40<-133 -119> 111 47<128 206> 124 34<59 65> 351 47<-137 273>
DStem: 297 -82 299 -130 247 -134 243 -195 299 -130 297 -82 351 -193 351 -137
AnchorPoint: "BelowBase" 399 -224 basechar 0
Fore
111 128 m 1xff40
 111 191 l 2
 111 206 113 219 118 231 c 0
 121 241 127 250 133 255 c 0
 140 261 148 266 156 269 c 1
 150 273 140 279 125 287 c 0
 111 295 92 301 70 302 c 1
 80 316 101 336 131 358 c 0
 162 380 199 391 245 391 c 0
 289 391 327 381 355 359 c 0
 383 338 398 307 398 267 c 2
 398 -193 l 1
 351 -193 l 1
 299 -130 l 1
 243 -195 l 1
 237 -185 231 -175 223 -165 c 0
 215 -155 208 -147 202 -141 c 1
 198 -150 189 -162 176 -175 c 0
 163 -189 145 -195 123 -195 c 0
 104 -195 88 -189 77 -175 c 0
 64 -163 59 -144 59 -120 c 1
 61 -101 68 -86 80 -76 c 0
 93 -66 108 -61 128 -61 c 0
 149 -61 168 -68 188 -80 c 1
 190 -73 193 -62 198 -46 c 0
 202 -32 206 -16 207 0 c 1
 247 -9 l 1
 246 -21 242 -38 236 -60 c 0
 231 -81 225 -97 220 -106 c 1
 221 -106 231 -115 247 -134 c 1
 297 -82 l 1
 351 -137 l 1
 351 267 l 2
 351 284 347 298 337 311 c 0
 328 323 315 333 299 340 c 0
 284 347 266 350 246 350 c 0
 206 350 171 338 141 313 c 1
 148 312 159 307 175 301 c 0
 191 294 206 284 219 271 c 1
 209 269 197 262 182 251 c 0
 166 240 158 220 158 193 c 2xff40
 158 61 l 2xfec0
 158 42 153 26 140 14 c 0
 128 0 110 -7 88 -7 c 0
 67 -7 51 0 38 14 c 0
 26 27 19 44 19 63 c 0
 19 82 25 98 37 112 c 0
 50 125 67 132 88 132 c 0
 98 132 105 131 111 128 c 1xff40
144 -153 m 0
 151 -147 157 -139 163 -131 c 0
 168 -123 172 -116 173 -113 c 1
 159 -103 146 -98 131 -98 c 0
 114 -98 103 -105 99 -119 c 1
 99 -144 108 -157 128 -158 c 0
 133 -158 139 -156 144 -153 c 0
88 28 m 0
 99 28 108 32 115 38 c 0
 121 45 124 53 124 63 c 0xfec0
 124 72 121 80 115 87 c 0
 108 94 99 97 88 97 c 0
 78 97 69 94 63 87 c 0
 56 79 53 71 53 63 c 0
 53 54 56 46 63 40 c 0
 69 32 78 28 88 28 c 0
EndSplineSet
EndChar
StartChar: uni0E10
Encoding: 147 3600 146
OldEncoding: 3600
Width: 364
Flags: W
HStem: -145 27<252 259> -132 30<63 81> -63 28<252 259> 0 21G<250 306> 97 34<141 149> 201 35<141 149> 319 41<301 321> 353 38<167 189>
VStem: 16 30<-158 -152> 72 34<166 168> 197 28<-94 -88> 259 47<94 203> 264 42<-156 -92> 279 27<-94 -88>
Fore
141 236 m 0x3de4
 156 236 170 232 183 224 c 0
 195 216 206 205 212 191 c 2
 259 94 l 1
 259 186 l 2
 259 215 254 234 244 244 c 0
 235 254 218 263 193 271 c 0
 166 279 139 285 111 289 c 0
 82 295 62 298 47 299 c 1
 62 325 81 347 103 365 c 0
 124 382 149 391 176 391 c 0x3df0
 191 391 205 390 215 388 c 0
 226 384 238 381 253 375 c 0
 268 370 279 366 287 364 c 0
 295 362 304 360 312 360 c 0
 325 360 339 364 351 370 c 1
 360 330 l 1
 341 322 324 319 310 319 c 0x3ef0
 299 319 290 320 282 322 c 0
 275 324 263 329 246 334 c 0
 231 340 218 345 208 348 c 0
 198 351 188 353 177 353 c 0
 166 353 155 349 142 344 c 0
 130 337 124 331 123 328 c 1
 128 327 136 325 146 322 c 0
 156 319 170 315 186 311 c 0
 203 307 216 304 224 302 c 0
 260 293 284 280 293 264 c 0
 303 247 306 223 306 189 c 2x3df0
 306 0 l 1
 250 0 l 1
 246 24 238 47 227 73 c 0
 216 99 207 119 200 131 c 1
 197 121 189 113 177 106 c 0
 167 101 155 97 141 97 c 0
 120 97 103 104 90 118 c 0
 78 132 72 148 72 166 c 0
 72 185 78 202 90 216 c 0
 103 229 120 236 141 236 c 0x3de4
260 -167 m 2
 261 -166 262 -162 263 -156 c 0
 264 -150 264 -147 264 -144 c 1
 263 -144 262 -144 260 -144 c 0
 259 -144 255 -144 252 -145 c 0
 235 -145 221 -139 211 -129 c 0
 201 -119 197 -106 197 -92 c 0
 197 -77 202 -64 212 -52 c 0
 223 -41 235 -35 252 -35 c 0
 269 -35 281 -40 292 -50 c 0
 302 -60 306 -73 306 -92 c 2xbce8
 306 -158 l 2
 306 -166 305 -173 303 -177 c 0
 299 -182 296 -185 290 -189 c 0
 285 -192 279 -197 273 -200 c 2
 241 -219 l 1
 198 -191 l 1
 153 -217 l 1
 130 -176 l 1
 119 -200 98 -214 69 -212 c 0
 34 -211 15 -191 16 -154 c 0
 16 -139 23 -127 34 -116 c 0
 45 -106 59 -102 75 -102 c 0x7ce4
 89 -102 103 -106 118 -115 c 1
 119 -111 121 -103 124 -90 c 0
 127 -78 128 -61 128 -40 c 1
 163 -40 l 1
 163 -78 157 -112 145 -142 c 1
 163 -170 l 1
 163 -170 167 -167 176 -163 c 0
 184 -157 192 -154 198 -150 c 1
 243 -179 l 1
 260 -167 l 2
252 -118 m 0
 260 -118 267 -115 272 -110 c 0
 277 -104 279 -98 279 -90 c 0xbce4
 279 -82 277 -77 272 -71 c 0
 267 -66 260 -63 252 -63 c 0
 243 -63 236 -66 233 -71 c 1
 227 -77 225 -82 225 -90 c 0
 225 -97 227 -104 233 -110 c 1
 236 -115 243 -118 252 -118 c 0
141 131 m 0
 153 131 162 134 167 141 c 0
 173 149 176 157 176 166 c 0
 176 176 173 184 167 191 c 0
 162 198 153 201 141 201 c 0
 131 201 122 198 116 191 c 0
 110 184 106 176 106 166 c 0
 106 157 110 149 116 142 c 0
 122 134 131 131 141 131 c 0
73 -132 m 0x7ce0
 64 -132 58 -134 53 -140 c 0
 49 -146 46 -151 46 -158 c 0
 46 -164 49 -170 53 -174 c 0
 58 -180 64 -182 73 -182 c 0
 80 -182 86 -180 92 -175 c 0
 97 -171 101 -166 104 -160 c 0
 106 -155 107 -151 108 -150 c 1
 106 -147 102 -144 96 -139 c 0
 90 -134 82 -132 73 -132 c 0x7ce0
EndSplineSet
Substitution: 0 65534 'ndsc' uni0E10.descless
EndChar
StartChar: uni0E11
Encoding: 148 3601 147
OldEncoding: 3601
Width: 532
Flags: W
HStem: 0 21G<193 241 426 473> 172 35<77.6842 90> 277 33<85 88> 341 43<396 403>
VStem: 7 45<242 267> 122 36<239 252> 193 48<0 24.3511 0 257> 235 41<316 326> 426 47<0 313>
Fore
193 0 m 1xfe80
 193 247 l 2xfe80
 193 261 194 271 198 279 c 0
 201 286 206 292 210 296 c 0
 214 299 220 304 228 310 c 0
 233 313 235 316 235 322 c 0
 235 328 232 336 224 344 c 0
 216 350 209 355 202 356 c 1
 156 324 l 1
 102 356 l 1
 86 353 73 344 66 331 c 0
 56 319 52 307 52 297 c 1
 53 299 58 302 63 305 c 0
 69 308 77 310 88 310 c 0
 107 308 124 303 138 293 c 0
 151 281 158 264 158 241 c 0
 158 219 150 202 136 190 c 0
 121 177 104 172 87 172 c 0
 64 172 44 181 29 198 c 0
 14 216 7 238 7 267 c 0
 7 284 9 301 15 315 c 1
 20 338 34 356 54 371 c 0
 73 384 92 391 106 391 c 1
 156 360 l 1
 200 391 l 1
 219 385 236 376 252 364 c 0
 268 351 276 336 276 319 c 0xfd80
 276 311 275 304 271 299 c 0
 268 295 264 290 259 285 c 0
 253 280 249 275 245 269 c 0
 242 263 241 255 241 245 c 2
 241 184 l 1
 246 199 255 221 269 252 c 0
 282 282 303 312 325 340 c 0
 349 370 373 384 401 384 c 0
 425 384 443 375 455 358 c 0
 468 341 473 321 473 297 c 2
 473 0 l 1
 426 0 l 1
 426 297 l 2
 426 327 417 341 398 341 c 0
 385 341 370 330 353 306 c 0
 336 282 318 253 301 217 c 0
 282 180 268 142 258 104 c 0
 246 66 241 31 241 0 c 1
 193 0 l 1xfe80
87 277 m 0
 77 277 68 273 62 267 c 0
 55 260 52 252 52 242 c 0
 52 233 55 225 62 218 c 0
 68 210 77 207 87 207 c 0
 98 207 107 210 113 217 c 0
 119 225 122 233 122 242 c 0
 122 252 119 260 113 267 c 0
 107 273 98 277 87 277 c 0
EndSplineSet
EndChar
StartChar: uni0E12
Encoding: 149 3602 148
OldEncoding: 3602
Width: 567
Flags: W
HStem: -7 43<299 311> 0 21G<92 139 462 508> 258 35<193 202> 364 20G<462 508>
VStem: 27 42<232 252> 123 35<216 226> 228 34<216 227> 250 32<57 74> 308 48<44 103 140 275> 462 46<69 384>
DStem: 267 391 264 351 202 347 202 311
Fore
308 141 m 1xbdc0
 308 254 l 2
 308 280 306 299 301 313 c 0
 295 327 282 339 264 351 c 1
 202 311 l 1
 202 312 194 316 180 327 c 0
 165 337 151 345 141 351 c 1
 93 327 69 292 69 245 c 0
 69 215 80 179 104 139 c 0
 119 113 127 95 127 87 c 1
 134 104 144 119 153 131 c 0
 162 144 168 151 174 156 c 1
 158 160 146 170 137 182 c 0
 128 194 123 209 123 224 c 0
 123 243 129 259 141 272 c 0
 154 286 172 293 193 293 c 0
 215 293 232 286 244 271 c 0
 257 257 262 241 262 221 c 0
 262 210 260 201 257 193 c 0
 253 185 247 177 242 172 c 0
 236 166 229 159 223 151 c 0
 208 134 195 119 185 104 c 0
 175 89 165 73 157 56 c 0
 149 40 142 20 139 0 c 1
 92 0 l 1
 97 9 99 19 99 31 c 0
 99 42 95 59 87 82 c 0
 85 90 78 105 67 128 c 0
 54 150 44 171 37 190 c 0
 31 209 27 229 27 252 c 0
 28 284 40 311 60 334 c 0
 80 358 106 377 137 391 c 1
 202 347 l 1
 267 391 l 1
 293 379 312 366 324 354 c 0
 337 341 345 328 349 313 c 0
 354 298 356 278 356 254 c 2
 356 140 l 1
 373 137 392 129 414 116 c 0
 435 103 451 87 462 69 c 1
 462 384 l 1
 508 384 l 1
 508 0 l 1
 462 0 l 1x7ec0
 436 54 401 88 356 103 c 1
 356 43 l 2
 356 10 341 -7 311 -7 c 0
 292 -7 277 1 267 16 c 0
 255 31 250 49 250 70 c 0
 250 89 255 106 266 120 c 0
 276 133 290 140 308 141 c 1xbdc0
193 258 m 0
 183 258 174 254 167 247 c 0
 162 240 158 232 158 223 c 0
 158 214 162 206 167 199 c 0
 174 191 183 188 193 188 c 0
 205 188 214 191 219 198 c 0
 225 205 228 212 228 223 c 0
 228 233 225 241 219 247 c 0
 214 254 205 258 193 258 c 0
308 45 m 1
 308 108 l 1
 292 105 282 92 282 66 c 0
 282 58 285 51 288 45 c 0
 293 40 297 36 301 36 c 0xbdc0
 304 36 307 40 308 45 c 1
EndSplineSet
EndChar
StartChar: uni0E13
Encoding: 150 3603 149
OldEncoding: 3603
Width: 553
Flags: W
HStem: -8 39<471 482> -7 35<124 136> 0 21G<278 325> 97 35<123 136> 356 35<172 203> 364 20G<424 471>
VStem: 63 35<63 70> 63 48<63 217> 168 33<63 70> 278 47<0 297> 424 47<35 124 163 384> 510 35<78 89>
Fore
63 63 m 2x5af0
 63 200 l 2
 63 244 79 271 111 282 c 1
 105 287 94 294 79 302 c 0
 64 310 45 315 24 321 c 1
 33 333 51 348 77 365 c 0
 103 382 139 391 184 391 c 0x59f0
 278 391 325 355 325 282 c 2
 325 82 l 1
 351 123 384 150 424 163 c 1
 424 384 l 1
 471 384 l 1
 471 166 l 1
 494 163 512 155 525 140 c 0
 538 125 545 104 545 78 c 0
 545 50 537 29 522 15 c 0
 507 0 490 -8 471 -8 c 0x95f0
 458 -8 446 -5 437 3 c 0
 428 11 424 21 424 35 c 2
 424 124 l 1
 397 114 374 95 357 68 c 0
 339 41 329 18 325 0 c 1
 278 0 l 1
 278 282 l 2
 278 306 270 325 254 338 c 0
 238 350 217 356 191 356 c 0
 158 356 124 347 92 328 c 1
 99 325 111 320 128 312 c 0
 145 304 159 294 174 280 c 1
 168 280 162 279 153 276 c 0
 144 272 134 266 124 254 c 0
 115 242 111 225 111 202 c 2
 111 128 l 1x39f0
 114 131 122 132 134 132 c 0
 156 132 172 125 184 112 c 0
 195 98 201 82 201 63 c 0
 201 44 195 28 184 15 c 0
 172 0 156 -7 134 -7 c 0
 114 -7 97 0 84 12 c 0
 70 25 63 42 63 63 c 2x5af0
471 43 m 2
 471 35 475 31 480 31 c 0x90f0
 487 31 494 35 499 44 c 0
 506 52 510 63 510 78 c 0
 510 108 497 127 471 130 c 1
 471 43 l 2
133 28 m 0x52f0
 145 28 154 32 159 38 c 0
 165 45 168 53 168 63 c 0
 168 72 165 80 159 87 c 0
 153 94 144 97 133 97 c 0
 123 97 114 94 108 87 c 0
 102 80 98 72 98 63 c 0
 98 53 102 45 107 38 c 0
 114 32 123 28 133 28 c 0x52f0
EndSplineSet
EndChar
StartChar: uni0E14
Encoding: 151 3604 150
OldEncoding: 3604
Width: 414
Flags: W
HStem: 0 21G<92 139 308 356> 258 35<193 202> 358 35<202 225>
VStem: 123 35<219 226> 228 34<219 227> 308 48<0 275>
Fore
70 250 m 0
 69 216 81 180 104 141 c 0
 118 118 124 98 124 82 c 1
 133 101 142 116 153 129 c 0
 162 141 168 150 174 156 c 1
 158 160 146 170 137 182 c 0
 128 194 123 209 123 224 c 0
 123 243 129 259 141 272 c 0
 154 286 172 293 193 293 c 0
 215 293 232 286 244 271 c 0
 257 257 262 241 262 221 c 0
 262 210 260 201 257 193 c 0
 253 185 247 177 242 172 c 0
 236 166 229 159 223 151 c 0
 208 134 195 119 185 104 c 0
 175 89 165 73 157 56 c 0
 149 40 142 20 139 0 c 1
 92 0 l 1
 97 9 99 19 99 31 c 0
 99 42 95 59 87 82 c 0
 84 92 77 107 66 129 c 0
 53 151 44 172 38 191 c 0
 32 210 27 231 28 252 c 0
 29 290 46 324 76 353 c 0
 104 380 147 393 202 393 c 4
 305 393 356 347 356 254 c 2
 356 0 l 1
 308 0 l 1
 308 257 l 2
 308 287 302 311 288 330 c 0
 275 349 246 358 202 358 c 0
 165 358 133 348 108 328 c 0
 84 307 70 281 70 250 c 0
193 258 m 0
 183 258 174 254 167 247 c 0
 162 240 158 232 158 223 c 0
 158 214 162 206 167 199 c 0
 174 191 183 188 193 188 c 0
 205 188 214 191 219 198 c 0
 225 205 228 212 228 223 c 0
 228 233 225 241 219 247 c 0
 214 254 205 258 193 258 c 0
EndSplineSet
EndChar
StartChar: uni0E15
Encoding: 152 3605 151
OldEncoding: 3605
Width: 414
Flags: W
HStem: 0 21G<92 139 308 356> 258 35<193 202>
VStem: 27 42<239 252> 123 35<219 226> 228 34<219 227> 308 48<0 275>
DStem: 267 391 264 351 202 347 202 311
Fore
127 87 m 1
 134 104 144 119 153 131 c 0
 162 144 168 151 174 156 c 1
 158 160 146 170 137 182 c 0
 128 194 123 209 123 224 c 0
 123 243 129 259 141 272 c 0
 154 286 172 293 193 293 c 0
 215 293 232 286 244 271 c 0
 257 257 262 241 262 221 c 0
 262 210 260 201 257 193 c 0
 253 185 247 177 242 172 c 0
 236 166 229 159 223 151 c 0
 208 134 195 119 185 104 c 0
 175 89 165 73 157 56 c 0
 149 40 142 20 139 0 c 1
 92 0 l 1
 97 9 99 19 99 31 c 0
 99 42 95 59 87 82 c 0
 85 90 78 105 67 128 c 0
 54 150 44 171 37 190 c 0
 31 209 27 229 27 252 c 0
 28 284 40 311 60 334 c 0
 80 358 106 377 137 391 c 1
 202 347 l 1
 267 391 l 1
 293 379 312 366 324 354 c 0
 337 341 345 328 349 313 c 0
 354 298 356 278 356 254 c 2
 356 0 l 1
 308 0 l 1
 308 254 l 2
 308 280 306 299 301 313 c 0
 295 327 282 339 264 351 c 1
 202 311 l 1
 202 312 194 316 180 327 c 0
 165 337 151 345 141 351 c 1
 93 327 69 292 69 245 c 0
 69 215 80 179 104 139 c 0
 119 113 127 95 127 87 c 1
193 258 m 0
 183 258 174 254 167 247 c 0
 162 240 158 232 158 223 c 0
 158 214 162 206 167 199 c 0
 174 191 183 188 193 188 c 0
 205 188 214 191 219 198 c 0
 225 205 228 212 228 223 c 0
 228 233 225 241 219 247 c 0
 214 254 205 258 193 258 c 0
EndSplineSet
EndChar
StartChar: uni0E16
Encoding: 153 3606 152
OldEncoding: 3606
Width: 410
Flags: W
HStem: -7 35<126 136> 0 21G<304 351> 97 35<126 136> 350 41<182 217>
VStem: 63 35<63 65> 63 48<63 202> 168 33<63 65> 304 47<0 273>
Fore
63 63 m 2xbb
 63 191 l 2
 63 214 68 231 76 243 c 0
 85 254 96 263 108 269 c 1
 103 273 94 279 79 287 c 0
 64 295 45 301 24 302 c 1
 34 316 54 336 84 358 c 0
 113 380 151 391 198 391 c 0
 226 391 252 386 276 377 c 0
 299 368 318 355 331 336 c 0
 345 316 351 293 351 267 c 2
 351 0 l 1
 304 0 l 1
 304 267 l 2
 304 284 299 298 289 311 c 0
 280 323 268 333 252 340 c 0
 236 347 218 350 199 350 c 0
 158 350 123 338 94 313 c 1
 101 312 112 307 128 301 c 0
 144 294 158 284 172 271 c 1
 162 269 149 262 134 251 c 0
 119 240 111 220 111 193 c 2
 111 128 l 1x77
 114 131 122 132 134 132 c 0
 156 132 172 125 184 112 c 0
 195 98 201 82 201 63 c 0
 201 44 195 28 184 15 c 0
 172 0 156 -7 134 -7 c 0
 114 -7 97 0 84 12 c 0
 70 25 63 42 63 63 c 2xbb
133 28 m 0xbb
 145 28 154 32 159 38 c 0
 165 45 168 53 168 63 c 0
 168 72 165 80 159 87 c 0
 153 94 144 97 133 97 c 0
 123 97 114 94 108 87 c 0
 102 80 98 72 98 63 c 0
 98 53 102 45 107 38 c 0
 114 32 123 28 133 28 c 0xbb
EndSplineSet
EndChar
StartChar: uni0E17
Encoding: 154 3607 153
OldEncoding: 3607
Width: 455
Flags: W
HStem: 0 21G<115 163 348 396> 250 34<94 96> 341 43<319 329> 354 35<94 96>
VStem: 24 35<310 322> 115 48<0 24.3511 0 319> 129 34<319 323> 348 48<0 313>
Fore
115 0 m 1xed
 115 253 l 1
 110 251 103 250 94 250 c 0
 72 250 55 257 43 271 c 0
 31 285 24 301 24 320 c 0
 24 339 31 355 43 368 c 0
 55 382 72 389 94 389 c 0xdd
 108 389 120 385 130 380 c 0
 140 374 149 365 155 355 c 0
 160 345 163 332 163 319 c 2
 163 184 l 1
 170 199 179 218 189 241 c 0
 199 264 210 287 225 310 c 0
 240 331 254 349 271 364 c 0
 287 377 304 384 323 384 c 0
 340 384 354 380 364 372 c 0
 374 363 382 351 388 339 c 0
 393 327 396 312 396 297 c 2
 396 0 l 1
 348 0 l 1
 348 297 l 2
 348 327 339 341 321 341 c 0
 308 341 294 330 276 306 c 0
 258 282 240 253 223 217 c 0
 205 180 190 142 180 104 c 0
 168 66 163 31 163 0 c 1
 115 0 l 1xed
94 354 m 0
 82 354 73 350 68 344 c 0
 62 337 59 329 59 319 c 0
 59 310 62 302 68 295 c 0
 73 287 82 284 94 284 c 0
 105 284 114 287 120 295 c 0
 125 302 129 310 129 319 c 0xdb
 129 329 125 337 120 344 c 0
 114 350 105 354 94 354 c 0
EndSplineSet
EndChar
StartChar: uni0E18
Encoding: 155 3608 154
OldEncoding: 3608
Width: 367
Flags: W
HStem: 0 41<52 235> 321 38<284 304> 356 35<153 169>
VStem: 99 47<41 245> 254 48<73 209>
Fore
92 323 m 1xb8
 111 322 139 318 177 310 c 0
 215 302 247 286 273 264 c 0
 286 255 294 245 297 234 c 0
 301 223 302 207 302 188 c 2
 302 73 l 2
 302 43 296 23 286 14 c 0
 275 5 252 0 219 0 c 2
 52 0 l 1
 52 41 l 1
 99 41 l 1
 99 245 l 1
 146 245 l 1
 146 41 l 1
 219 41 l 2
 234 41 244 43 249 47 c 0
 252 51 254 60 254 73 c 2
 254 189 l 2
 254 202 253 214 251 221 c 0
 247 231 241 238 231 246 c 0
 212 261 188 272 157 280 c 0
 125 288 93 292 60 292 c 0
 51 292 38 290 24 289 c 1
 29 306 43 328 63 354 c 0
 84 379 113 391 153 391 c 0xb8
 177 391 205 385 234 375 c 0
 263 365 282 359 293 359 c 0
 306 359 320 363 332 370 c 1
 349 337 l 1
 331 327 313 321 296 321 c 0xd8
 286 321 273 323 259 328 c 0
 244 332 232 338 220 341 c 0
 209 345 198 348 188 351 c 0
 176 355 165 356 153 356 c 0
 133 356 119 351 110 344 c 0
 99 336 94 329 92 323 c 1xb8
EndSplineSet
EndChar
StartChar: uni0E19
Encoding: 156 3609 155
OldEncoding: 3609
Width: 445
Flags: W
HStem: -8 39<363 375> 0 21G<115 163> 250 35<94 105> 354 35<94 96> 364 20G<315 363>
VStem: 24 35<320 329> 115 48<0 319> 129 34<317 322> 315 48<35 130 166 384> 401 35<78 89>
Fore
115 0 m 1x66c0
 115 253 l 1
 110 251 103 250 94 250 c 0
 72 250 55 257 43 271 c 0
 31 285 24 301 24 320 c 0
 24 339 31 355 43 368 c 0
 55 382 72 389 94 389 c 4x76c0
 108 389 120 385 130 380 c 0
 140 374 149 365 155 355 c 0
 160 345 163 332 163 319 c 2
 163 73 l 1
 200 124 251 156 315 167 c 1
 315 384 l 1
 363 384 l 1
 363 166 l 1
 386 163 405 155 417 140 c 0
 429 125 436 105 436 78 c 0
 436 50 429 29 415 15 c 0
 400 0 382 -8 363 -8 c 0xaec0
 349 -8 338 -5 329 3 c 0
 320 11 315 21 315 35 c 2
 315 130 l 1
 288 125 263 114 242 97 c 0
 220 80 203 62 191 45 c 0
 179 28 168 12 163 0 c 1
 115 0 l 1x66c0
94 354 m 0
 84 354 75 350 69 344 c 0
 62 337 59 329 59 320 c 0
 59 310 62 302 68 295 c 0
 73 288 82 285 94 285 c 0
 105 285 114 288 120 295 c 0
 125 303 129 311 129 320 c 0x35c0
 129 329 125 337 119 344 c 0
 113 350 104 354 94 354 c 0
363 43 m 2
 363 35 366 31 373 31 c 0xa4c0
 379 31 385 35 392 44 c 0
 398 53 401 64 401 78 c 0
 401 108 389 127 363 130 c 1
 363 43 l 2
EndSplineSet
EndChar
StartChar: uni0E1A
Encoding: 157 3610 156
OldEncoding: 3610
Width: 442
Flags: W
HStem: 0 41<69 313> 250 34<94 96> 354 35<94 96> 364 20G<337 384>
VStem: 24 35<317 322> 115 48<41 319> 129 34<319 323> 337 47<73 384>
Fore
115 41 m 1xdd
 115 253 l 1
 110 251 103 250 94 250 c 0
 72 250 55 257 43 271 c 0
 31 285 24 301 24 320 c 0
 24 339 31 355 43 368 c 0
 55 382 72 389 94 389 c 4xed
 108 389 120 385 130 380 c 0
 140 374 149 365 155 355 c 0
 160 345 163 332 163 319 c 2
 163 41 l 1
 302 41 l 2
 316 41 327 43 330 47 c 1
 334 51 337 60 337 73 c 2
 337 384 l 1
 384 384 l 1
 384 73 l 2
 384 43 379 23 368 14 c 0
 358 5 336 0 302 0 c 2
 69 0 l 1
 69 41 l 1
 115 41 l 1xdd
94 354 m 0
 82 354 73 350 68 344 c 0
 62 337 59 329 59 319 c 0
 59 310 62 302 68 295 c 0
 73 287 82 284 94 284 c 0
 105 284 114 287 120 295 c 0
 125 302 129 310 129 319 c 0xeb
 129 329 125 337 120 344 c 0
 114 350 105 354 94 354 c 0
EndSplineSet
EndChar
StartChar: uni0E1B
Encoding: 158 3611 157
OldEncoding: 3611
Width: 442
Flags: W
HStem: 0 41<69 313> 250 35<94 105> 354 35<94 96>
VStem: 24 35<320 322> 115 48<41 319> 129 34<317 322> 337 47<73 523>
AnchorPoint: "AboveBase" 303 450 basechar 0
Fore
115 41 m 1xfa
 115 253 l 1
 110 251 103 250 94 250 c 0
 72 250 55 257 43 271 c 0
 31 285 24 301 24 320 c 0
 24 339 31 355 43 368 c 0
 55 382 72 389 94 389 c 0
 108 389 120 385 130 380 c 0
 140 374 149 365 155 355 c 0
 160 345 163 332 163 319 c 2
 163 41 l 1
 302 41 l 2
 316 41 327 43 330 47 c 1
 334 51 337 60 337 73 c 2
 337 523 l 1
 384 523 l 1
 384 73 l 2
 384 43 379 23 368 14 c 0
 358 5 336 0 302 0 c 2
 69 0 l 1
 69 41 l 1
 115 41 l 1xfa
94 354 m 0
 84 354 75 350 69 344 c 0
 62 337 59 329 59 320 c 0
 59 310 62 302 68 295 c 0
 73 288 82 285 94 285 c 0
 105 285 114 288 120 295 c 0
 125 303 129 311 129 320 c 0xf6
 129 329 125 337 119 344 c 0
 113 350 104 354 94 354 c 0
EndSplineSet
EndChar
StartChar: uni0E1C
Encoding: 159 3612 158
OldEncoding: 3612
Width: 423
Flags: W
HStem: 0 21G<59 106 318 365> 250 34<128 132> 354 35<128 132> 364 20G<318 365>
VStem: 59 34<0 323> 59 47<0 17.1149 0 254> 164 34<317 322> 318 47<0 17.9614 99 384>
DStem: 212 163 212 215 295 70 318 99 212 215 212 163 106 99 130 70 212 163 212 215 295 70 318 99 212 215 212 163 106 99 130 70 212 163 212 215 295 70 318 99 212 215 212 163 106 99 130 70 212 163 212 215 295 70 318 99 212 215 212 163 106 99 130 70 212 163 212 215 295 70 318 99 212 215 212 163 106 99 130 70 212 163 212 215 295 70 318 99 212 215 212 163 106 99 130 70 212 163 212 215 295 70 318 99 212 215 212 163 106 99 130 70
Fore
106 254 m 1xe7
 106 99 l 1
 212 215 l 1
 318 99 l 1
 318 384 l 1
 365 384 l 1
 365 0 l 1
 318 0 l 1
 318 31 310 53 295 70 c 2
 212 163 l 1
 130 70 l 2
 114 53 106 29 106 0 c 1xd7
 59 0 l 1
 59 319 l 2xdb
 59 339 64 356 77 370 c 0
 89 382 106 389 128 389 c 0
 150 389 167 382 180 368 c 0
 192 355 198 339 198 320 c 0
 198 301 192 284 180 270 c 0
 167 257 149 250 128 250 c 0
 121 250 114 251 106 254 c 1xe7
128 284 m 0
 139 284 148 287 155 295 c 0
 160 303 164 311 164 319 c 0
 164 329 160 337 155 344 c 0
 148 350 139 354 128 354 c 0
 118 354 108 350 102 344 c 0
 96 336 93 328 93 319 c 0xeb
 93 311 96 303 102 295 c 0
 108 287 118 284 128 284 c 0
EndSplineSet
EndChar
StartChar: uni0E1D
Encoding: 160 3613 159
OldEncoding: 3613
Width: 423
Flags: W
HStem: 0 21G<59 106 318 365> 250 35<128 132> 354 35<128 132>
VStem: 59 34<0 322> 59 47<0 17.1149 0 254> 164 34<320 322> 318 47<0 17.9614 99 523>
DStem: 212 163 212 215 295 70 318 99 212 215 212 163 106 99 130 70 212 163 212 215 295 70 318 99 212 215 212 163 106 99 130 70 212 163 212 215 295 70 318 99 212 215 212 163 106 99 130 70 212 163 212 215 295 70 318 99 212 215 212 163 106 99 130 70 212 163 212 215 295 70 318 99 212 215 212 163 106 99 130 70 212 163 212 215 295 70 318 99 212 215 212 163 106 99 130 70 212 163 212 215 295 70 318 99 212 215 212 163 106 99 130 70
AnchorPoint: "AboveBase" 284 450 basechar 0
Fore
106 254 m 1xee
 106 99 l 1
 212 215 l 1
 318 99 l 1
 318 523 l 1
 365 523 l 1
 365 0 l 1
 318 0 l 1
 318 31 310 53 295 70 c 2
 212 163 l 1
 130 70 l 2
 114 53 106 29 106 0 c 1xee
 59 0 l 1
 59 319 l 2xf6
 59 339 64 356 77 370 c 0
 89 382 106 389 128 389 c 0
 150 389 167 382 180 368 c 0
 192 355 198 339 198 320 c 0
 198 301 192 284 180 270 c 0
 167 257 149 250 128 250 c 0
 121 250 114 251 106 254 c 1xee
128 285 m 0
 139 285 148 288 155 296 c 0
 160 303 164 311 164 320 c 0
 164 328 160 336 154 344 c 0
 147 350 138 354 128 354 c 0
 118 354 108 350 103 344 c 0
 96 336 93 328 93 320 c 0xf6
 93 311 96 303 102 296 c 0
 108 288 118 285 128 285 c 0
EndSplineSet
EndChar
StartChar: uni0E1E
Encoding: 161 3614 160
OldEncoding: 3614
Width: 490
Flags: W
HStem: 0 21G<115 163 391 438> 250 35<94 105> 354 35<94 96> 364 20G<391 438>
VStem: 24 35<320 322> 115 48<0 319> 129 34<317 322> 391 47<0 20.9863 123 384>
DStem: 277 293 277 384 382 47 391 123 277 384 277 293 163 124 172 47 277 293 277 384 382 47 391 123 277 384 277 293 163 124 172 47 277 293 277 384 382 47 391 123 277 384 277 293 163 124 172 47 277 293 277 384 382 47 391 123 277 384 277 293 163 124 172 47 277 293 277 384 382 47 391 123 277 384 277 293 163 124 172 47 277 293 277 384 382 47 391 123 277 384 277 293 163 124 172 47 277 293 277 384 382 47 391 123 277 384 277 293 163 124 172 47 277 293 277 384 382 47 391 123 277 384 277 293 163 124 172 47 277 293 277 384 382 47 391 123 277 384 277 293 163 124 172 47 277 293 277 384 382 47 391 123 277 384 277 293 163 124 172 47 277 293 277 384 382 47 391 123 277 384 277 293 163 124 172 47 277 293 277 384 382 47 391 123 277 384 277 293 163 124 172 47 277 293 277 384 382 47 391 123 277 384 277 293 163 124 172 47 277 293 277 384 382 47 391 123 277 384 277 293 163 124 172 47 277 293 277 384 382 47 391 123 277 384 277 293 163 124 172 47 277 293 277 384 382 47 391 123 277 384 277 293 163 124 172 47 277 293 277 384 382 47 391 123 277 384 277 293 163 124 172 47 277 293 277 384 382 47 391 123 277 384 277 293 163 124 172 47 277 293 277 384 382 47 391 123 277 384 277 293 163 124 172 47 277 293 277 384 382 47 391 123 277 384 277 293 163 124 172 47 277 293 277 384 382 47 391 123 277 384 277 293 163 124 172 47 277 293 277 384 382 47 391 123 277 384 277 293 163 124 172 47 277 293 277 384 382 47 391 123 277 384 277 293 163 124 172 47 277 293 277 384 382 47 391 123 277 384 277 293 163 124 172 47 277 293 277 384 382 47 391 123 277 384 277 293 163 124 172 47 277 293 277 384 382 47 391 123 277 384 277 293 163 124 172 47 277 293 277 384 382 47 391 123 277 384 277 293 163 124 172 47 277 293 277 384 382 47 391 123 277 384 277 293 163 124 172 47 277 293 277 384 382 47 391 123
Fore
115 0 m 1xdd
 115 253 l 1
 110 251 103 250 94 250 c 0
 72 250 55 257 43 271 c 0
 31 285 24 301 24 320 c 0
 24 339 31 355 43 368 c 0
 55 382 72 389 94 389 c 0xed
 108 389 120 385 130 380 c 0
 140 374 149 365 155 355 c 0
 160 345 163 332 163 319 c 2
 163 124 l 1
 277 384 l 1
 391 123 l 1
 391 384 l 1
 438 384 l 1
 438 0 l 1
 391 0 l 1
 391 5 391 11 390 21 c 0
 389 32 385 40 382 47 c 2
 277 293 l 1
 172 47 l 2
 168 40 166 31 165 21 c 0
 164 11 164 5 163 0 c 1
 115 0 l 1xdd
94 354 m 0
 84 354 75 350 69 344 c 0
 62 337 59 329 59 320 c 0
 59 310 62 302 68 295 c 0
 73 288 82 285 94 285 c 0
 105 285 114 288 120 295 c 0
 125 303 129 311 129 320 c 0xeb
 129 329 125 337 119 344 c 0
 113 350 104 354 94 354 c 0
EndSplineSet
EndChar
StartChar: uni0E1F
Encoding: 162 3615 161
OldEncoding: 3615
Width: 490
Flags: W
HStem: 0 21G<115 163 391 438> 250 34<94 96> 354 35<94 96>
VStem: 24 35<317 322> 115 48<0 319> 129 34<319 323> 391 47<0 20.9863 123 523>
DStem: 277 293 277 384 382 47 391 123 277 384 277 293 163 124 172 47 277 293 277 384 382 47 391 123 277 384 277 293 163 124 172 47 277 293 277 384 382 47 391 123 277 384 277 293 163 124 172 47 277 293 277 384 382 47 391 123 277 384 277 293 163 124 172 47 277 293 277 384 382 47 391 123 277 384 277 293 163 124 172 47 277 293 277 384 382 47 391 123 277 384 277 293 163 124 172 47 277 293 277 384 382 47 391 123 277 384 277 293 163 124 172 47 277 293 277 384 382 47 391 123 277 384 277 293 163 124 172 47 277 293 277 384 382 47 391 123 277 384 277 293 163 124 172 47 277 293 277 384 382 47 391 123 277 384 277 293 163 124 172 47 277 293 277 384 382 47 391 123 277 384 277 293 163 124 172 47 277 293 277 384 382 47 391 123 277 384 277 293 163 124 172 47 277 293 277 384 382 47 391 123 277 384 277 293 163 124 172 47 277 293 277 384 382 47 391 123 277 384 277 293 163 124 172 47 277 293 277 384 382 47 391 123 277 384 277 293 163 124 172 47 277 293 277 384 382 47 391 123 277 384 277 293 163 124 172 47 277 293 277 384 382 47 391 123 277 384 277 293 163 124 172 47 277 293 277 384 382 47 391 123 277 384 277 293 163 124 172 47 277 293 277 384 382 47 391 123 277 384 277 293 163 124 172 47 277 293 277 384 382 47 391 123 277 384 277 293 163 124 172 47 277 293 277 384 382 47 391 123 277 384 277 293 163 124 172 47 277 293 277 384 382 47 391 123 277 384 277 293 163 124 172 47 277 293 277 384 382 47 391 123 277 384 277 293 163 124 172 47 277 293 277 384 382 47 391 123 277 384 277 293 163 124 172 47 277 293 277 384 382 47 391 123 277 384 277 293 163 124 172 47 277 293 277 384 382 47 391 123 277 384 277 293 163 124 172 47 277 293 277 384 382 47 391 123 277 384 277 293 163 124 172 47 277 293 277 384 382 47 391 123 277 384 277 293 163 124 172 47 277 293 277 384 382 47 391 123
AnchorPoint: "AboveBase" 351 450 basechar 0
Fore
115 0 m 1xfa
 115 253 l 1
 110 251 103 250 94 250 c 0
 72 250 55 257 43 271 c 0
 31 285 24 301 24 320 c 0
 24 339 31 355 43 368 c 0
 55 382 72 389 94 389 c 0
 108 389 120 385 130 380 c 0
 140 374 149 365 155 355 c 0
 160 345 163 332 163 319 c 2
 163 124 l 1
 277 384 l 1
 391 123 l 1
 391 523 l 1
 438 523 l 1
 438 0 l 1
 391 0 l 1
 391 5 391 11 390 21 c 0
 389 32 385 40 382 47 c 2
 277 293 l 1
 172 47 l 2
 168 40 166 31 165 21 c 0
 164 11 164 5 163 0 c 1
 115 0 l 1xfa
94 354 m 0
 82 354 73 350 68 344 c 0
 62 337 59 329 59 319 c 0
 59 310 62 302 68 295 c 0
 73 287 82 284 94 284 c 0
 105 284 114 287 120 295 c 0
 125 302 129 310 129 319 c 0xf6
 129 329 125 337 120 344 c 0
 114 350 105 354 94 354 c 0
EndSplineSet
EndChar
StartChar: uni0E20
Encoding: 163 3616 162
OldEncoding: 3616
Width: 456
Flags: W
HStem: -7 35<88 90> 0 21G<351 398> 97 35<88 90> 350 41<226 260>
VStem: 19 34<63 65> 111 47<128 202> 124 34<56 65> 351 47<0 273>
Fore
111 128 m 1xbd
 111 191 l 2
 111 206 113 219 118 231 c 0
 121 241 127 250 133 255 c 0
 140 261 148 266 156 269 c 1
 150 273 140 279 125 287 c 0
 111 295 92 301 70 302 c 1
 80 316 101 336 131 358 c 0
 162 380 199 391 245 391 c 0
 289 391 327 381 355 359 c 0
 383 338 398 307 398 267 c 2
 398 0 l 1
 351 0 l 1
 351 267 l 2
 351 284 347 298 337 311 c 0
 328 323 315 333 299 340 c 0
 284 347 266 350 246 350 c 0
 206 350 171 338 141 313 c 1
 148 312 159 307 175 301 c 0
 191 294 206 284 219 271 c 1
 209 269 197 262 182 251 c 0
 166 240 158 220 158 193 c 2x7d
 158 61 l 2x7b
 158 42 153 26 140 14 c 0
 128 0 110 -7 88 -7 c 0
 67 -7 51 0 38 14 c 0
 26 27 19 44 19 63 c 0
 19 82 25 98 37 112 c 0
 50 125 67 132 88 132 c 0
 98 132 105 131 111 128 c 1xbd
88 28 m 0xbb
 99 28 108 32 115 38 c 0
 121 45 124 53 124 63 c 0
 124 72 121 80 115 87 c 0
 108 94 99 97 88 97 c 0
 78 97 69 94 63 87 c 0
 56 79 53 71 53 63 c 0
 53 54 56 46 63 40 c 0
 69 32 78 28 88 28 c 0xbb
EndSplineSet
EndChar
StartChar: uni0E21
Encoding: 164 3617 163
OldEncoding: 3617
Width: 440
Flags: W
HStem: -7 40<101 110> 0 21G<334 382> 250 34<103 111> 354 35<103 111> 364 20G<334 382>
VStem: 34 34<312 322> 36 40<72 90> 124 48<44 130 166 319> 138 34<319 323> 334 48<0 10.0911 80 384>
Fore
124 167 m 1xa340
 124 253 l 1
 119 251 112 250 103 250 c 0
 81 250 64 257 52 270 c 0
 40 284 34 301 34 320 c 0
 34 339 40 355 52 368 c 0
 64 382 81 389 103 389 c 0xb540
 116 389 129 385 139 380 c 0
 149 374 158 365 164 355 c 0
 170 345 172 332 172 319 c 2
 172 167 l 1
 197 165 220 158 242 149 c 0
 264 139 284 129 299 116 c 0
 315 103 327 90 334 80 c 1
 334 384 l 1
 382 384 l 1
 382 0 l 1
 334 0 l 1x6d40
 334 15 327 32 312 51 c 0
 297 70 277 88 252 103 c 0
 227 118 200 127 172 130 c 1
 172 59 l 2
 172 38 166 23 156 11 c 0
 145 -1 129 -7 108 -7 c 0
 86 -7 68 1 55 18 c 0
 43 34 36 53 36 76 c 0
 36 99 44 121 59 139 c 0
 73 156 96 166 124 167 c 1xa340
87 43 m 0
 93 36 99 33 107 33 c 0
 119 33 124 40 124 52 c 2
 124 132 l 1
 108 132 96 127 88 116 c 0
 80 105 76 93 76 78 c 0xa340
 76 63 79 51 87 43 c 0
103 354 m 0x34c0
 93 354 84 350 77 344 c 0
 71 336 68 328 68 319 c 0
 68 311 71 303 77 295 c 0
 84 287 93 284 103 284 c 0
 114 284 123 287 129 295 c 0
 134 302 138 310 138 319 c 0
 138 329 134 337 129 344 c 0
 123 350 114 354 103 354 c 0x34c0
EndSplineSet
EndChar
StartChar: uni0E22
Encoding: 165 3618 164
OldEncoding: 3618
Width: 393
Flags: W
HStem: 0 41<97 267> 259 34<129.78 140> 358 33<129.633 142> 364 20G<287 334>
VStem: 50 47<0 96> 172 34<319 327> 287 47<73 384>
Fore
113 182 m 1xde
 89 190 72 202 60 220 c 0
 47 238 42 259 42 280 c 0
 42 308 51 334 70 357 c 0
 88 380 111 391 139 391 c 0xee
 160 391 176 384 189 372 c 0
 200 358 206 342 206 324 c 0
 206 306 200 290 189 278 c 0
 176 266 159 259 139 259 c 0
 124 259 113 261 105 267 c 0
 97 272 92 277 89 280 c 1
 89 254 98 234 116 221 c 0
 133 209 153 202 174 202 c 1
 174 160 l 1
 149 160 130 155 118 142 c 0
 104 130 97 114 97 94 c 2
 97 41 l 1
 252 41 l 2
 267 41 277 43 281 47 c 0
 285 51 287 60 287 73 c 2
 287 384 l 1
 334 384 l 1
 334 73 l 2
 334 43 329 23 319 14 c 0
 307 5 285 0 252 0 c 2
 50 0 l 1
 50 94 l 2
 50 113 53 128 59 140 c 0
 64 151 72 160 80 166 c 0
 88 172 95 176 101 179 c 0
 106 180 111 181 113 182 c 1xde
139 293 m 0
 160 294 172 304 172 325 c 0
 172 334 170 342 164 349 c 0
 158 355 149 358 139 358 c 0
 129 358 121 355 115 349 c 0
 110 342 106 334 106 325 c 0
 106 318 110 310 115 303 c 0
 121 296 129 293 139 293 c 0
EndSplineSet
EndChar
StartChar: uni0E23
Encoding: 166 3619 165
OldEncoding: 3619
Width: 353
Flags: W
HStem: -7 35<214 223> 97 35<207 223> 319 41<279 297> 354 37<153 165>
VStem: 144 35<56 65> 235 47<129 202> 249 33<56 65>
Fore
282 189 m 2xdc
 282 61 l 2xda
 282 40 275 24 262 11 c 0
 250 -1 233 -7 214 -7 c 0
 192 -7 175 0 163 15 c 0
 150 28 144 44 144 62 c 0
 144 81 150 97 163 112 c 0
 175 125 191 132 212 132 c 0
 217 132 225 131 235 129 c 1
 235 186 l 2
 235 206 233 221 229 233 c 0
 225 244 218 252 209 258 c 0
 200 262 186 267 170 271 c 0
 141 279 114 285 86 289 c 0
 59 294 38 297 24 299 c 1
 38 325 58 347 79 365 c 0
 101 382 125 391 153 391 c 0xdc
 167 391 181 390 191 388 c 0
 202 384 215 381 229 375 c 0
 244 370 255 366 263 364 c 0
 271 362 280 360 288 360 c 0
 302 360 315 364 328 370 c 1
 337 330 l 1
 318 322 301 319 286 319 c 0xec
 275 319 266 320 259 322 c 0
 251 324 240 329 223 336 c 0
 206 341 192 346 183 349 c 0
 173 353 163 354 153 354 c 0
 140 354 128 350 115 345 c 0
 103 338 95 332 94 328 c 1
 94 328 l 1
 94 328 129 319 200 302 c 0
 236 294 259 281 269 264 c 0
 278 247 282 223 282 189 c 2xdc
214 28 m 0
 225 28 234 32 240 38 c 0
 245 45 249 53 249 63 c 0
 249 72 245 80 240 87 c 0
 234 94 225 97 214 97 c 0
 203 97 194 94 189 87 c 0
 182 79 179 71 179 63 c 0
 179 54 182 46 189 40 c 0
 194 32 203 28 214 28 c 0
EndSplineSet
EndChar
StartChar: uni0E24
Encoding: 167 3620 166
OldEncoding: 3620
Width: 410
Flags: W
HStem: -7 35<126 136> 97 35<126 136> 350 41<182 217>
VStem: 63 35<63 65> 63 48<63 201> 168 33<63 65> 304 47<-200 273>
Fore
63 63 m 2xf6
 63 191 l 2
 63 214 68 231 76 243 c 0
 85 254 96 263 108 269 c 1
 103 273 94 279 79 287 c 0
 64 295 45 301 24 302 c 1
 34 316 54 336 84 358 c 0
 113 380 151 391 198 391 c 0
 226 391 252 386 276 377 c 0
 299 368 318 355 331 336 c 0
 345 316 351 293 351 267 c 2
 351 -200 l 1
 304 -200 l 1
 304 267 l 2
 304 284 299 298 289 311 c 0
 280 323 268 333 252 340 c 0
 236 347 218 350 199 350 c 0
 158 350 123 338 94 313 c 1
 101 312 112 307 128 301 c 0
 144 294 158 284 172 271 c 1
 162 269 149 262 134 251 c 0
 119 240 111 220 111 193 c 2
 111 128 l 1xee
 114 131 122 132 134 132 c 0
 156 132 172 125 184 112 c 0
 195 98 201 82 201 63 c 0
 201 44 195 28 184 15 c 0
 172 0 156 -7 134 -7 c 0
 114 -7 97 0 84 12 c 0
 70 25 63 42 63 63 c 2xf6
133 28 m 0
 145 28 154 32 159 38 c 0
 165 45 168 53 168 63 c 0
 168 72 165 80 159 87 c 0
 153 94 144 97 133 97 c 0
 123 97 114 94 108 87 c 0
 102 80 98 72 98 63 c 0xf6
 98 53 102 45 107 38 c 0
 114 32 123 28 133 28 c 0
EndSplineSet
EndChar
StartChar: uni0E25
Encoding: 168 3621 167
OldEncoding: 3621
Width: 395
Flags: W
HStem: -7 34<132 141> 0 21G<289 337> 97 35<132 141> 243 39<139 148> 354 37<165 202>
VStem: 54 43<136.597 179.344> 167 34<56 67> 289 48<0 13.6972 132 266>
Fore
146 243 m 1x7f
 113 240 97 211 97 158 c 0
 97 148 98 137 99 123 c 1
 101 124 104 127 110 129 c 0
 115 131 122 132 132 132 c 0
 154 132 171 125 183 112 c 0
 195 98 201 82 201 63 c 0
 201 43 195 26 183 14 c 0
 171 0 154 -7 132 -7 c 0xbf
 111 -7 94 0 81 15 c 0
 69 29 61 45 59 64 c 0
 55 90 53 123 54 160 c 0
 54 194 63 223 77 244 c 0
 92 267 111 279 139 282 c 1
 170 282 194 272 216 253 c 0
 237 233 254 209 267 183 c 0
 279 156 286 139 289 132 c 1
 289 264 l 2
 289 293 279 314 260 330 c 0
 241 346 215 354 184 354 c 0
 133 354 93 333 63 293 c 1
 33 316 l 1
 44 336 63 353 92 368 c 0
 119 383 150 391 186 391 c 0
 231 391 267 380 295 358 c 0
 323 337 337 305 337 264 c 2
 337 0 l 1
 289 0 l 1
 289 14 285 34 277 61 c 0
 269 87 258 115 244 144 c 0
 231 172 215 195 198 215 c 0
 181 234 163 243 146 243 c 1x7f
132 97 m 0
 122 97 113 94 106 87 c 0
 101 80 97 72 97 62 c 0
 97 53 101 45 106 38 c 0
 113 31 122 27 132 27 c 0
 144 27 153 31 158 38 c 0
 164 45 167 53 167 62 c 0
 167 72 164 80 158 87 c 0
 153 94 144 97 132 97 c 0
EndSplineSet
EndChar
StartChar: uni0E26
Encoding: 169 3622 168
OldEncoding: 3622
Width: 456
Flags: W
HStem: -7 35<88 90> 97 35<88 90> 350 41<226 260>
VStem: 19 34<63 65> 111 47<128 201> 124 34<55 65> 351 47<-200 281>
Fore
111 128 m 1xfa
 111 191 l 2
 111 206 113 219 118 231 c 0
 121 241 127 250 133 255 c 0
 140 261 148 266 156 269 c 1
 150 273 140 279 125 287 c 0
 111 295 92 301 70 302 c 1
 80 316 101 336 131 358 c 0
 162 380 199 391 245 391 c 0
 289 391 327 381 355 359 c 0
 383 338 398 307 398 267 c 2
 398 -200 l 1
 351 -200 l 1
 351 267 l 2
 351 284 347 298 337 311 c 0
 328 323 315 333 299 340 c 0
 284 347 266 350 246 350 c 0
 206 350 171 338 141 313 c 1
 148 312 159 307 175 301 c 0
 191 294 206 284 219 271 c 1
 209 269 197 262 182 251 c 0
 166 240 158 220 158 193 c 2xfa
 158 61 l 2xf6
 158 42 153 26 140 14 c 0
 128 0 110 -7 88 -7 c 0
 67 -7 51 0 38 14 c 0
 26 27 19 44 19 63 c 0
 19 82 25 98 37 112 c 0
 50 125 67 132 88 132 c 0
 98 132 105 131 111 128 c 1xfa
88 28 m 0
 99 28 108 32 115 38 c 0
 121 45 124 53 124 63 c 0xf6
 124 72 121 80 115 87 c 0
 108 94 99 97 88 97 c 0
 78 97 69 94 63 87 c 0
 56 79 53 71 53 63 c 0
 53 54 56 46 63 40 c 0
 69 32 78 28 88 28 c 0
EndSplineSet
EndChar
StartChar: uni0E27
Encoding: 170 3623 169
OldEncoding: 3623
Width: 375
Flags: W
HStem: -7 35<240 249> 97 35<246 250> 354 37<167 179>
VStem: 177 34<63 65> 269 46<129 266> 281 34<63 65>
Fore
315 264 m 2xf8
 315 63 l 2xf4
 315 44 310 28 299 15 c 0
 289 0 271 -7 247 -7 c 0
 226 -7 209 0 197 14 c 0
 184 27 177 44 177 63 c 0
 177 82 183 98 195 112 c 0
 207 125 224 132 246 132 c 0
 253 132 261 131 269 129 c 1
 269 264 l 2
 269 293 260 316 242 331 c 0
 223 347 198 354 167 354 c 0
 141 354 118 347 96 334 c 0
 76 322 60 306 49 289 c 1
 19 313 l 1
 27 327 38 339 53 351 c 0
 67 363 84 372 104 380 c 0
 124 388 146 391 167 391 c 0
 211 391 247 380 275 357 c 0
 302 336 315 304 315 264 c 2xf8
246 97 m 0
 236 97 227 94 221 87 c 0
 215 79 211 71 211 63 c 0
 211 54 215 46 220 40 c 0
 227 32 236 28 246 28 c 0
 258 28 267 32 272 38 c 0
 278 45 281 53 281 63 c 0
 281 72 278 80 272 87 c 0
 267 94 258 97 246 97 c 0
EndSplineSet
EndChar
StartChar: uni0E28
Encoding: 171 3624 170
OldEncoding: 3624
Width: 414
Flags: W
HStem: 0 21G<97 144 308 356> 160 34<176.962 195> 264 35<175.837 195> 356 37<193 212>
VStem: 28 47<242 272> 97 47<0 174> 221 34<223 231> 308 48<0 274>
Fore
321 349 m 1
 324 354 329 362 334 373 c 0
 340 383 345 394 349 408 c 1
 391 386 l 1
 386 371 380 356 370 344 c 0
 359 330 350 320 345 314 c 1
 353 298 356 280 356 261 c 2
 356 0 l 1
 308 0 l 1
 308 257 l 2
 308 267 307 275 306 281 c 1
 301 278 292 272 280 266 c 0
 269 259 260 254 252 252 c 1
 253 249 253 245 254 242 c 0
 255 237 255 232 255 226 c 0
 255 207 249 192 235 180 c 0
 223 167 206 160 186 160 c 0
 167 160 153 165 144 174 c 1
 144 0 l 1
 97 0 l 1
 97 69 l 2
 97 86 95 101 89 114 c 0
 84 127 75 142 62 162 c 0
 50 181 42 197 36 210 c 0
 31 223 28 238 28 257 c 0
 28 286 36 311 51 331 c 0
 67 353 87 367 113 377 c 0
 138 388 165 393 193 393 c 0
 246 393 289 379 321 349 c 1
289 313 m 1
 284 321 273 330 258 340 c 0
 242 350 220 356 193 356 c 0
 176 356 158 353 141 347 c 0
 123 340 106 329 94 314 c 0
 80 298 75 278 75 254 c 0
 75 241 79 225 87 208 c 0
 95 191 99 177 102 167 c 1
 102 203 l 2
 102 232 108 254 123 272 c 0
 138 290 159 299 186 299 c 0
 197 299 206 298 212 296 c 0
 219 293 225 289 229 285 c 0
 234 281 236 279 236 279 c 1
 244 281 253 286 263 293 c 0
 273 299 282 306 289 313 c 1
186 264 m 0
 175 264 166 261 160 254 c 0
 155 247 151 240 151 229 c 0
 151 220 155 212 160 206 c 0
 166 198 175 194 186 194 c 0
 198 194 207 198 212 206 c 0
 218 212 221 220 221 229 c 0
 221 240 218 247 212 254 c 0
 207 261 198 264 186 264 c 0
EndSplineSet
EndChar
StartChar: uni0E29
Encoding: 172 3625 171
OldEncoding: 3625
Width: 454
Flags: W
HStem: 0 41<69 317> 139 35<306 329.25> 246 30<252 254> 250 34<94 96> 354 35<94 96> 364 20G<337 384>
VStem: 24 35<317 322> 115 48<41 319> 129 34<319 323> 191 30<214 225> 282 33<216 225> 337 47<73 141 175 384>
Fore
384 156 m 1xe770
 384 73 l 2
 384 43 379 23 368 14 c 0
 358 5 336 0 302 0 c 2
 69 0 l 1
 69 41 l 1
 115 41 l 1
 115 253 l 1
 110 251 103 250 94 250 c 0
 72 250 55 257 43 271 c 0
 31 285 24 301 24 320 c 0
 24 339 31 355 43 368 c 0
 55 382 72 389 94 389 c 0xdb70
 108 389 120 385 130 380 c 0
 140 374 149 365 155 355 c 0
 160 345 163 332 163 319 c 2
 163 41 l 1
 302 41 l 2
 316 41 327 43 330 47 c 1
 334 51 337 60 337 73 c 2
 337 141 l 1
 331 140 321 139 306 139 c 0
 277 140 251 146 227 157 c 0
 203 168 192 188 191 215 c 0
 191 229 195 244 206 257 c 0
 216 269 231 276 252 276 c 0
 273 276 289 270 299 259 c 0
 310 246 315 232 315 216 c 0
 315 197 310 183 297 174 c 1
 311 174 324 174 337 175 c 1
 337 384 l 1
 384 384 l 1
 384 193 l 1
 392 199 399 208 407 220 c 0
 415 232 418 249 419 271 c 1
 457 271 l 1
 457 238 451 214 436 198 c 0
 423 183 405 168 384 156 c 1xe770
252 185 m 0
 258 185 263 186 269 190 c 0
 273 193 277 197 279 201 c 0
 281 206 282 210 282 216 c 0
 282 225 280 232 275 237 c 0
 269 243 262 246 252 246 c 0xe270
 242 246 235 243 229 237 c 0
 224 232 221 224 221 216 c 0
 221 208 224 201 229 194 c 0
 235 189 242 185 252 185 c 0
94 354 m 0xdaf0
 82 354 73 350 68 344 c 0
 62 337 59 329 59 319 c 0
 59 310 62 302 68 295 c 0
 73 287 82 284 94 284 c 0
 105 284 114 287 120 295 c 0
 125 302 129 310 129 319 c 0
 129 329 125 337 120 344 c 0
 114 350 105 354 94 354 c 0xdaf0
EndSplineSet
EndChar
StartChar: uni0E2A
Encoding: 173 3626 172
OldEncoding: 3626
Width: 395
Flags: W
HStem: -7 34<132 141> 0 21G<289 337> 97 35<132 141> 243 39<139 148> 354 37<165 204>
VStem: 54 43<136.597 179.344> 167 34<56 67> 289 48<0 13.6972 132 278>
Fore
132 97 m 0xbf
 122 97 113 94 106 87 c 0
 101 80 97 72 97 62 c 0
 97 53 101 45 106 38 c 0
 113 31 122 27 132 27 c 0
 144 27 153 31 158 38 c 0
 164 45 167 53 167 62 c 0
 167 72 164 80 158 87 c 0
 153 94 144 97 132 97 c 0xbf
277 311 m 1
 277 307 270 296 255 276 c 0
 241 257 233 244 233 241 c 1
 242 231 251 217 259 202 c 0
 267 188 272 174 278 162 c 0
 282 149 286 139 289 132 c 1
 289 264 l 2
 289 281 285 296 277 311 c 1
212 268 m 2
 214 268 221 279 236 301 c 0
 251 322 258 332 258 332 c 1
 241 347 216 354 184 354 c 0
 133 354 93 333 63 293 c 1
 33 316 l 1
 44 336 63 353 92 368 c 0
 119 383 150 391 186 391 c 4
 220 391 250 384 276 371 c 0
 278 371 285 380 296 397 c 0
 307 414 315 423 319 423 c 0
 320 421 324 419 330 416 c 0
 337 411 342 407 348 403 c 0
 353 400 355 397 355 393 c 1
 349 386 341 376 329 363 c 0
 316 350 311 344 311 342 c 0
 328 322 337 296 337 264 c 2
 337 0 l 1
 289 0 l 1x7f
 289 14 285 34 277 61 c 0
 269 87 258 115 244 144 c 0
 231 172 215 195 198 215 c 0
 181 234 163 243 146 243 c 1
 113 240 97 211 97 158 c 0
 97 148 98 137 99 123 c 1
 101 124 104 127 110 129 c 0
 115 131 122 132 132 132 c 0
 154 132 171 125 183 112 c 0
 195 98 201 82 201 63 c 0
 201 43 195 26 183 14 c 0
 171 0 154 -7 132 -7 c 0
 111 -7 94 0 81 15 c 0
 69 29 61 45 59 64 c 0
 55 90 53 123 54 160 c 0
 54 194 63 223 77 244 c 0
 92 267 111 279 139 282 c 1
 163 282 180 279 190 273 c 1
 190 273 192 273 195 272 c 0
 199 271 203 271 207 270 c 0
 210 269 212 268 212 268 c 2
EndSplineSet
EndChar
StartChar: uni0E2B
Encoding: 174 3627 173
OldEncoding: 3627
Width: 454
Flags: W
HStem: 0 21G<115 163 349 396> 250 34<94 96> 335 20G<321.5 332.5> 354 35<94 96 327 329>
VStem: 24 35<317 322> 115 48<0 33 0 319> 129 34<319 323> 255 37<317 322> 349 47<0 193> 362 35<320 322>
Fore
115 0 m 1xdd80
 115 253 l 1
 110 251 103 250 94 250 c 0
 72 250 55 257 43 271 c 0
 31 285 24 301 24 320 c 0
 24 339 31 355 43 368 c 0
 55 382 72 389 94 389 c 0xdd80
 108 389 120 385 130 380 c 0
 140 374 149 365 155 355 c 0xed80
 160 345 163 332 163 319 c 2
 163 144 l 1
 176 176 195 201 221 223 c 0
 246 243 266 258 280 264 c 1
 263 277 255 295 255 319 c 0
 255 338 262 354 275 368 c 0
 287 382 305 389 327 389 c 0
 349 389 366 382 379 368 c 0
 391 355 397 339 397 320 c 0xdd40
 397 307 393 296 388 285 c 0
 381 273 372 264 360 259 c 1
 366 257 374 250 382 237 c 0
 391 226 396 208 396 182 c 2
 396 0 l 1
 349 0 l 1
 349 182 l 2
 349 203 346 218 338 227 c 0
 330 235 324 241 319 243 c 1
 270 218 232 183 205 139 c 0
 176 95 163 53 163 15 c 2
 163 0 l 1
 115 0 l 1xdd80
327 355 m 0xe940
 316 355 307 351 302 345 c 0
 295 338 292 330 292 320 c 0
 292 311 295 303 302 296 c 0
 307 288 316 285 327 285 c 0
 338 285 347 288 353 296 c 0
 358 303 362 311 362 320 c 0
 362 330 358 338 353 345 c 0
 347 351 338 355 327 355 c 0xe940
94 354 m 0xdb
 82 354 73 350 68 344 c 0
 62 337 59 329 59 319 c 0
 59 310 62 302 68 295 c 0
 73 287 82 284 94 284 c 0
 105 284 114 287 120 295 c 0
 125 302 129 310 129 319 c 0
 129 329 125 337 120 344 c 0
 114 350 105 354 94 354 c 0xdb
EndSplineSet
EndChar
StartChar: uni0E2C
Encoding: 175 3628 174
OldEncoding: 3628
Width: 490
Flags: W
HStem: 0 21G<115 163 384 432> 250 34<94 96> 321 33<372 384> 354 35<94 96> 412 31<372 385>
VStem: 24 35<317 324> 115 48<0 319> 129 34<319 323> 313 33<375 391> 383 49<0 330> 403 33<377 391>
DStem: 276 271 276 367 377 47 384 123 276 367 276 271 163 123 172 47 276 271 276 367 377 47 384 123 276 367 276 271 163 123 172 47 276 271 276 367 377 47 384 123 276 367 276 271 163 123 172 47 276 271 276 367 377 47 384 123 276 367 276 271 163 123 172 47 276 271 276 367 377 47 384 123 276 367 276 271 163 123 172 47 276 271 276 367 377 47 384 123 276 367 276 271 163 123 172 47 276 271 276 367 377 47 384 123 276 367 276 271 163 123 172 47 276 271 276 367 377 47 384 123 276 367 276 271 163 123 172 47 276 271 276 367 377 47 384 123 276 367 276 271 163 123 172 47 276 271 276 367 377 47 384 123 276 367 276 271 163 123 172 47 276 271 276 367 377 47 384 123 276 367 276 271 163 123 172 47 276 271 276 367 377 47 384 123 276 367 276 271 163 123 172 47 276 271 276 367 377 47 384 123 276 367 276 271 163 123 172 47 276 271 276 367 377 47 384 123 276 367 276 271 163 123 172 47 276 271 276 367 377 47 384 123 276 367 276 271 163 123 172 47 276 271 276 367 377 47 384 123 276 367 276 271 163 123 172 47 276 271 276 367 377 47 384 123 276 367 276 271 163 123 172 47 276 271 276 367 377 47 384 123 276 367 276 271 163 123 172 47 276 271 276 367 377 47 384 123 276 367 276 271 163 123 172 47
AnchorPoint: "AboveBase" 351 450 basechar 0
Fore
115 0 m 1xfec0
 115 253 l 1
 110 251 103 250 94 250 c 0
 72 250 55 257 43 271 c 0
 31 285 24 301 24 320 c 0
 24 339 31 355 43 368 c 0
 55 382 72 389 94 389 c 0
 108 389 120 385 130 380 c 0
 140 374 149 365 155 355 c 0
 160 345 163 332 163 319 c 2
 163 123 l 1
 276 367 l 1
 384 123 l 1
 384 321 l 1
 360 321 342 327 330 339 c 0
 319 350 313 365 313 384 c 0
 313 401 319 415 331 426 c 0
 344 437 358 443 377 443 c 0
 394 443 408 437 419 425 c 0
 431 412 436 397 436 377 c 1xfea0
 442 380 449 385 458 394 c 0
 467 403 473 416 478 432 c 1
 511 412 l 1
 504 391 493 374 476 359 c 0
 459 345 444 334 432 330 c 1
 432 0 l 1
 384 0 l 2
 383 0 383 3 383 9 c 0
 383 15 382 21 381 29 c 0
 380 37 379 44 377 47 c 2
 276 271 l 1
 172 47 l 2
 168 40 166 32 165 23 c 0
 164 12 164 5 163 0 c 1
 115 0 l 1xfec0
94 354 m 0
 82 354 73 350 68 344 c 0
 62 337 59 329 59 319 c 0
 59 310 62 302 68 295 c 0
 73 287 82 284 94 284 c 0
 105 284 114 287 120 295 c 0
 125 302 129 310 129 319 c 0xfd80
 129 329 125 337 120 344 c 0
 114 350 105 354 94 354 c 0
374 354 m 0
 384 354 391 357 397 363 c 0
 401 368 403 375 403 383 c 0xfca0
 403 391 401 399 397 405 c 0
 391 410 384 412 374 412 c 0
 365 412 358 409 354 403 c 0
 348 398 346 391 346 383 c 0
 346 375 348 368 354 363 c 0
 358 357 365 354 374 354 c 0
EndSplineSet
EndChar
StartChar: uni0E2D
Encoding: 176 3629 175
OldEncoding: 3629
Width: 405
Flags: W
HStem: 0 41<146 276> 137 35<131 140> 241 35<123.617 140> 355 36<183 205>
VStem: 63 35<73 209> 63 48<73 141> 168 35<197.324 209> 299 48<73 278>
Fore
111 141 m 1xf7
 111 73 l 2xf7
 111 60 113 51 118 47 c 1
 121 43 131 41 146 41 c 2
 264 41 l 2
 279 41 289 43 294 47 c 0
 297 51 299 60 299 73 c 2
 299 264 l 2
 299 293 289 315 270 330 c 0
 250 346 224 355 193 355 c 0
 144 356 103 334 72 293 c 1
 43 316 l 1
 54 336 73 353 101 368 c 0
 128 383 159 391 195 391 c 0
 224 391 250 386 273 376 c 0
 296 366 314 353 328 333 c 0
 340 314 347 292 347 264 c 2
 347 73 l 2
 347 43 341 23 331 14 c 0
 320 5 297 0 264 0 c 2
 146 0 l 2
 122 0 105 2 94 6 c 0
 82 9 75 16 71 26 c 1
 66 36 63 52 63 73 c 2
 63 206 l 2xfb
 63 215 66 225 70 235 c 0
 73 245 81 255 92 263 c 0
 102 271 116 276 134 276 c 0
 156 276 173 269 185 255 c 0
 198 242 203 226 203 207 c 0
 203 188 198 171 185 157 c 0
 173 144 156 137 134 137 c 0
 131 137 123 138 111 141 c 1xf7
133 172 m 0
 144 172 153 175 159 183 c 0
 165 189 168 197 168 206 c 0
 168 216 165 224 159 231 c 0
 154 237 145 241 133 241 c 0
 122 241 113 237 107 232 c 0
 102 225 98 217 98 207 c 0xfb
 98 197 102 189 107 182 c 0
 114 175 123 172 133 172 c 0
EndSplineSet
EndChar
StartChar: uni0E2E
Encoding: 177 3630 176
OldEncoding: 3630
Width: 405
Flags: W
HStem: 0 41<146 279> 99 34<124 136> 203 35<123 136> 257 38<184 205> 356 35<184 205>
VStem: 63 35<73 177> 63 48<73 104> 168 35<159 177> 299 48<73 285>
Fore
63 73 m 2xfd80
 63 167 l 2xfd80
 63 183 69 199 79 215 c 0
 89 231 108 238 134 238 c 0
 156 238 173 232 185 218 c 0
 198 205 203 189 203 170 c 0
 203 150 198 134 185 120 c 0
 173 106 156 99 134 99 c 0
 127 99 119 101 111 104 c 1
 111 73 l 2xfb80
 111 60 113 51 118 47 c 1
 121 43 131 41 146 41 c 2
 264 41 l 2
 279 41 289 43 294 47 c 0
 297 51 299 60 299 73 c 2
 299 285 l 1
 292 278 276 271 252 266 c 0
 227 260 205 257 184 257 c 0
 150 257 120 262 92 273 c 0
 63 285 50 301 50 321 c 0
 50 337 56 350 71 360 c 0
 86 371 103 379 124 384 c 0
 146 389 165 391 184 391 c 0
 214 391 238 388 258 382 c 0
 277 376 293 368 305 360 c 0
 315 354 321 350 321 349 c 1
 321 349 l 1
 336 364 349 379 360 393 c 1
 393 367 l 1
 383 353 374 340 364 331 c 0
 354 322 346 316 341 313 c 1
 344 311 346 306 347 299 c 1
 347 73 l 2
 347 43 341 23 331 14 c 0
 320 5 297 0 264 0 c 2
 146 0 l 2
 122 0 105 2 94 6 c 0
 82 9 75 16 71 26 c 1
 66 36 63 52 63 73 c 2xfd80
184 295 m 0
 203 295 221 297 237 302 c 0
 253 305 266 308 276 313 c 0
 285 318 289 320 289 321 c 0
 284 327 273 334 257 344 c 0
 240 351 215 356 184 356 c 0
 163 356 142 354 124 348 c 0
 106 342 97 334 97 323 c 0
 97 304 127 295 184 295 c 0
133 133 m 0
 145 133 154 137 159 144 c 0
 165 151 168 159 168 168 c 0
 168 179 165 186 159 193 c 0
 154 200 145 203 133 203 c 0
 123 203 114 200 107 193 c 0
 102 188 98 179 98 168 c 0
 98 158 102 150 107 144 c 0
 114 137 123 133 133 133 c 0
EndSplineSet
EndChar
StartChar: uni0E2F
Encoding: 178 3631 177
OldEncoding: 3631
Width: 377
Flags: W
HStem: 173 42<141 168> 254 33<108 122> 356 35<108 122> 364 20G<271 319>
VStem: 37 47<293 322> 153 31<320 325> 271 48<112 252 384 384>
Fore
115 391 m 0xee
 138 391 155 384 166 372 c 0
 179 358 184 342 184 323 c 0
 184 305 177 289 166 276 c 0
 154 261 139 254 120 254 c 0
 110 254 102 255 95 259 c 0
 89 261 85 263 82 264 c 1
 88 251 97 240 110 229 c 0
 122 219 138 215 156 215 c 0
 177 215 197 223 214 238 c 0
 231 254 245 275 257 301 c 0
 267 327 271 354 271 384 c 1
 319 384 l 1xde
 319 120 l 2
 319 81 310 52 290 32 c 0
 271 11 241 -5 198 -15 c 1
 186 28 l 1
 220 36 243 47 255 60 c 1
 266 72 271 94 271 124 c 2
 271 252 l 1
 261 226 246 206 226 193 c 0
 205 180 182 173 158 173 c 0
 133 173 110 180 88 194 c 0
 66 209 51 228 43 252 c 0
 40 264 37 278 37 293 c 0
 37 320 43 344 55 363 c 0
 68 382 87 391 115 391 c 0xee
118 287 m 0
 129 287 138 290 144 297 c 0
 149 304 153 312 153 322 c 0
 153 331 149 339 142 346 c 0
 137 353 128 356 118 356 c 0xee
 107 356 98 353 93 346 c 0
 87 339 84 331 84 322 c 0
 84 312 87 304 93 297 c 0
 98 290 107 287 118 287 c 0
EndSplineSet
EndChar
StartChar: uni0E30
Encoding: 179 3632 178
OldEncoding: 3632
Width: 313
Flags: W
HStem: 0 37<128 148> 108 31<90 92> 252 37<128 148> 360 31<90 92> 364 20G<224 271>
VStem: 24 35<70 80 322 332> 123 36<70 81 319 337>
Fore
128 252 m 0xee
 93 252 67 259 50 273 c 0
 33 287 24 304 24 324 c 0
 24 342 31 358 43 372 c 0
 55 384 71 391 90 391 c 0xf6
 114 391 131 385 142 373 c 0
 154 360 159 346 159 329 c 0
 159 315 155 302 146 289 c 1
 158 289 175 295 194 306 c 0
 214 319 224 345 224 384 c 1
 271 384 l 1
 271 356 266 331 254 312 c 0
 242 293 226 277 205 267 c 0
 183 257 158 252 128 252 c 0xee
128 0 m 0
 94 0 68 7 50 21 c 0
 33 36 24 53 24 72 c 0
 24 89 31 105 43 119 c 0
 55 132 71 140 90 139 c 0
 107 139 120 134 130 129 c 0
 140 123 147 115 153 106 c 0
 157 97 159 87 159 77 c 0
 159 62 155 50 146 37 c 1
 158 37 175 43 194 55 c 0
 214 67 224 93 224 132 c 1
 271 132 l 1
 271 104 266 79 254 60 c 0
 242 40 226 25 205 15 c 0
 183 5 158 0 128 0 c 0
90 108 m 0
 80 108 72 105 67 99 c 0
 61 93 59 85 59 76 c 0
 59 68 62 60 68 53 c 0
 73 46 80 43 90 43 c 0
 101 43 110 46 115 52 c 0
 121 59 123 67 123 76 c 0
 123 86 121 94 115 99 c 0
 110 105 101 108 90 108 c 0
90 360 m 0
 80 360 72 357 67 351 c 0
 61 345 59 337 59 328 c 0
 59 320 62 312 68 305 c 0
 73 298 80 295 90 295 c 0
 101 295 110 298 115 305 c 0
 121 311 123 319 123 328 c 0
 123 349 112 360 90 360 c 0
EndSplineSet
EndChar
StartChar: uni0E31
Encoding: 180 3633 179
OldEncoding: 3633
Width: 0
Flags: W
HStem: 454 40<-88 -86> 580 32<-173 -171>
VStem: -238 32<538 551> -141 36<538 550>
AnchorPoint: "AboveMark" -61 666 basemark 0
AnchorPoint: "AboveBase" -38 450 mark 0
Fore
-238 538 m 1
 -238 559 -233 577 -221 591 c 0
 -210 606 -194 612 -173 612 c 0
 -151 612 -136 606 -123 593 c 0
 -111 580 -105 565 -105 548 c 0
 -105 529 -112 513 -127 499 c 1
 -123 498 -116 497 -106 496 c 0
 -97 495 -90 494 -86 494 c 0
 -64 495 -43 501 -24 508 c 0
 -3 518 15 529 29 546 c 0
 44 562 54 580 60 601 c 1
 99 582 l 1
 93 559 80 539 62 520 c 0
 43 501 21 486 -5 473 c 0
 -31 461 -59 454 -88 454 c 0
 -128 453 -162 461 -190 473 c 0
 -219 487 -235 508 -238 538 c 1
-173 514 m 0
 -163 514 -155 518 -149 523 c 0
 -144 530 -141 538 -141 547 c 0
 -141 557 -144 565 -149 571 c 0
 -155 576 -163 580 -173 580 c 0
 -183 580 -191 576 -197 571 c 0
 -202 565 -206 557 -206 547 c 0
 -206 539 -202 531 -197 524 c 0
 -191 518 -183 514 -173 514 c 0
EndSplineSet
EndChar
StartChar: uni0E32
Encoding: 181 3634 180
OldEncoding: 3634
Width: 334
Flags: W
HStem: 0 21G<228 276> 356 35<129.831 160>
VStem: 228 48<0 291>
Fore
15 306 m 1
 29 333 46 355 66 370 c 0
 85 384 111 391 145 391 c 0
 184 391 216 381 240 362 c 0
 263 342 276 314 276 278 c 2
 276 0 l 1
 228 0 l 1
 228 280 l 2
 228 304 220 324 206 337 c 0
 190 350 170 356 145 356 c 0
 123 356 104 350 87 338 c 0
 70 325 58 308 50 289 c 1
 44 293 38 295 33 298 c 0
 27 301 20 303 15 306 c 1
EndSplineSet
EndChar
StartChar: uni0E33
Encoding: 182 3635 181
OldEncoding: 3635
Width: 334
Flags: W
HStem: 0 21G<228 276> 356 35<145 152> 455 31<-82 -80> 563 30<-82 -72>
VStem: -153 32<514.458 529> -44 30<524 529> 228 48<0 291>
Fore
-82 455 m 0
 -104 455 -121 462 -133 476 c 0
 -146 489 -153 505 -153 524 c 0
 -153 544 -147 559 -134 573 c 0
 -122 586 -105 593 -82 593 c 0
 -61 593 -44 586 -32 573 c 0
 -19 559 -14 544 -14 524 c 0
 -14 505 -19 489 -32 476 c 0
 -44 462 -61 455 -82 455 c 0
15 306 m 1
 29 333 46 355 66 370 c 0
 85 384 111 391 145 391 c 0
 184 391 216 381 240 362 c 0
 263 342 276 314 276 278 c 2
 276 0 l 1
 228 0 l 1
 228 280 l 2
 228 304 220 324 206 337 c 0
 190 350 170 356 145 356 c 0
 123 356 104 350 87 338 c 0
 70 325 58 308 50 289 c 1
 44 293 38 295 33 298 c 0
 27 301 20 303 15 306 c 1
-82 563 m 0
 -95 563 -104 559 -111 551 c 0
 -118 544 -121 534 -121 524 c 0
 -121 514 -118 505 -111 497 c 0
 -104 489 -95 486 -82 486 c 0
 -75 486 -68 488 -62 492 c 0
 -56 495 -52 501 -49 506 c 0
 -45 512 -44 519 -44 524 c 0
 -44 534 -47 544 -54 551 c 0
 -61 559 -70 563 -82 563 c 0
EndSplineSet
MultipleSubs: 0 1 'ccmp' uni0E4D uni0E32
EndChar
StartChar: uni0E34
Encoding: 183 3636 182
OldEncoding: 3636
Width: 0
Flags: W
HStem: 488 34<-281 -218> 575 35<-209 -198>
AnchorPoint: "AboveMark" -38 666 basemark 0
AnchorPoint: "AboveBase" -38 450 mark 0
Fore
-198 610 m 1
 -147 603 -112 584 -90 553 c 0
 -70 521 -55 487 -47 450 c 1
 -60 454 -80 461 -106 469 c 0
 -132 477 -160 481 -191 485 c 0
 -211 487 -232 488 -253 488 c 0
 -278 488 -301 487 -320 486 c 0
 -340 484 -355 481 -363 480 c 1
 -359 503 -349 524 -333 545 c 0
 -319 565 -299 581 -276 592 c 0
 -252 605 -226 610 -198 610 c 1
-207 575 m 1
 -231 575 -251 570 -270 557 c 0
 -289 546 -301 533 -304 519 c 1
 -298 520 -292 520 -281 521 c 0
 -271 522 -255 522 -236 522 c 0
 -219 522 -207 522 -198 521 c 0
 -168 519 -146 514 -129 507 c 0
 -112 502 -102 496 -96 493 c 1
 -118 540 -154 567 -207 575 c 1
EndSplineSet
EndChar
StartChar: uni0E35
Encoding: 184 3637 183
OldEncoding: 3637
Width: 0
Flags: W
HStem: 488 34<-259 -195> 575 35<-186 -175>
VStem: -81 43<566 655>
AnchorPoint: "AboveMark" -38 666 basemark 0
AnchorPoint: "AboveBase" -38 450 mark 0
Fore
-81 566 m 1
 -81 655 l 1
 -38 655 l 1
 -38 498 l 1
 -38 498 l 1
 -38 498 -37 494 -34 486 c 0
 -31 477 -28 464 -25 450 c 5
 -37 454 -58 461 -84 469 c 0
 -110 477 -138 481 -168 485 c 0
 -189 487 -209 488 -231 488 c 0
 -255 488 -278 487 -297 486 c 0
 -318 484 -332 481 -340 480 c 1
 -337 503 -327 524 -311 545 c 0
 -296 565 -277 581 -253 593 c 0
 -229 605 -203 610 -175 610 c 1
 -157 608 -141 603 -127 597 c 0
 -113 591 -103 584 -95 579 c 0
 -88 573 -84 568 -81 566 c 1
-184 575 m 1
 -201 575 -216 572 -229 566 c 0
 -243 560 -254 554 -263 545 c 0
 -272 537 -278 528 -281 519 c 1
 -276 520 -269 520 -259 521 c 0
 -249 522 -233 522 -214 522 c 0
 -197 522 -184 522 -175 521 c 0
 -146 519 -123 514 -106 507 c 0
 -89 502 -79 496 -73 493 c 1
 -81 512 -94 530 -111 546 c 0
 -128 562 -151 572 -184 575 c 1
EndSplineSet
EndChar
StartChar: uni0E36
Encoding: 185 3638 184
OldEncoding: 3638
Width: 0
Flags: W
HStem: 488 34<-281 -216> 575 37<-220 -207> 632 30<-108 -94>
VStem: -164 32<602 611> -75 33<595 603>
AnchorPoint: "AboveMark" -38 666 basemark 0
AnchorPoint: "AboveBase" -38 450 mark 0
Fore
-42 601 m 0
 -42 586 -45 574 -53 563 c 0
 -61 551 -71 545 -84 542 c 1
 -78 534 -72 523 -64 506 c 0
 -56 489 -51 470 -47 450 c 1
 -60 454 -80 461 -106 469 c 0
 -132 477 -160 481 -191 485 c 0
 -211 487 -232 488 -253 488 c 0
 -278 488 -301 487 -320 486 c 0
 -340 484 -355 481 -363 480 c 1
 -358 504 -349 527 -333 548 c 0
 -319 568 -299 584 -279 596 c 0
 -258 607 -237 612 -217 612 c 0
 -209 612 -200 611 -192 610 c 0
 -184 609 -177 607 -172 606 c 0
 -166 603 -164 602 -164 602 c 1
 -164 617 -158 631 -147 643 c 0
 -137 655 -122 662 -104 662 c 0
 -85 662 -69 657 -59 645 c 0
 -49 633 -43 618 -42 601 c 0
-103 632 m 0
 -113 632 -120 629 -124 624 c 0
 -130 618 -132 611 -132 603 c 0
 -132 597 -130 590 -124 584 c 0
 -119 579 -112 575 -103 575 c 0
 -95 575 -88 579 -82 584 c 0
 -77 590 -75 597 -75 603 c 0
 -75 611 -77 618 -81 624 c 0
 -87 629 -94 632 -103 632 c 0
-207 575 m 1
 -224 575 -238 572 -252 566 c 0
 -266 560 -277 554 -286 545 c 0
 -295 537 -301 528 -304 519 c 1
 -298 520 -292 520 -281 521 c 0
 -271 522 -255 522 -236 522 c 0
 -219 522 -207 522 -198 521 c 0
 -168 519 -146 514 -129 507 c 0
 -112 502 -102 496 -96 493 c 1
 -104 512 -116 529 -133 545 c 0
 -150 560 -174 571 -207 575 c 1
EndSplineSet
EndChar
StartChar: uni0E37
Encoding: 186 3639 185
OldEncoding: 3639
Width: 0
Flags: W
HStem: 488 34<-259 -195> 575 37<-197 -184>
VStem: -166 43<609 655> -81 43<565 655>
AnchorPoint: "AboveMark" -38 666 basemark 0
AnchorPoint: "AboveBase" -38 450 mark 0
Fore
-38 497 m 1
 -37 497 -33 481 -25 450 c 1
 -37 454 -58 461 -84 469 c 0
 -110 477 -138 481 -168 485 c 0
 -189 487 -209 488 -231 488 c 0
 -255 488 -278 487 -297 486 c 0
 -318 484 -332 481 -340 480 c 1
 -337 505 -325 528 -311 547 c 0
 -295 567 -278 583 -257 594 c 0
 -235 607 -212 612 -191 612 c 0
 -182 612 -174 611 -166 609 c 1
 -166 655 l 1
 -123 655 l 1
 -123 596 l 1
 -105 589 -92 579 -81 565 c 1
 -81 655 l 1
 -38 655 l 1
 -38 497 l 1
-184 575 m 1
 -208 575 -228 570 -247 557 c 0
 -267 546 -278 533 -281 519 c 1
 -276 520 -269 520 -259 521 c 0
 -249 522 -233 522 -214 522 c 0
 -197 522 -184 522 -175 521 c 0
 -146 519 -123 514 -106 507 c 0
 -89 502 -79 496 -73 493 c 1
 -95 540 -131 567 -184 575 c 1
EndSplineSet
EndChar
StartChar: uni0E38
Encoding: 187 3640 186
OldEncoding: 3640
Width: 0
Flags: W
HStem: -186 35<-135 -126> -82 35<-128 -126>
VStem: -198 34<-118 -112> -106 47<-282 -115> -93 34<-123 -113>
AnchorPoint: "BelowBase" -59 -47 mark 0
Fore
-59 -282 m 1xf0
 -106 -282 l 1
 -106 -183 l 1
 -113 -185 -121 -186 -130 -186 c 0
 -151 -186 -168 -180 -180 -166 c 0
 -192 -153 -198 -137 -198 -118 c 0
 -198 -98 -192 -82 -180 -68 c 0
 -167 -54 -150 -47 -128 -47 c 4
 -108 -47 -92 -53 -79 -66 c 0
 -67 -77 -59 -94 -59 -115 c 2
 -59 -282 l 1xf0
-128 -151 m 0
 -118 -151 -108 -148 -102 -141 c 0
 -96 -136 -93 -128 -93 -118 c 0xe8
 -93 -107 -96 -99 -102 -93 c 0
 -107 -86 -116 -82 -128 -82 c 0
 -139 -82 -148 -86 -155 -94 c 0
 -160 -101 -164 -108 -164 -118 c 0
 -164 -127 -160 -134 -154 -141 c 0
 -147 -148 -138 -151 -128 -151 c 0
EndSplineSet
EndChar
StartChar: uni0E39
Encoding: 188 3641 187
OldEncoding: 3641
Width: 0
Flags: W
HStem: -293 39<-136 -127> -186 35<-241 -223> -82 35<-234 -232>
VStem: -304 35<-120 -112> -212 47<-226 -184> -199 34<-120 -113> -106 47<-226 -52>
AnchorPoint: "BelowBase" -59 -47 mark 0
Fore
-212 -226 m 2xfa
 -212 -183 l 1xfa
 -219 -185 -227 -186 -235 -186 c 0
 -257 -186 -272 -180 -285 -165 c 0
 -297 -150 -304 -134 -304 -116 c 0
 -304 -98 -297 -82 -285 -68 c 0
 -272 -54 -255 -47 -234 -47 c 0
 -215 -47 -198 -53 -185 -66 c 0
 -173 -77 -165 -94 -165 -115 c 2xf6
 -165 -226 l 2
 -165 -234 -162 -241 -156 -246 c 0
 -150 -252 -144 -254 -136 -254 c 0
 -128 -254 -121 -252 -115 -246 c 0
 -110 -241 -106 -234 -106 -226 c 2
 -106 -52 l 1
 -59 -52 l 1
 -59 -226 l 2
 -59 -246 -67 -262 -81 -275 c 0
 -96 -287 -114 -293 -136 -293 c 0
 -156 -293 -174 -286 -189 -273 c 0
 -205 -261 -212 -245 -212 -226 c 2xfa
-234 -151 m 0
 -223 -151 -214 -148 -208 -141 c 0
 -202 -134 -199 -127 -199 -118 c 0xf6
 -199 -108 -202 -101 -208 -94 c 0
 -214 -86 -223 -82 -234 -82 c 0
 -245 -82 -254 -86 -260 -93 c 0
 -266 -99 -269 -107 -269 -118 c 0
 -269 -127 -266 -134 -259 -141 c 0
 -253 -148 -244 -151 -234 -151 c 0
EndSplineSet
EndChar
StartChar: uni0E3A
Encoding: 189 3642 188
OldEncoding: 3642
Width: 0
Flags: W
AnchorPoint: "BelowBase" -59 -47 mark 0
Fore
-82 -70 m 0
 -71 -70 -62 -73 -56 -80 c 0
 -51 -88 -47 -96 -47 -106 c 0
 -47 -115 -51 -123 -56 -131 c 0
 -62 -138 -71 -141 -82 -141 c 0
 -94 -141 -103 -138 -108 -131 c 0
 -115 -123 -119 -115 -119 -106 c 0
 -119 -97 -115 -89 -110 -81 c 0
 -103 -75 -94 -71 -82 -70 c 0
EndSplineSet
EndChar
StartChar: uni0E3F
Encoding: 190 3647 191
OldEncoding: 3647
Width: 464
VWidth: 2048
Flags: W
HStem: 0 52<114 190 242 305> 237 53<114 190 242 271> 460 52<62 190 242 264.253>
VStem: 62 52<0 237 0 460> 190 52<-69 0 52 237 290 460 512 574> 353 53<369 385> 376 51<138 156>
Fore
190 290 m 5xf8
 190 460 l 5
 114 460 l 5
 114 290 l 5
 190 290 l 5xf8
190 52 m 5
 190 237 l 5
 114 237 l 5
 114 52 l 5
 190 52 l 5
242 237 m 5
 242 52 l 5
 284 52 l 6
 346 52 376 84 376 147 c 4xfa
 376 184 363 209 337 223 c 4
 318 233 288 237 249 237 c 6
 242 237 l 5
242 460 m 5
 242 290 l 5
 254 290 l 6
 281 290 304 297 322 310 c 4
 342 325 353 345 353 371 c 4xfc
 353 431 315 460 242 460 c 5
190 574 m 5
 242 574 l 5
 242 512 l 5
 277 512 l 6
 306 512 332 503 357 485 c 4
 390 461 406 427 406 383 c 4xfc
 406 333 381 296 332 271 c 5
 364 255 l 6
 406 235 427 197 427 144 c 4xfa
 427 98 411 61 380 33 c 4
 356 11 331 0 305 0 c 6
 242 0 l 5
 242 -69 l 5
 190 -69 l 5
 190 0 l 5
 62 0 l 5
 62 512 l 5
 190 512 l 5
 190 574 l 5
EndSplineSet
EndChar
StartChar: uni0E40
Encoding: 191 3648 192
OldEncoding: 3648
Width: 226
Flags: W
HStem: -7 35<133 137> 97 35<126 144> 364 20G<63 111>
VStem: 63 35<56 65> 63 48<61 384> 168 34<56 65>
Fore
63 384 m 1xec
 111 384 l 1
 111 129 l 1xec
 116 131 124 132 134 132 c 0
 156 132 173 125 185 112 c 0
 197 98 202 81 202 62 c 0
 202 43 197 27 184 14 c 0
 172 0 155 -7 133 -7 c 0
 113 -7 97 -1 85 11 c 0
 72 23 63 40 63 61 c 2xf4
 63 384 l 1xec
133 97 m 0
 123 97 114 94 108 87 c 0
 102 80 98 72 98 63 c 0xf4
 98 53 102 45 107 38 c 0
 114 32 123 28 133 28 c 0
 145 28 154 32 159 38 c 0
 165 45 168 53 168 63 c 0
 168 72 165 80 159 87 c 0
 153 94 144 97 133 97 c 0
EndSplineSet
EndChar
StartChar: uni0E41
Encoding: 192 3649 193
OldEncoding: 3649
Width: 407
Flags: W
HStem: -7 35<133 137 314 320> 97 35<126 144 304.529 320> 364 20G<63 111 245 293>
VStem: 63 35<56 65> 63 48<61 384> 168 34<56 65> 245 34<56 65> 245 48<61 384> 350 34<56 65>
Fore
63 384 m 1xec80
 111 384 l 1
 111 129 l 1xec80
 116 131 124 132 134 132 c 0
 156 132 173 125 185 112 c 0
 197 98 202 81 202 62 c 0
 202 43 197 27 184 14 c 0
 172 0 155 -7 133 -7 c 0
 113 -7 97 -1 85 11 c 0
 72 23 63 40 63 61 c 2xf480
 63 384 l 1xec80
245 384 m 1xe580
 293 384 l 1
 293 129 l 1xe580
 299 131 307 132 315 132 c 0
 337 132 354 125 366 112 c 0
 379 97 384 81 384 62 c 0
 384 44 377 28 365 15 c 0
 353 0 336 -7 314 -7 c 0
 295 -7 279 -1 267 11 c 0
 254 23 245 40 245 61 c 2xe680
 245 384 l 1xe580
314 97 m 0
 304 97 295 94 289 87 c 0
 282 79 279 71 279 63 c 0xe680
 279 54 282 46 288 40 c 0
 295 32 304 28 314 28 c 0
 325 28 334 32 341 40 c 0
 347 46 350 54 350 63 c 0
 350 71 347 79 340 87 c 0
 333 94 324 97 314 97 c 0
133 97 m 0
 123 97 114 94 108 87 c 0
 102 80 98 72 98 63 c 0xf480
 98 53 102 45 107 38 c 0
 114 32 123 28 133 28 c 0
 145 28 154 32 159 38 c 0
 165 45 168 53 168 63 c 0
 168 72 165 80 159 87 c 0
 153 94 144 97 133 97 c 0
EndSplineSet
EndChar
StartChar: uni0E42
Encoding: 193 3650 194
OldEncoding: 3650
Width: 242
Flags: W
HStem: -7 35<164 168> 97 35<158 167> 632 39<187 199> 660 39<87 96>
VStem: 94 35<56 65> 94 47<61 538> 199 34<56 65>
Fore
94 61 m 2xda
 94 521 l 2
 94 541 92 556 88 566 c 0
 84 575 73 584 58 594 c 0
 41 605 11 619 -33 638 c 1
 -24 649 -9 662 12 677 c 0
 34 692 59 699 87 699 c 0xd6
 103 699 122 695 144 686 c 0
 165 676 181 671 190 671 c 0
 201 671 214 676 228 686 c 1
 247 653 l 1
 228 638 210 632 191 632 c 0xe6
 179 632 162 637 139 646 c 0
 115 657 98 660 87 660 c 0
 76 660 66 658 58 654 c 0
 50 651 45 647 42 645 c 1
 75 628 95 617 105 611 c 0
 115 605 124 594 131 581 c 0
 138 567 141 548 141 523 c 2
 141 129 l 1xd6
 147 131 155 132 165 132 c 0
 186 132 203 125 215 112 c 0
 227 98 233 81 233 62 c 0
 233 43 227 27 215 14 c 0
 202 0 185 -7 164 -7 c 0
 145 -7 129 -1 116 11 c 0
 103 23 94 40 94 61 c 2xda
164 97 m 0
 154 97 145 94 139 87 c 0
 132 80 129 72 129 63 c 0xca
 129 53 132 45 138 38 c 0
 144 32 153 28 164 28 c 0
 175 28 184 32 190 38 c 0
 195 45 199 53 199 63 c 0
 199 72 195 80 189 87 c 0
 183 94 174 97 164 97 c 0
EndSplineSet
EndChar
StartChar: uni0E43
Encoding: 194 3651 195
OldEncoding: 3651
Width: 242
Flags: W
HStem: -7 35<164 172> 97 35<154 172> 532 27<10 28> 614 27<11 23> 669 33<38 60>
VStem: -37 29<586 607> 46 27<586 588> 94 35<56 65> 94 47<61 627> 199 34<56 65>
Fore
94 61 m 2xff40
 94 614 l 2
 94 651 80 669 52 669 c 0
 37 669 27 666 21 659 c 0
 16 651 12 645 11 641 c 1
 31 641 46 635 58 625 c 0
 68 615 73 602 73 586 c 0
 73 570 68 557 58 547 c 0
 47 537 35 532 20 532 c 0
 8 532 -2 536 -12 542 c 0
 -23 548 -29 558 -33 571 c 0
 -36 582 -37 594 -37 607 c 0
 -37 634 -29 657 -15 675 c 0
 0 693 23 702 51 702 c 0
 78 702 99 694 116 679 c 0
 133 663 141 641 141 612 c 2
 141 129 l 1xfec0
 147 131 155 132 165 132 c 0
 186 132 203 125 215 112 c 0
 227 98 233 81 233 62 c 0
 233 43 227 27 215 14 c 0
 202 0 185 -7 164 -7 c 0
 145 -7 129 -1 116 11 c 0
 103 23 94 40 94 61 c 2xff40
19 614 m 0
 10 614 3 611 0 606 c 1
 -6 600 -8 594 -8 586 c 0
 -8 579 -6 573 0 567 c 1
 3 562 10 559 19 559 c 0
 28 559 35 562 40 567 c 0
 44 573 46 579 46 586 c 0
 46 593 44 600 40 606 c 0
 35 611 28 614 19 614 c 0
164 97 m 0
 154 97 145 94 139 87 c 0
 132 80 129 72 129 63 c 0xff40
 129 53 132 45 138 38 c 0
 144 32 153 28 164 28 c 0
 175 28 184 32 190 38 c 0
 195 45 199 53 199 63 c 0
 199 72 195 80 189 87 c 0
 183 94 174 97 164 97 c 0
EndSplineSet
EndChar
StartChar: uni0E44
Encoding: 195 3652 196
OldEncoding: 3652
Width: 282
Flags: W
HStem: -7 35<203 209> 97 35<201 208> 657 42<128 137>
VStem: 134 34<56 65> 134 48<61 653> 238 35<63 65>
DStem: -11 647 21 660 26 508 55 530 89 662 124 651 55 530 82 506
Fore
134 61 m 2xf4
 134 647 l 2
 134 653 133 657 130 657 c 0
 127 657 125 654 124 651 c 2
 82 506 l 2
 77 487 68 478 54 478 c 0
 41 478 32 488 26 508 c 2
 -11 647 l 2
 -16 663 -23 672 -33 676 c 1
 -9 702 l 1
 6 696 16 683 21 660 c 2
 55 530 l 1
 89 662 l 1
 96 687 111 699 137 699 c 0
 150 699 162 695 170 687 c 0
 177 679 182 667 182 651 c 2
 182 129 l 1xec
 188 131 195 132 206 132 c 0
 227 132 244 125 257 112 c 0
 268 98 273 82 273 63 c 0
 273 44 268 27 255 14 c 0
 243 0 225 -7 203 -7 c 0
 184 -7 168 -1 156 11 c 0
 144 23 134 40 134 61 c 2xf4
203 97 m 0
 193 97 185 94 179 87 c 0
 172 79 168 71 168 63 c 0xf4
 168 54 172 46 179 40 c 0
 184 32 193 28 203 28 c 0
 215 28 224 32 229 38 c 0
 235 45 238 53 238 63 c 0
 238 72 235 80 229 87 c 0
 223 94 214 97 203 97 c 0
EndSplineSet
EndChar
StartChar: uni0E45
Encoding: 196 3653 197
OldEncoding: 3653
Width: 334
Flags: W
HStem: 356 35<129.831 160>
VStem: 228 48<-200 291>
Fore
15 306 m 1
 29 333 46 355 66 370 c 0
 85 384 111 391 145 391 c 0
 184 391 216 381 240 362 c 0
 263 342 276 314 276 278 c 2
 276 -200 l 1
 228 -200 l 1
 228 280 l 2
 228 304 220 324 206 337 c 0
 190 350 170 356 145 356 c 0
 123 356 104 350 87 338 c 0
 70 325 58 308 50 289 c 1
 44 293 38 295 33 298 c 0
 27 301 20 303 15 306 c 1
EndSplineSet
EndChar
StartChar: uni0E46
Encoding: 197 3654 198
OldEncoding: 3654
Width: 449
Flags: W
HStem: 163 32<207 215> 257 30<207 215>
VStem: 118 40<267 282> 238 31<226 228> 344 47<-29 293>
Fore
304 391 m 1
 324 388 341 380 355 370 c 0
 368 359 377 346 383 331 c 0
 389 316 391 298 391 278 c 2
 391 -21 l 2
 391 -47 386 -70 379 -87 c 0
 371 -104 357 -119 340 -129 c 0
 323 -140 299 -149 271 -156 c 1
 259 -113 l 1
 293 -105 315 -94 327 -81 c 0
 338 -69 344 -47 344 -17 c 2
 344 271 l 2
 344 293 341 310 337 322 c 0
 332 333 321 344 304 351 c 1
 259 323 l 1
 259 323 l 1
 259 324 252 327 240 333 c 0
 226 340 215 347 206 351 c 1
 189 345 177 334 170 320 c 0
 162 305 158 288 158 267 c 1
 162 270 167 273 175 279 c 0
 183 285 193 287 207 287 c 0
 226 287 242 281 253 269 c 0
 263 257 269 243 269 226 c 0
 269 209 263 194 253 182 c 0
 242 170 226 163 207 163 c 0
 188 163 172 168 158 179 c 0
 145 189 134 202 128 219 c 0
 121 236 118 254 118 276 c 0
 118 304 127 329 144 350 c 0
 160 372 181 385 207 391 c 1
 216 386 227 381 240 374 c 0
 252 367 259 364 259 363 c 1
 304 391 l 1
207 257 m 0
 198 257 191 253 185 247 c 0
 180 242 176 234 176 226 c 0
 176 218 179 211 184 206 c 0
 190 199 197 195 207 195 c 0
 217 195 225 199 231 205 c 0
 236 210 238 218 238 226 c 0
 238 235 236 243 231 249 c 0
 225 254 217 257 207 257 c 0
EndSplineSet
EndChar
StartChar: uni0E47
Encoding: 198 3655 199
OldEncoding: 3655
Width: 0
Flags: W
HStem: 450 27<-112 -110> 507 37<-224 -214.525> 531 25<-112 -110> 582 34<-175 -132>
VStem: -325 37<539 556> -86 27<504 512>
AnchorPoint: "AboveMark" -38 450 mark 0
AnchorPoint: "AboveBase" -38 450 mark 0
Fore
-112 450 m 0xbc
 -124 450 -134 452 -142 458 c 0
 -153 463 -163 470 -173 479 c 0
 -184 489 -193 496 -201 501 c 0
 -209 505 -216 507 -224 507 c 0xdc
 -241 506 -252 498 -259 484 c 0
 -266 469 -269 458 -270 447 c 1
 -285 454 -297 468 -308 487 c 0
 -320 506 -325 525 -325 545 c 0
 -325 554 -323 563 -320 573 c 0
 -307 605 -277 620 -227 620 c 0
 -215 620 -205 620 -197 619 c 0
 -179 617 -162 616 -147 616 c 0
 -125 616 -108 619 -98 627 c 0
 -88 634 -82 647 -82 668 c 1
 -45 668 l 1
 -45 637 -54 615 -71 602 c 0
 -89 589 -118 582 -156 582 c 0
 -172 582 -190 583 -209 585 c 1
 -235 585 -255 583 -268 577 c 0
 -281 572 -288 562 -288 547 c 0
 -288 537 -285 524 -278 510 c 1
 -276 515 -270 522 -261 531 c 0xbc
 -253 539 -241 544 -224 544 c 0xdc
 -210 544 -198 540 -188 534 c 0
 -176 528 -168 522 -164 518 c 1
 -160 530 -155 539 -146 546 c 0
 -137 553 -125 556 -112 556 c 0
 -95 556 -82 551 -72 541 c 0
 -63 531 -59 519 -59 504 c 0
 -59 489 -63 476 -72 466 c 0
 -82 455 -95 450 -112 450 c 0xbc
-112 477 m 0
 -104 477 -97 479 -93 485 c 0
 -88 490 -86 497 -86 504 c 0
 -86 512 -88 518 -93 523 c 0
 -97 529 -104 531 -112 531 c 0xbc
 -120 531 -127 529 -131 523 c 0
 -136 518 -138 512 -138 504 c 0
 -138 497 -136 492 -131 486 c 0
 -127 480 -120 477 -112 477 c 0
EndSplineSet
EndChar
StartChar: uni0E48
Encoding: 199 3656 200
OldEncoding: 3656
Width: 0
Flags: W
VStem: -104 43<699 832>
AnchorPoint: "AboveMark" -61 666 mark 0
Fore
-104 699 m 1
 -104 832 l 1
 -61 832 l 1
 -61 699 l 1
 -104 699 l 1
EndSplineSet
Substitution: 0 65534 'loww' uni0E48.low
Substitution: 0 65534 'amni' uni0E4D
EndChar
StartChar: uni0E49
Encoding: 200 3657 201
OldEncoding: 3657
Width: 0
Flags: W
HStem: 666 32<-131 -106.713> 716 29<-171 -160> 800 29<-162 -153>
VStem: -220 31<773 779> -133 34<765 779>
AnchorPoint: "AboveMark" -61 666 mark 0
Fore
-99 770 m 0
 -99 750 -103 734 -108 722 c 0
 -115 710 -121 702 -125 698 c 1
 -94 698 -68 706 -49 723 c 0
 -35 736 -26 749 -23 766 c 0
 -18 783 -16 802 -16 825 c 1
 26 825 l 1
 26 754 2 707 -46 684 c 0
 -70 671 -98 666 -131 666 c 0
 -145 666 -157 667 -167 668 c 0
 -177 670 -185 671 -189 672 c 1
 -184 675 -177 679 -170 686 c 0
 -162 694 -156 704 -153 719 c 1
 -154 719 -155 719 -157 718 c 0
 -160 716 -164 716 -167 716 c 0
 -171 716 -175 718 -182 719 c 0
 -208 727 -220 745 -220 773 c 0
 -220 783 -218 793 -212 801 c 0
 -208 810 -201 817 -192 823 c 0
 -184 827 -174 829 -162 829 c 0
 -142 829 -127 824 -116 811 c 0
 -105 800 -99 786 -99 770 c 0
-162 800 m 0
 -171 800 -177 798 -182 792 c 0
 -186 786 -189 781 -189 773 c 0
 -189 765 -186 759 -182 754 c 0
 -177 748 -171 745 -162 745 c 0
 -154 745 -147 748 -141 754 c 0
 -136 758 -133 765 -133 773 c 0
 -133 781 -136 786 -141 792 c 0
 -146 798 -153 800 -162 800 c 0
EndSplineSet
Substitution: 0 65534 'loww' uni0E49.low
Substitution: 0 65534 'amni' uni0E4D
EndChar
StartChar: uni0E4A
Encoding: 201 3658 202
OldEncoding: 3658
Width: 0
Flags: W
HStem: 676 20<-210 -202> 746 20<-218.648 -203> 794 31<-212 -203 -140 -126>
VStem: -271 36<721 756> -185 20<717 725> -106 30<749 764> -36 33<780 801>
AnchorPoint: "AboveMark" -61 666 mark 0
Fore
-210 676 m 0
 -223 677 -233 680 -243 688 c 0
 -253 696 -260 706 -264 719 c 0
 -269 731 -271 744 -271 756 c 0
 -270 776 -263 793 -253 806 c 0
 -243 818 -228 825 -210 825 c 0
 -202 825 -195 824 -189 822 c 0
 -183 818 -177 816 -174 812 c 0
 -171 809 -168 807 -167 806 c 1
 -165 809 -160 812 -154 818 c 0
 -147 823 -138 825 -128 825 c 0
 -110 825 -96 818 -88 806 c 0
 -80 793 -76 777 -76 756 c 0
 -76 740 -80 724 -89 707 c 1
 -85 710 -78 713 -70 719 c 0
 -61 724 -54 732 -50 740 c 0
 -41 755 -36 770 -36 786 c 0
 -36 796 -37 806 -40 816 c 1
 -7 827 l 1
 -5 820 -3 811 -3 799 c 0
 -3 768 -11 742 -26 721 c 0
 -45 693 -84 679 -139 679 c 1
 -133 687 -127 697 -119 707 c 0
 -112 719 -107 732 -106 749 c 0
 -106 763 -108 774 -112 782 c 0
 -115 790 -123 794 -134 794 c 0
 -142 794 -148 792 -154 786 c 0
 -159 781 -164 776 -165 773 c 1
 -166 776 -171 781 -177 786 c 0
 -184 792 -193 794 -205 794 c 0
 -214 794 -221 791 -227 785 c 0
 -233 779 -235 770 -235 759 c 1
 -234 760 -231 762 -226 764 c 0
 -223 765 -217 766 -210 766 c 0
 -195 766 -185 762 -177 754 c 0
 -170 745 -165 733 -165 719 c 0
 -165 709 -170 698 -179 689 c 0
 -188 680 -198 676 -210 676 c 0
-210 746 m 0
 -218 746 -225 744 -228 738 c 0
 -233 732 -235 727 -235 721 c 0
 -235 714 -233 709 -228 704 c 0
 -225 698 -218 696 -210 696 c 0
 -202 696 -195 698 -191 704 c 0
 -188 707 -185 713 -185 721 c 0
 -185 728 -188 733 -191 739 c 0
 -195 744 -202 746 -210 746 c 0
EndSplineSet
Substitution: 0 65534 'loww' uni0E4A.low
Substitution: 0 65534 'amni' uni0E4D
EndChar
StartChar: uni0E4B
Encoding: 202 3659 203
OldEncoding: 3659
Width: 0
Flags: W
HStem: 734 39<-174 -104 -61 9>
VStem: -104 43<679 734 773 829>
AnchorPoint: "AboveMark" -61 666 mark 0
Fore
-104 734 m 1
 -174 734 l 1
 -174 773 l 1
 -104 773 l 1
 -104 829 l 1
 -61 829 l 1
 -61 773 l 1
 9 773 l 1
 9 734 l 1
 -61 734 l 1
 -61 679 l 1
 -104 679 l 1
 -104 734 l 1
EndSplineSet
Substitution: 0 65534 'loww' uni0E4B.low
Substitution: 0 65534 'amni' uni0E4D
EndChar
StartChar: uni0E4C
Encoding: 203 3660 204
OldEncoding: 3660
Width: 0
Flags: W
VStem: -171 49<686 701> -73 27<683 688>
AnchorPoint: "AboveMark" -61 632 mark 0
Fore
-139 713 m 0
 -138 716 -133 722 -128 728 c 0
 -121 733 -111 736 -98 737 c 1
 -82 736 -70 731 -60 721 c 0
 -51 711 -46 699 -46 685 c 0
 -46 671 -51 659 -60 649 c 0
 -69 638 -81 632 -98 632 c 0
 -121 631 -139 638 -151 651 c 0
 -164 663 -171 679 -171 701 c 0
 -171 718 -167 732 -159 746 c 0
 -151 758 -141 768 -127 775 c 0
 -112 781 -93 785 -67 786 c 0
 -41 788 -23 791 -11 796 c 0
 0 799 6 810 6 827 c 1
 40 827 l 1
 40 810 35 798 26 788 c 0
 18 777 8 771 -3 767 c 0
 -17 762 -36 758 -61 757 c 0
 -85 756 -103 753 -115 748 c 0
 -128 742 -136 731 -139 713 c 0
-98 710 m 0
 -114 710 -122 702 -122 686 c 0
 -122 680 -120 675 -115 670 c 0
 -112 664 -106 662 -98 662 c 0
 -92 662 -86 664 -80 669 c 1
 -76 675 -73 680 -73 686 c 0
 -73 693 -76 698 -80 703 c 0
 -85 707 -90 710 -98 710 c 0
EndSplineSet
Substitution: 0 65534 'loww' uni0E4C.low
EndChar
StartChar: uni0E4D
Encoding: 204 3661 205
OldEncoding: 3661
Width: 0
Flags: W
HStem: 432 31<-122 -120> 539 32<-122 -120>
VStem: -192 32<502 504> -84 31<502 504>
AnchorPoint: "AboveMark" -38 450 mark 0
AnchorPoint: "AboveMark" -61 646 basemark 0
AnchorPoint: "AboveBase" -38 450 mark 0
Fore
-122 432 m 0
 -144 432 -160 438 -173 453 c 0
 -185 467 -192 483 -192 502 c 0
 -192 520 -185 536 -173 549 c 0
 -160 564 -144 571 -122 571 c 0
 -101 571 -84 564 -71 550 c 0
 -59 537 -53 521 -53 502 c 0
 -53 483 -59 466 -71 452 c 0
 -84 438 -101 432 -122 432 c 0
-122 539 m 0
 -134 539 -144 536 -150 528 c 0
 -157 520 -160 512 -160 502 c 0
 -160 492 -157 483 -150 475 c 0
 -144 467 -134 463 -122 463 c 0
 -110 463 -101 467 -94 475 c 0
 -87 483 -84 492 -84 502 c 0
 -84 507 -85 513 -88 519 c 0
 -92 524 -96 530 -102 533 c 0
 -107 537 -114 539 -122 539 c 0
EndSplineSet
Substitution: 0 65534 'am04' uni0E4B
Substitution: 0 65534 'am03' uni0E4A
Substitution: 0 65534 'am02' uni0E49
Substitution: 0 65534 'am01' uni0E48
EndChar
StartChar: uni0E4E
Encoding: 205 3662 206
OldEncoding: 3662
Width: 0
VWidth: 2048
Flags: W
HStem: 468 27<-212 -199> 593 44<-194 -181> 670 39<-82 -67>
VStem: -284 50<531 545>
AnchorPoint: "AboveBase" -38 450 mark 0
Fore
-8 640 m 2
 -9 641 l 2
 -14 647 -20 653 -28 660 c 0
 -36 667 -47 670 -62 670 c 2
 -69 670 l 2
 -79 670 -88 666 -96 658 c 0
 -105 651 -112 641 -116 628 c 1
 -119 614 l 1
 -119 608 -118 601 -115 597 c 2
 -108 580 l 1
 -106 574 l 1
 -105 567 l 1
 -105 565 -106 563 -108 560 c 1
 -116 558 l 1
 -121 558 -124 560 -125 565 c 1
 -136 579 -144 588 -151 589 c 0
 -158 592 -168 593 -183 593 c 0
 -192 593 -203 590 -214 583 c 0
 -224 575 -229 565 -233 555 c 1
 -234 540 l 1
 -234 528 -231 518 -225 510 c 0
 -219 501 -211 496 -200 495 c 2
 -195 495 l 2
 -186 495 -179 496 -170 501 c 0
 -162 505 -155 510 -151 515 c 1
 -157 492 l 1
 -170 476 -189 468 -212 468 c 1
 -233 470 l 1
 -250 475 -262 485 -271 498 c 0
 -280 513 -284 528 -284 545 c 0
 -284 560 -281 574 -276 585 c 0
 -267 602 -255 615 -241 624 c 0
 -226 633 -210 637 -194 637 c 0
 -177 637 -163 633 -148 624 c 1
 -149 638 l 1
 -149 645 -148 653 -147 659 c 0
 -146 667 -144 673 -139 680 c 0
 -134 688 -127 695 -114 702 c 0
 -103 706 -93 709 -82 709 c 0
 -67 709 -51 706 -37 699 c 0
 -23 693 -11 683 -3 670 c 1
 3 657 l 2
 7 651 8 645 8 641 c 0
 8 636 6 635 2 635 c 0
 -1 635 -5 636 -8 640 c 2
EndSplineSet
EndChar
StartChar: uni0E4F
Encoding: 206 3663 207
OldEncoding: 3663
Width: 407
VWidth: 2048
Flags: W
HStem: 0 43<192 201> 95 43<192 201> 297 42<192 201> 391 43<192 201>
VStem: -24 43<217 225> 71 44<217 225> 269 44<217 225> 367 42<217 225>
Fore
192 297 m 1
 149 297 115 261 115 217 c 0
 115 174 149 138 192 138 c 0
 235 138 269 174 269 217 c 1
 269 261 235 298 192 297 c 1
192 0 m 0
 125 0 72 23 34 66 c 0
 -5 110 -24 160 -24 217 c 0
 -24 277 -5 328 33 371 c 0
 70 414 123 434 192 434 c 0
 237 434 278 424 311 403 c 1
 345 382 368 355 384 323 c 0
 400 290 409 255 409 217 c 0
 409 179 400 144 384 112 c 0
 368 79 345 52 311 31 c 1
 278 10 237 0 192 0 c 0
192 391 m 0
 138 391 95 374 64 340 c 0
 34 306 19 264 19 217 c 0
 19 189 25 160 37 133 c 0
 50 106 70 85 97 69 c 1
 123 51 155 43 192 43 c 0
 229 43 261 51 288 69 c 0
 313 84 333 105 348 132 c 1
 360 160 367 189 367 217 c 0
 367 245 360 273 348 302 c 1
 332 330 313 351 288 367 c 0
 261 383 229 391 192 391 c 0
192 95 m 0
 167 95 145 101 125 113 c 0
 106 125 94 141 85 159 c 0
 76 177 71 198 71 217 c 0
 71 236 76 257 85 276 c 0
 93 294 106 308 125 321 c 0
 146 332 167 339 192 339 c 0
 217 339 238 332 259 321 c 0
 278 310 290 295 299 276 c 0
 308 258 313 237 313 217 c 0
 313 185 303 157 282 132 c 0
 260 107 229 95 192 95 c 0
EndSplineSet
EndChar
StartChar: uni0E50
Encoding: 207 3664 208
OldEncoding: 3664
Width: 400
Flags: W
HStem: -5 45<181.284 214> 234 44<200 214>
VStem: 37 51<123.034 140> 312 51<123.034 140>
Fore
200 -5 m 0
 149 -5 108 10 80 38 c 0
 52 67 37 99 37 137 c 0
 37 160 44 184 56 206 c 0
 69 227 87 245 112 259 c 0
 137 271 166 278 200 278 c 0
 234 278 263 271 288 259 c 0
 313 245 332 227 345 206 c 0
 357 184 363 160 363 137 c 0
 363 113 356 89 344 68 c 0
 331 46 313 29 288 16 c 0
 264 3 235 -5 200 -5 c 0
200 234 m 0
 165 234 137 225 118 206 c 0
 98 186 88 163 88 137 c 0
 88 111 98 88 118 69 c 0
 137 50 165 40 200 40 c 0
 235 40 263 50 282 69 c 0
 302 88 312 111 312 137 c 0
 312 163 302 186 282 206 c 0
 263 225 235 234 200 234 c 0
EndSplineSet
EndChar
StartChar: uni0E51
Encoding: 208 3665 209
OldEncoding: 3665
Width: 400
Flags: W
HStem: 17 42<151 172> 70 32<191.032 199.992> 163 30<200 204> 245 42<200 204>
VStem: 132 38<123 134> 231 42<120 134> 328 44<124 141>
Fore
87 141 m 0
 87 120 94 101 108 84 c 0
 123 67 140 59 160 59 c 0
 173 59 186 62 200 70 c 1
 190 70 176 73 159 80 c 0
 142 88 133 103 132 124 c 0
 132 145 139 162 153 174 c 0
 165 186 181 193 200 193 c 0
 224 193 243 186 255 173 c 0
 268 159 273 141 273 120 c 0
 273 101 269 82 259 67 c 0
 250 52 237 40 220 31 c 0
 203 21 184 17 165 17 c 0
 130 17 101 28 79 50 c 0
 58 71 44 102 43 141 c 0
 42 168 51 193 66 215 c 0
 80 237 98 255 122 268 c 0
 146 280 172 287 200 287 c 0
 253 286 295 270 325 242 c 0
 356 212 372 173 372 124 c 0
 372 92 365 63 351 41 c 0
 337 17 316 -6 289 -28 c 1
 261 -5 l 1
 305 33 328 76 328 124 c 0
 328 159 316 189 295 211 c 0
 272 234 241 245 200 245 c 0
 167 245 141 235 120 216 c 0
 99 197 88 172 87 141 c 0
200 163 m 0
 190 163 183 159 177 154 c 0
 172 148 170 140 170 132 c 0
 170 124 172 118 177 112 c 0
 183 105 190 102 200 102 c 0
 210 102 217 105 223 112 c 0
 228 118 231 124 231 132 c 0
 231 140 228 148 223 154 c 0
 217 159 210 163 200 163 c 0
EndSplineSet
EndChar
StartChar: uni0E52
Encoding: 209 3666 210
OldEncoding: 3666
Width: 490
Flags: W
HStem: 0 43<174 362> 80 33<215 224> 179 33<215 224> 238 40<234 249 350 369>
VStem: 59 47<101 321> 137 45<146 160> 247 33<143 149> 396 47<89 204>
Fore
137 160 m 0
 137 184 141 205 150 223 c 0
 159 241 172 254 186 263 c 0
 202 273 219 278 236 278 c 0
 255 278 271 273 282 266 c 0
 293 258 301 251 304 245 c 1
 305 251 311 259 321 267 c 0
 330 276 346 280 367 280 c 0
 392 280 411 272 424 255 c 0
 436 238 443 220 443 202 c 2
 443 89 l 2
 443 59 436 36 421 21 c 0
 407 7 381 0 344 0 c 2
 186 0 l 2
 139 0 106 9 87 28 c 0
 68 47 59 78 59 120 c 2
 59 311 l 2
 59 328 56 342 53 354 c 0
 50 365 42 373 31 377 c 1
 70 410 l 1
 94 396 106 370 106 334 c 2
 106 118 l 2
 106 94 112 75 124 62 c 0
 136 50 156 43 184 43 c 2
 344 43 l 2
 364 43 377 46 385 54 c 0
 392 61 396 72 396 89 c 2
 396 189 l 2
 396 221 384 238 360 238 c 0
 345 238 332 233 323 220 c 0
 313 208 307 197 304 189 c 1
 303 192 299 198 294 206 c 0
 288 212 280 219 270 227 c 0
 260 235 250 238 238 238 c 0
 226 238 215 235 206 228 c 0
 197 220 190 212 186 202 c 0
 188 205 191 207 195 209 c 0
 200 211 207 212 215 212 c 0
 228 212 241 209 251 203 c 0
 261 198 268 190 273 180 c 0
 278 170 280 159 280 147 c 0
 280 128 275 112 263 99 c 0
 252 87 236 80 215 80 c 0
 192 80 174 88 159 103 c 0
 145 118 137 137 137 160 c 0
215 179 m 0
 205 179 197 175 191 170 c 0
 185 164 182 156 182 146 c 0
 182 138 185 130 191 123 c 0
 197 116 205 113 215 113 c 0
 225 113 233 116 238 123 c 0
 244 129 247 137 247 146 c 0
 247 155 245 163 240 170 c 0
 234 175 225 179 215 179 c 0
EndSplineSet
EndChar
StartChar: uni0E53
Encoding: 210 3667 211
OldEncoding: 3667
Width: 471
Flags: W
HStem: -5 42<124 134> 0 21G<226 276 349 401> 104 35<122 140> 245 42<153 165 323 332>
VStem: 43 49<128 156> 163 37<68 76> 226 50<0 172> 381 47<117 156>
Fore
158 245 m 0x7f
 132 245 114 234 105 212 c 0
 96 190 92 162 92 128 c 1
 94 129 98 131 105 134 c 0
 112 138 121 139 132 139 c 0
 154 139 171 132 183 119 c 0
 194 105 200 89 200 70 c 0
 200 51 193 33 180 18 c 0
 167 3 148 -5 124 -5 c 0xbf
 96 -6 76 8 63 34 c 0
 50 60 43 98 43 151 c 0
 43 175 47 198 56 218 c 0
 66 238 79 255 96 268 c 0
 113 280 132 287 156 287 c 0
 184 287 206 280 220 266 c 0
 235 251 244 238 247 228 c 1
 247 234 254 245 268 262 c 0
 280 279 299 287 323 287 c 0
 360 287 386 272 403 244 c 0
 420 215 429 176 428 130 c 0
 427 73 417 31 401 0 c 1
 349 0 l 1
 358 10 366 28 372 54 c 0
 377 80 381 107 381 137 c 0
 381 170 376 195 367 215 c 0
 358 235 344 245 323 245 c 0
 292 245 276 220 276 170 c 2
 276 0 l 1
 226 0 l 1
 226 170 l 2
 226 190 220 208 209 223 c 0
 197 237 180 245 158 245 c 0x7f
130 104 m 0
 120 104 112 101 106 94 c 0
 101 88 97 80 97 71 c 0
 97 62 101 54 106 47 c 0
 113 41 121 37 130 37 c 0
 140 37 149 41 155 47 c 0
 160 53 163 61 163 71 c 0
 163 79 160 87 155 94 c 0
 149 101 141 104 130 104 c 0
EndSplineSet
EndChar
StartChar: uni0E54
Encoding: 211 3668 212
OldEncoding: 3668
Width: 471
Flags: W
HStem: 0 45<184 220> 50 58<238 259> 170 35<238 240> 231 40<305 329> 236 42<215 234>
VStem: 43 49<135 146> 165 42<139 146> 269 37<139 146>
Fore
259 50 m 0xef
 255 50 238 58 210 73 c 0
 180 89 165 111 165 139 c 0
 165 156 172 172 186 185 c 0
 200 198 217 205 238 205 c 0
 260 205 277 198 288 185 c 0
 301 172 306 156 306 139 c 0
 306 122 302 110 294 102 c 0
 286 94 279 89 273 87 c 1
 290 75 307 67 323 64 c 0
 338 62 355 61 374 58 c 0
 391 55 410 47 432 35 c 1
 412 -5 l 1
 398 8 371 15 330 15 c 0
 315 15 294 12 267 7 c 0
 241 2 215 0 189 0 c 0
 163 0 139 6 118 16 c 0
 95 26 77 42 63 63 c 0
 50 85 43 111 43 144 c 0
 43 170 51 192 66 212 c 0
 80 233 99 249 125 260 c 0
 151 272 182 278 215 278 c 0xef
 221 278 233 277 250 276 c 0
 278 272 297 271 307 271 c 0
 336 271 359 276 376 286 c 0
 393 296 406 313 414 337 c 0
 421 360 427 394 431 438 c 1
 480 432 l 1
 480 410 476 380 466 342 c 0
 455 305 437 276 412 257 c 0
 389 240 360 231 327 231 c 0xf7
 316 231 303 232 284 234 c 0
 264 235 247 236 231 236 c 0
 191 237 158 227 132 212 c 0
 105 197 92 172 92 137 c 0
 92 76 129 45 205 45 c 0
 224 45 242 46 259 50 c 0xef
238 170 m 0
 228 170 220 166 215 160 c 0
 209 155 207 147 207 139 c 0
 207 131 209 124 215 118 c 0
 220 112 228 108 238 108 c 0
 249 108 255 112 261 118 c 0
 267 123 269 131 269 139 c 0
 269 148 267 156 261 162 c 0
 255 167 249 170 238 170 c 0
EndSplineSet
EndChar
StartChar: uni0E55
Encoding: 212 3669 213
OldEncoding: 3669
Width: 471
Flags: W
HStem: 0 45<182 219> 50 58<238 259> 170 35<238 244> 229 43<297 325> 235 46<231 244> 342 39<230 241>
VStem: 43 49<135 146> 165 42<139 146> 172 37<310 317> 269 37<139 146 302.994 317> 270 38<312 315>
Fore
308 315 m 0xeea0
 308 303 307 294 305 287 c 0
 302 280 299 276 297 272 c 1
 327 272 350 277 368 285 c 0
 386 293 401 310 411 333 c 0
 421 358 428 393 431 438 c 1
 480 432 l 1
 480 410 476 380 466 342 c 0
 455 305 437 276 412 257 c 0
 389 238 359 229 325 229 c 0xf6a0
 322 229 308 231 286 233 c 0
 264 234 245 235 231 235 c 0
 206 235 183 232 162 226 c 0
 140 219 123 209 111 194 c 0
 98 180 92 160 92 137 c 0
 92 76 129 45 205 45 c 0
 224 45 242 46 259 50 c 0
 255 50 238 58 210 73 c 0
 180 89 165 111 165 139 c 0
 165 156 172 172 186 185 c 0
 200 198 217 205 238 205 c 0
 260 205 277 198 288 185 c 0
 301 172 306 156 306 139 c 0xef40
 306 122 302 110 294 102 c 0
 286 94 279 89 273 87 c 1
 290 75 307 67 323 64 c 0
 338 62 355 61 374 58 c 0
 391 55 410 47 432 35 c 1
 412 -5 l 1
 398 8 371 15 330 15 c 0
 315 15 294 12 267 7 c 0
 241 2 215 0 189 0 c 0
 163 0 139 6 118 16 c 0
 95 26 77 42 63 63 c 0
 50 85 43 111 43 144 c 0
 43 172 51 194 66 214 c 0
 80 233 97 247 119 258 c 0
 140 268 160 273 182 276 c 1
 181 279 179 284 175 292 c 0
 173 299 172 307 172 315 c 0
 172 334 179 350 191 363 c 0
 205 375 221 381 241 381 c 0
 261 380 278 374 290 362 c 0
 303 349 308 334 308 315 c 0xeea0
240 342 m 0
 229 342 223 339 217 333 c 0
 211 328 209 320 209 312 c 0
 209 304 211 297 217 290 c 0
 223 285 229 281 240 281 c 0xeea0
 245 281 251 282 257 286 c 0
 260 289 263 293 267 297 c 0
 269 302 270 306 270 312 c 0
 270 321 268 329 262 334 c 0
 257 340 250 342 240 342 c 0
238 170 m 0
 228 170 220 166 215 160 c 0
 209 155 207 147 207 139 c 0
 207 131 209 124 215 118 c 0
 220 112 228 108 238 108 c 0
 249 108 255 112 261 118 c 0
 267 123 269 131 269 139 c 0xe740
 269 148 267 156 261 162 c 0
 255 167 249 170 238 170 c 0
EndSplineSet
EndChar
StartChar: uni0E56
Encoding: 213 3670 214
OldEncoding: 3670
Width: 360
Flags: W
HStem: -5 48<174 194> 123 37<130 132> 245 48<170 198>
VStem: 61 38<90 98> 160 40<90 97> 282 50<148 162>
Fore
179 43 m 1
 200 43 219 47 235 58 c 0
 251 67 263 79 271 95 c 0
 279 111 282 129 282 148 c 0
 282 167 278 184 269 199 c 0
 261 214 247 225 231 233 c 0
 214 241 193 245 170 245 c 1
 150 242 132 236 115 228 c 0
 98 219 86 212 78 207 c 1
 77 223 75 240 71 258 c 0
 68 275 62 294 56 314 c 0
 51 333 44 353 36 371 c 0
 28 388 21 402 15 412 c 1
 52 432 l 1
 60 421 71 398 84 360 c 0
 96 324 105 295 111 273 c 1
 145 286 174 293 198 293 c 0
 226 293 250 286 270 273 c 0
 290 261 306 243 316 221 c 0
 327 200 332 175 332 148 c 0
 332 112 324 82 308 60 c 0
 293 36 272 20 249 10 c 0
 225 0 200 -5 174 -5 c 0
 157 -5 139 0 122 8 c 0
 105 16 90 28 79 43 c 0
 67 58 61 75 61 94 c 0
 61 113 68 129 81 141 c 0
 95 154 111 160 130 160 c 0
 151 160 170 154 182 141 c 0
 195 127 200 111 200 92 c 0
 200 77 198 67 192 59 c 0
 186 51 182 46 179 43 c 1
130 123 m 0
 121 123 114 120 108 114 c 0
 103 107 99 101 99 93 c 0
 99 85 102 77 107 71 c 0
 113 64 121 61 130 61 c 0
 140 61 147 64 153 71 c 0
 158 77 160 85 160 93 c 0
 160 101 158 107 153 114 c 0
 147 120 140 123 130 123 c 0
EndSplineSet
EndChar
StartChar: uni0E57
Encoding: 214 3671 215
OldEncoding: 3671
Width: 494
Flags: W
HStem: -5 36<137 151> 93 34<137 150> 228 41<148 156 282 284>
VStem: 43 46<122 156> 176 33<58 65> 198 38<163 174.259> 322 45<154 171> 411 41<281 285> 412 41<209 300>
Fore
330 47 m 1xfa
 354 52 371 62 383 78 c 0
 396 93 403 112 407 133 c 0
 410 155 412 180 412 209 c 0
 412 217 412 229 412 244 c 0xfa80
 411 259 411 272 411 285 c 0
 411 316 414 342 418 364 c 0
 421 385 431 403 443 417 c 1
 480 393 l 1
 461 374 452 337 452 281 c 0xf3
 452 269 452 259 453 249 c 0
 453 238 453 226 453 209 c 0
 453 172 450 140 444 114 c 0
 437 87 425 64 406 45 c 0
 393 33 376 21 356 12 c 0
 336 3 319 -2 306 -5 c 1
 276 28 l 1
 288 43 298 64 308 94 c 0
 318 122 322 147 322 171 c 0
 322 209 308 228 282 228 c 0
 268 228 257 221 249 207 c 0
 241 192 236 177 236 163 c 1
 198 163 l 1xf680
 198 177 193 192 185 207 c 0
 176 221 164 228 148 228 c 0
 129 228 114 219 104 202 c 0
 94 184 89 163 89 139 c 0
 89 122 92 108 95 99 c 1
 97 104 103 110 111 116 c 0
 119 123 130 127 146 127 c 0
 166 127 182 121 193 108 c 0
 203 96 209 80 209 63 c 0
 209 44 203 28 191 16 c 0
 179 2 162 -5 139 -5 c 0
 111 -5 87 11 70 42 c 0
 52 72 43 106 43 144 c 0
 43 177 53 207 73 232 c 0
 93 257 118 269 148 269 c 0
 170 269 186 264 197 254 c 0
 207 244 214 236 217 231 c 1
 219 236 225 244 235 254 c 0
 245 264 261 269 282 269 c 0
 313 269 336 259 348 237 c 0
 360 216 368 190 367 158 c 0
 367 132 362 110 353 90 c 0
 344 70 336 55 330 47 c 1xfa
145 93 m 0
 134 93 128 89 122 84 c 0
 116 77 114 70 114 62 c 0
 114 54 116 46 122 41 c 0
 128 34 134 31 145 31 c 0
 155 31 163 34 168 40 c 0
 174 45 176 53 176 62 c 0
 176 70 174 78 168 84 c 0
 163 89 155 93 145 93 c 0
EndSplineSet
EndChar
StartChar: uni0E58
Encoding: 215 3672 216
OldEncoding: 3672
Width: 471
Flags: W
HStem: -7 38<307 323> 0 133<151 166.525> 56 33<330 342> 151 35<330 342> 217 42<314 348> 231 40<193 220>
VStem: 43 45<131 146> 120 37<56 70.1036> 267 37<118 123> 365 50<87 120> 398 43<304 362>
Fore
233 89 m 0x33a0
 257 66 273 50 285 42 c 0
 296 34 307 31 319 31 c 0
 333 31 346 35 356 43 c 0
 366 51 372 62 373 78 c 1
 372 75 367 70 360 64 c 0
 354 59 345 56 332 56 c 0
 315 56 299 62 286 73 c 0
 273 85 267 101 267 120 c 0
 267 139 273 155 286 167 c 0
 298 180 314 186 332 186 c 0
 348 186 363 182 375 173 c 0
 388 165 398 153 405 137 c 0
 411 121 415 104 415 87 c 0
 415 58 407 35 390 18 c 0
 373 1 349 -7 321 -7 c 0
 299 -7 280 -1 262 9 c 0
 244 19 221 40 195 70 c 0
 186 81 179 87 172 87 c 0
 162 87 157 77 157 56 c 0xb3c0
 157 34 163 15 174 0 c 1
 118 0 l 1
 96 21 79 43 64 64 c 0
 50 85 43 112 43 146 c 1
 49 188 66 218 94 240 c 0
 122 261 157 271 201 271 c 0x57c0
 218 271 232 270 241 269 c 0
 255 267 268 264 278 263 c 0
 288 262 297 261 306 260 c 0
 316 259 325 259 334 259 c 0
 354 259 367 262 377 268 c 0
 388 275 394 286 396 302 c 0
 397 316 398 329 398 339 c 0
 398 376 394 402 389 417 c 1
 436 417 l 1
 440 409 441 372 441 304 c 0
 441 272 432 250 414 236 c 0
 397 224 372 217 340 217 c 0x1ba0
 315 217 288 220 259 226 c 0
 237 229 223 231 212 231 c 0
 182 231 157 224 137 214 c 0
 115 202 99 186 92 163 c 0
 89 155 88 147 88 139 c 0
 88 124 92 108 98 92 c 0
 104 75 112 63 120 56 c 1x37a0
 120 102 130 128 151 133 c 1x53a0
 170 133 185 129 198 121 c 0
 210 113 221 102 233 89 c 0x33a0
334 151 m 0
 324 151 318 148 312 141 c 0
 306 136 304 129 304 121 c 0
 304 113 306 105 312 98 c 0
 318 93 324 89 334 89 c 0
 345 89 351 93 357 98 c 0
 363 105 365 112 365 120 c 0
 365 128 363 136 357 141 c 0
 351 148 345 151 334 151 c 0
EndSplineSet
EndChar
StartChar: uni0E59
Encoding: 216 3673 217
OldEncoding: 3673
Width: 428
Flags: W
HStem: -7 45<173 184> 99 38<182 184> 207 44<347 358> 225 44<150 176>
VStem: 37 44<130 140> 115 35<67 82> 212 38<69 79> 365 43<294 322>
DStem: 245 176 297 176 341 -5 386 15
Fore
174 -7 m 0xdf
 148 -7 121 3 94 21 c 0
 67 40 50 63 43 94 c 0
 40 111 37 125 37 138 c 0
 37 166 44 192 59 214 c 0
 73 235 95 251 123 261 c 0
 138 267 153 269 166 269 c 0xdf
 189 269 207 264 221 254 c 0
 236 244 246 236 252 231 c 1
 253 260 264 275 285 275 c 0
 298 275 311 270 322 262 c 0
 332 254 340 251 347 251 c 0
 359 251 365 266 365 294 c 0
 365 323 362 351 355 377 c 0
 348 403 344 417 341 417 c 2
 389 417 l 1
 392 410 396 399 400 382 c 0
 403 365 408 345 408 321 c 0
 409 284 405 255 399 236 c 0
 392 217 379 207 358 207 c 0xef
 349 207 338 211 324 219 c 0
 311 227 302 231 297 231 c 0
 292 229 288 223 288 212 c 0
 288 198 292 185 297 176 c 2
 386 15 l 1
 341 -5 l 1
 245 176 l 2
 237 191 226 203 211 212 c 0
 197 220 181 225 164 225 c 0
 140 225 122 217 106 200 c 0
 90 182 81 160 81 132 c 0
 81 118 85 103 92 89 c 0
 98 75 107 64 118 59 c 0
 116 59 115 67 115 82 c 1
 118 97 124 111 137 121 c 0
 147 131 163 137 182 137 c 0
 201 137 217 131 229 121 c 0
 242 111 250 96 250 78 c 0
 251 51 243 31 229 16 c 0
 216 1 198 -7 174 -7 c 0xdf
182 99 m 0
 172 99 164 96 158 90 c 0
 153 85 150 77 150 69 c 0
 150 61 154 54 159 47 c 0
 165 42 172 38 182 38 c 0
 192 38 199 42 205 47 c 0
 210 53 212 61 212 69 c 0
 212 78 210 86 205 92 c 0
 199 97 192 99 182 99 c 0
EndSplineSet
EndChar
StartChar: uni0E5A
Encoding: 217 3674 218
OldEncoding: 3674
Width: 461
VWidth: 2048
Flags: W
HStem: -14 40<191 214> 203 42<151 162> 298 35<107 113> 389 21G<334.5 347> 406 34<108 113>
VStem: 23 50<356 370> 145 35<370 381> 258 53<91 272> 371 54<72 364>
Fore
108 406 m 0xef80
 90 407 78 394 73 370 c 1
 73 349 85 337 108 333 c 1
 120 333 129 337 136 344 c 1
 140 351 142 359 145 370 c 1
 145 393 132 406 108 406 c 0xef80
304 414 m 1
 330 429 l 2
 336 434 345 436 354 437 c 1
 380 437 400 428 412 411 c 0
 417 407 420 398 423 385 c 1
 425 364 l 1
 425 93 l 2
 425 43 401 9 356 -8 c 1
 331 -15 l 1
 308 25 l 1
 323 28 l 2
 330 31 336 33 340 36 c 2
 359 52 l 2
 365 59 370 66 371 72 c 1
 371 360 l 2
 371 370 370 376 366 379 c 0
 362 385 353 389 341 389 c 0xf780
 328 389 318 383 311 372 c 1
 311 98 l 2
 311 69 303 43 285 21 c 0
 267 -1 243 -14 214 -14 c 1
 191 26 l 1
 208 26 225 35 242 51 c 0
 252 62 258 78 258 99 c 2
 258 272 l 1
 245 247 232 231 217 220 c 0
 201 209 181 203 154 203 c 0
 111 203 78 218 54 249 c 0
 33 276 23 312 23 356 c 1
 25 379 34 399 51 415 c 0
 68 432 87 440 110 440 c 0
 121 440 131 438 137 435 c 1
 165 428 180 408 180 372 c 0
 180 351 173 333 160 320 c 0
 148 306 131 298 111 298 c 0
 98 298 87 302 77 306 c 1
 80 293 l 1
 87 275 l 1
 92 267 96 260 103 257 c 1
 129 247 l 1
 151 245 l 1
 167 245 182 251 194 261 c 1
 212 281 l 1
 232 314 l 2
 238 327 243 340 246 357 c 1
 251 418 l 1
 253 432 261 438 276 438 c 0
 282 438 288 437 293 434 c 1
 299 424 l 1
 304 414 l 1
EndSplineSet
EndChar
StartChar: uni0E5B
Encoding: 218 3675 219
OldEncoding: 3675
Width: 814
VWidth: 2048
Flags: W
HStem: 35 40<173 186> 133 39<175 184> 176 33<654 803> 364 39<156 166>
VStem: 21 39<200 240> 101 35<210 221> 236 39<250 282>
DStem: 349 257 359 373 392 73 399 201
Fore
803 210 m 1
 803 180 l 1
 642 176 l 1
 635 177 628 181 622 185 c 1
 609 197 l 1
 603 206 l 1
 596 216 l 1
 557 95 l 1
 522 216 l 1
 480 67 l 1
 440 220 l 1
 411 73 l 1
 392 73 l 1
 349 257 l 1
 341 220 332 191 324 170 c 0
 310 131 297 105 286 90 c 0
 257 53 218 35 173 35 c 0
 125 35 88 54 60 95 c 0
 34 131 21 173 21 221 c 0
 21 267 33 307 54 342 c 0
 79 383 114 403 156 403 c 0
 194 403 224 390 245 363 c 0
 264 338 275 306 275 268 c 0
 275 234 267 205 252 179 c 0
 234 148 209 133 177 133 c 0
 155 133 136 144 120 164 c 1
 107 185 101 205 101 221 c 0
 101 235 105 249 115 261 c 0
 123 275 136 280 149 280 c 0
 163 280 174 275 184 261 c 0
 193 249 198 235 198 221 c 0
 198 200 190 184 175 172 c 1
 190 172 205 181 218 199 c 1
 231 220 236 244 236 269 c 0
 236 332 210 364 156 364 c 0
 127 364 103 347 84 312 c 0
 68 282 60 252 60 220 c 0
 60 184 70 151 88 123 c 0
 110 90 138 75 173 75 c 0
 217 75 252 99 275 151 c 0
 282 170 298 218 320 296 c 1
 341 373 l 1
 359 373 l 1
 399 201 l 1
 427 341 l 1
 446 341 l 1
 481 202 l 1
 520 340 l 1
 558 214 l 1
 586 307 l 1
 618 249 l 2
 631 225 643 212 655 210 c 1
 702 209 l 1
 803 210 l 1
149 245 m 1
 145 242 141 238 140 236 c 1
 136 220 l 1
 136 207 140 199 149 198 c 1
 153 199 156 201 157 203 c 1
 162 221 l 1
 162 227 160 233 158 237 c 0
 156 243 153 245 149 245 c 1
EndSplineSet
EndChar
StartChar: endash
Encoding: 220 8211 120
OldEncoding: 8211
Width: 601
VWidth: 2048
Flags: W
HStem: 193 32<-20 586>
Fore
-20 193 m 1
 -20 225 l 1
 586 225 l 1
 586 193 l 1
 -20 193 l 1
EndSplineSet
EndChar
StartChar: emdash
Encoding: 221 8212 121
OldEncoding: 8212
Width: 1203
VWidth: 2048
Flags: W
HStem: 193 32<-56 1188>
Fore
-56 193 m 1
 -56 225 l 1
 1188 225 l 1
 1188 193 l 1
 -56 193 l 1
EndSplineSet
EndChar
StartChar: quoteleft
Encoding: 222 8216 115
OldEncoding: 8216
Width: 136
VWidth: 2048
Flags: W
Fore
-7 462 m 0
 -8 497 2 525 23 544 c 0
 43 563 66 574 90 579 c 1
 102 579 107 576 107 572 c 0
 107 571 106 568 104 566 c 1
 94 563 81 555 64 544 c 0
 47 533 38 520 36 504 c 1
 46 506 l 1
 61 510 l 1
 95 506 112 488 113 457 c 0
 113 442 108 428 98 418 c 0
 90 407 77 401 61 401 c 0
 18 401 -5 421 -7 462 c 0
EndSplineSet
EndChar
StartChar: quoteright
Encoding: 223 8217 116
OldEncoding: 8217
Width: 136
VWidth: 2048
Flags: W
Fore
128 507 m 4
 128 471 118 445 97 426 c 4
 77 408 54 397 29 392 c 5
 18 392 11 394 11 399 c 4
 11 400 12 402 16 405 c 5
 25 408 38 416 55 427 c 4
 71 436 81 450 85 467 c 5
 73 464 l 5
 60 461 l 5
 26 466 9 483 9 515 c 4
 9 530 14 542 24 553 c 4
 32 564 45 568 62 568 c 4
 104 568 127 548 128 507 c 4
EndSplineSet
EndChar
StartChar: quotedblleft
Encoding: 224 8220 117
OldEncoding: 8220
Width: 255
VWidth: 2048
Flags: W
Fore
133 463 m 0
 133 498 142 527 163 546 c 0
 183 565 206 576 231 581 c 1
 242 581 249 579 249 574 c 1
 245 568 l 1
 244 567 l 2
 236 565 223 557 205 545 c 0
 189 536 179 522 176 505 c 1
 186 508 l 1
 200 511 l 1
 235 507 252 490 253 458 c 0
 253 443 249 431 238 420 c 0
 231 409 217 403 201 403 c 0
 158 402 136 423 133 463 c 0
-7 462 m 4
 -8 497 2 525 23 544 c 4
 43 563 66 574 90 579 c 5
 102 579 107 576 107 572 c 4
 107 571 106 568 104 566 c 5
 94 563 81 555 64 544 c 4
 47 533 38 520 36 504 c 5
 46 506 l 5
 61 510 l 5
 95 506 112 488 113 457 c 4
 113 442 108 428 98 418 c 4
 90 407 77 401 61 401 c 4
 18 401 -5 421 -7 462 c 4
EndSplineSet
EndChar
StartChar: quotedblright
Encoding: 225 8221 118
OldEncoding: 8221
Width: 255
VWidth: 2048
Flags: W
Fore
128 507 m 4
 128 472 118 445 97 426 c 4
 77 408 54 397 29 392 c 5
 17 392 11 394 11 399 c 4
 11 400 12 402 15 405 c 5
 24 408 37 416 56 427 c 4
 72 436 81 450 85 467 c 5
 75 464 l 5
 60 461 l 5
 26 466 9 483 9 515 c 4
 9 530 14 542 24 553 c 4
 32 564 45 568 61 568 c 4
 104 568 127 548 128 507 c 4
268 507 m 4
 268 471 259 445 237 426 c 4
 217 408 194 397 170 392 c 5
 158 392 153 394 153 399 c 4
 153 400 154 402 156 405 c 5
 165 408 179 416 197 427 c 4
 212 436 221 450 225 467 c 5
 215 464 l 5
 200 461 l 5
 166 466 149 483 149 515 c 4
 149 530 154 542 164 553 c 4
 172 564 185 568 201 568 c 4
 245 568 267 548 268 507 c 4
EndSplineSet
EndChar
